<svg width="11" height="16" viewBox="0 0 11 16" fill="none" xmlns="http://www.w3.org/2000/svg">
<path d="M7.42359 15.3032L0.519291 8.04389C0.401265 7.91996 0.34427 7.77523 0.348308 7.60968C0.352346 7.44413 0.416329 7.30234 0.540256 7.18432L7.79025 0.270237C7.91417 0.152211 8.0605 0.0952554 8.22923 0.0993708C8.39796 0.103486 8.54134 0.167508 8.65937 0.291435L10.1966 1.9153C10.3146 2.03923 10.3716 2.18397 10.3676 2.34952C10.3635 2.51506 10.2995 2.65685 10.1756 2.77488L4.98045 7.72266L9.92823 12.9178C10.0463 13.0418 10.1032 13.1865 10.0992 13.352C10.0952 13.5176 10.0312 13.6594 9.90726 13.7774L8.29271 15.3244C8.16878 15.4424 8.02245 15.4994 7.85372 15.4953C7.68499 15.4911 7.54161 15.4271 7.42359 15.3032Z" fill="#003554"/>
</svg>
