<svg width="8" height="8" viewBox="0 0 8 8" fill="none" xmlns="http://www.w3.org/2000/svg">
<path d="M7.22162 6.38732C7.4564 6.6221 7.4564 6.98732 7.22162 7.2221C7.10422 7.33949 6.96075 7.39167 6.80422 7.39167C6.6477 7.39167 6.50422 7.33949 6.38683 7.2221L3.99988 4.83515L1.61292 7.2221C1.49553 7.33949 1.35205 7.39167 1.19553 7.39167C1.03901 7.39167 0.895529 7.33949 0.778138 7.2221C0.543355 6.98732 0.543355 6.6221 0.778138 6.38732L3.16509 4.00036L0.778138 1.61341C0.543355 1.37863 0.543355 1.01341 0.778138 0.778626C1.01292 0.543843 1.37814 0.543843 1.61292 0.778626L3.99988 3.16558L6.38683 0.778626C6.62162 0.543843 6.98683 0.543843 7.22162 0.778626C7.4564 1.01341 7.4564 1.37863 7.22162 1.61341L4.83466 4.00036L7.22162 6.38732Z" fill="#FFC700"/>
</svg>
