<svg width="129" height="137" viewBox="0 0 129 137" fill="none" xmlns="http://www.w3.org/2000/svg">
<circle cx="41.6055" cy="41.6062" r="36.5" fill="white" fill-opacity="0.34"/>
<path d="M5.52768 47.1331C4.80187 42.3951 5.01637 37.5605 6.15895 32.9055C7.30153 28.2504 9.34981 23.8659 12.1868 20.0025C15.0239 16.139 18.5941 12.8721 22.6936 10.3884C26.7932 7.90469 31.3418 6.25277 36.0798 5.52696C40.8178 4.80114 45.6523 5.01565 50.3074 6.15823C54.9625 7.30081 59.3469 9.34909 63.2104 12.1861C67.0739 15.0231 70.3408 18.5934 72.8245 22.6929C75.3082 26.7925 76.9601 31.3411 77.6859 36.0791L76.0406 36.3311C75.3479 31.8092 73.7713 27.468 71.4008 23.5554C69.0304 19.6428 65.9125 16.2354 62.2252 13.5278C58.5379 10.8201 54.3534 8.86523 49.9106 7.77476C45.4678 6.68429 40.8538 6.47956 36.3319 7.17228C31.8099 7.86498 27.4688 9.44157 23.5561 11.812C19.6435 14.1825 16.2361 17.3003 13.5285 20.9876C10.8208 24.6749 8.86595 28.8594 7.77548 33.3022C6.685 37.745 6.48028 42.3591 7.17299 46.881L5.52768 47.1331Z" fill="white"/>
<path d="M53.1722 43.865C52.9849 41.2672 50.8935 40.1333 50.293 39.8599V37.0984C50.293 36.1637 49.5324 35.4031 48.5977 35.4031H29.707C28.7723 35.4031 28.0117 36.1637 28.0117 37.0984V46.7859C28.0117 47.7206 28.7723 48.4812 29.707 48.4812H39.2108C38.8789 48.8076 38.5511 49.16 38.239 49.5379C38.1652 49.6273 38.1652 49.7569 38.239 49.8463C40.2999 52.3424 43.0458 53.7261 43.1617 53.7838C43.1958 53.8008 43.2327 53.8093 43.2696 53.8093C43.3138 53.8093 43.3583 53.797 43.3971 53.7729C43.4685 53.7289 43.5118 53.6508 43.5118 53.5671V52.3628C44.4945 52.3817 48.0357 52.3377 50.0033 50.9924C51.3141 50.0961 53.4688 47.9784 53.1722 43.865ZM29.707 47.9969C29.0394 47.9969 28.4961 47.4538 28.4961 46.7859V37.0984C28.4961 36.4305 29.0394 35.8875 29.707 35.8875H48.5977C49.2653 35.8875 49.8086 36.4305 49.8086 37.0984L49.8098 39.9957C49.8081 40.0122 49.8081 40.0288 49.8098 40.0453L49.8109 42.5486C49.8076 42.5722 49.4509 44.9222 46.4063 46.364C45.334 46.8725 44.04 46.9903 43.5117 47.0177V45.8172C43.5117 45.7334 43.4684 45.6554 43.397 45.6114C43.3258 45.5674 43.2366 45.5627 43.1617 45.6005C43.0722 45.645 41.4221 46.4761 39.7268 47.9969H29.707ZM49.7298 50.5923C47.6128 52.0403 43.3232 51.8752 43.2799 51.8719C43.2156 51.8728 43.1498 51.8936 43.1021 51.9391C43.0543 51.9849 43.0273 52.0478 43.0273 52.1141V53.1604C42.2431 52.7167 40.2937 51.5091 38.742 49.6922C40.2937 47.8753 42.243 46.6677 43.0273 46.224V47.2679C43.0273 47.4018 43.1357 47.5101 43.2695 47.5101C43.345 47.5101 45.1363 47.5021 46.6138 46.802C49.8925 45.2491 50.2759 42.7217 50.293 42.5817V40.3968C50.9812 40.7526 52.5367 41.7847 52.6893 43.9C52.9684 47.7717 50.955 49.7551 49.7298 50.5923ZM40.6445 43.7302C40.9373 43.225 40.9184 42.629 40.5925 42.0945C40.3817 41.7482 40.0093 41.5013 39.6471 41.2615C39.3113 41.0382 39.1207 40.8921 39.0939 40.8708C39.0849 40.8093 39.1057 40.7526 39.1285 40.7265C39.136 40.7175 39.1429 40.7099 39.1767 40.7076C39.259 40.7085 39.3068 40.7615 39.3066 40.761C39.5296 41.0699 39.9655 41.1565 40.2992 40.9578C40.6294 40.7615 40.7303 40.3518 40.5338 40.0046C40.3847 39.7411 39.9674 39.3825 39.3659 39.3254C39.3582 39.2897 39.3519 39.259 39.3499 39.2408C39.3148 39.0258 38.9861 39.0296 38.9524 39.2408L38.9322 39.3438C38.5657 39.4008 38.2375 39.5689 38.0015 39.8385C37.709 40.1734 37.5787 40.6195 37.6439 41.0623C37.7355 41.6886 38.331 42.0835 38.8109 42.4023C38.9608 42.5017 39.273 42.7089 39.325 42.7907C39.37 42.8645 39.4128 42.9714 39.3614 43.0594C39.321 43.1294 39.2344 43.1739 39.1207 43.1819C39.0263 43.1838 38.8624 43.0414 38.7967 42.9407C38.5907 42.6147 38.1562 42.5074 37.8067 42.6952C37.4819 42.8702 37.3675 43.2415 37.5219 43.6195C37.6933 44.0379 38.2629 44.4821 38.9277 44.5564L38.9524 44.6827C38.9861 44.8939 39.3148 44.8978 39.3499 44.6827C39.3529 44.6556 39.3652 44.6004 39.3781 44.5405C39.9194 44.4606 40.3882 44.1718 40.6445 43.7302ZM37.9703 43.436C37.9421 43.3674 37.8925 43.1995 38.0365 43.1219C38.0777 43.0997 38.1235 43.0888 38.1687 43.0888C38.2566 43.0888 38.3428 43.1295 38.3894 43.2028C38.3927 43.2076 38.7162 43.6948 39.1573 43.665C39.4309 43.646 39.6582 43.5141 39.7802 43.3027C39.9117 43.0765 39.8963 42.7984 39.7386 42.5392C39.6414 42.3798 39.404 42.2147 39.0771 41.9976C38.6583 41.7199 38.1834 41.4049 38.123 40.9919C38.0786 40.6896 38.167 40.385 38.366 40.1575C38.5466 39.9512 38.8087 39.8259 39.1036 39.8046C39.6552 39.7615 40.0213 40.0827 40.1123 40.2431C40.1634 40.3339 40.1785 40.4663 40.0518 40.5416C39.9359 40.6106 39.7741 40.5809 39.6942 40.4711C39.6452 40.4082 39.4579 40.2 39.1445 40.2242C38.9886 40.2355 38.8605 40.297 38.7635 40.4082C38.6419 40.5477 38.5864 40.7468 38.6147 40.9413C38.645 41.1456 38.8749 41.3296 39.3813 41.6664C39.6972 41.876 40.0241 42.0926 40.1788 42.3466C40.4094 42.7246 40.4264 43.1404 40.2254 43.4871C40.0263 43.8305 39.6417 44.0538 39.1954 44.0845C38.6083 44.1242 38.0866 43.7208 37.9703 43.436ZM33.824 40.9933C33.2897 40.9933 32.8552 41.428 32.8552 41.962C32.8552 42.4961 33.2897 42.9308 33.824 42.9308C34.3582 42.9308 34.7927 42.4961 34.7927 41.962C34.7927 41.428 34.3582 40.9933 33.824 40.9933ZM33.824 42.4464C33.5569 42.4464 33.3396 42.2293 33.3396 41.962C33.3396 41.6948 33.5569 41.4777 33.824 41.4777C34.091 41.4777 34.3084 41.6948 34.3084 41.962C34.3084 42.2293 34.091 42.4464 33.824 42.4464ZM44.4807 42.9308C45.015 42.9308 45.4495 42.4961 45.4495 41.962C45.4495 41.428 45.015 40.9933 44.4807 40.9933C43.9464 40.9933 43.512 41.428 43.512 41.962C43.512 42.4961 43.9464 42.9308 44.4807 42.9308ZM44.4807 41.4777C44.7477 41.4777 44.9651 41.6948 44.9651 41.962C44.9651 42.2293 44.7477 42.4464 44.4807 42.4464C44.2137 42.4464 43.9963 42.2293 43.9963 41.962C43.9963 41.6948 44.2137 41.4777 44.4807 41.4777Z" fill="white"/>
</svg>
