<svg width="32" height="32" viewBox="0 0 32 32" fill="none" xmlns="http://www.w3.org/2000/svg">
<path d="M28.1722 14.865C27.9849 12.2672 25.8935 11.1333 25.293 10.8599V8.09839C25.293 7.16369 24.5324 6.40308 23.5977 6.40308H4.70703C3.77233 6.40308 3.01172 7.16369 3.01172 8.09839V17.7859C3.01172 18.7206 3.77233 19.4812 4.70703 19.4812H14.2108C13.8789 19.8076 13.5511 20.16 13.239 20.5379C13.1652 20.6273 13.1652 20.7569 13.239 20.8463C15.2999 23.3424 18.0458 24.7261 18.1617 24.7838C18.1958 24.8008 18.2327 24.8093 18.2696 24.8093C18.3138 24.8093 18.3583 24.797 18.3971 24.7729C18.4685 24.7289 18.5118 24.6508 18.5118 24.5671V23.3628C19.4945 23.3817 23.0357 23.3377 25.0033 21.9924C26.3141 21.0961 28.4688 18.9784 28.1722 14.865ZM4.70703 18.9969C4.03937 18.9969 3.49609 18.4538 3.49609 17.7859V8.09844C3.49609 7.43053 4.03937 6.8875 4.70703 6.8875H23.5977C24.2653 6.8875 24.8086 7.43053 24.8086 8.09844L24.8098 10.9957C24.8081 11.0122 24.8081 11.0288 24.8098 11.0453L24.8109 13.5486C24.8076 13.5722 24.4509 15.9222 21.4063 17.364C20.334 17.8725 19.04 17.9903 18.5117 18.0177V16.8172C18.5117 16.7334 18.4684 16.6554 18.397 16.6114C18.3258 16.5674 18.2366 16.5627 18.1617 16.6005C18.0722 16.645 16.4221 17.4761 14.7268 18.9969H4.70703ZM24.7298 21.5923C22.6128 23.0403 18.3232 22.8752 18.2799 22.8719C18.2156 22.8728 18.1498 22.8936 18.1021 22.9391C18.0543 22.9849 18.0273 23.0478 18.0273 23.1141V24.1604C17.2431 23.7167 15.2937 22.5091 13.742 20.6922C15.2937 18.8753 17.243 17.6677 18.0273 17.224V18.2679C18.0273 18.4018 18.1357 18.5101 18.2695 18.5101C18.345 18.5101 20.1363 18.5021 21.6138 17.802C24.8925 16.2491 25.2759 13.7217 25.293 13.5817V11.3968C25.9812 11.7526 27.5367 12.7847 27.6893 14.9C27.9684 18.7717 25.955 20.7551 24.7298 21.5923ZM15.6445 14.7302C15.9373 14.225 15.9184 13.629 15.5925 13.0945C15.3817 12.7482 15.0093 12.5013 14.6471 12.2615C14.3113 12.0382 14.1207 11.8921 14.0939 11.8708C14.0849 11.8093 14.1057 11.7526 14.1285 11.7265C14.136 11.7175 14.1429 11.7099 14.1767 11.7076C14.259 11.7085 14.3068 11.7615 14.3066 11.761C14.5296 12.0699 14.9655 12.1565 15.2992 11.9578C15.6294 11.7615 15.7303 11.3518 15.5338 11.0046C15.3847 10.7411 14.9674 10.3825 14.3659 10.3254C14.3582 10.2897 14.3519 10.259 14.3499 10.2408C14.3148 10.0258 13.9861 10.0296 13.9524 10.2408L13.9322 10.3438C13.5657 10.4008 13.2375 10.5689 13.0015 10.8385C12.709 11.1734 12.5787 11.6195 12.6439 12.0623C12.7355 12.6886 13.331 13.0835 13.8109 13.4023C13.9608 13.5017 14.273 13.7089 14.325 13.7907C14.37 13.8645 14.4128 13.9714 14.3614 14.0594C14.321 14.1294 14.2344 14.1739 14.1207 14.1819C14.0263 14.1838 13.8624 14.0414 13.7967 13.9407C13.5907 13.6147 13.1562 13.5074 12.8067 13.6952C12.4819 13.8702 12.3675 14.2415 12.5219 14.6195C12.6933 15.0379 13.2629 15.4821 13.9277 15.5564L13.9524 15.6827C13.9861 15.8939 14.3148 15.8978 14.3499 15.6827C14.3529 15.6556 14.3652 15.6004 14.3781 15.5405C14.9194 15.4606 15.3882 15.1718 15.6445 14.7302ZM12.9703 14.436C12.9421 14.3674 12.8925 14.1995 13.0365 14.1219C13.0777 14.0997 13.1235 14.0888 13.1687 14.0888C13.2566 14.0888 13.3428 14.1295 13.3894 14.2028C13.3927 14.2076 13.7162 14.6948 14.1573 14.665C14.4309 14.646 14.6582 14.5141 14.7802 14.3027C14.9117 14.0765 14.8963 13.7984 14.7386 13.5392C14.6414 13.3798 14.404 13.2147 14.0771 12.9976C13.6583 12.7199 13.1834 12.4049 13.123 11.9919C13.0786 11.6896 13.167 11.385 13.366 11.1575C13.5466 10.9512 13.8087 10.8259 14.1036 10.8046C14.6552 10.7615 15.0213 11.0827 15.1123 11.2431C15.1634 11.3339 15.1785 11.4663 15.0518 11.5416C14.9359 11.6106 14.7741 11.5809 14.6942 11.4711C14.6452 11.4082 14.4579 11.2 14.1445 11.2242C13.9886 11.2355 13.8605 11.297 13.7635 11.4082C13.6419 11.5477 13.5864 11.7468 13.6147 11.9413C13.645 12.1456 13.8749 12.3296 14.3813 12.6664C14.6972 12.876 15.0241 13.0926 15.1788 13.3466C15.4094 13.7246 15.4264 14.1404 15.2254 14.4871C15.0263 14.8305 14.6417 15.0538 14.1954 15.0845C13.6083 15.1242 13.0866 14.7208 12.9703 14.436ZM8.82398 11.9933C8.28971 11.9933 7.85523 12.428 7.85523 12.962C7.85523 13.4961 8.28971 13.9308 8.82398 13.9308C9.35824 13.9308 9.79273 13.4961 9.79273 12.962C9.79273 12.428 9.35824 11.9933 8.82398 11.9933ZM8.82398 13.4464C8.55694 13.4464 8.3396 13.2293 8.3396 12.962C8.3396 12.6948 8.55694 12.4777 8.82398 12.4777C9.09101 12.4777 9.30835 12.6948 9.30835 12.962C9.30835 13.2293 9.09101 13.4464 8.82398 13.4464ZM19.4807 13.9308C20.015 13.9308 20.4495 13.4961 20.4495 12.962C20.4495 12.428 20.015 11.9933 19.4807 11.9933C18.9464 11.9933 18.512 12.428 18.512 12.962C18.512 13.4961 18.9464 13.9308 19.4807 13.9308ZM19.4807 12.4777C19.7477 12.4777 19.9651 12.6948 19.9651 12.962C19.9651 13.2293 19.7477 13.4464 19.4807 13.4464C19.2137 13.4464 18.9963 13.2293 18.9963 12.962C18.9963 12.6948 19.2137 12.4777 19.4807 12.4777Z" fill="white"/>
</svg>
