<svg width="18" height="18" viewBox="0 0 18 18" fill="none" xmlns="http://www.w3.org/2000/svg">
<path d="M9.00021 0C5.55596 0 2.75391 2.80246 2.75391 6.2468C2.75391 9.56227 8.42128 17.3084 8.6626 17.6364L8.88781 17.9429C8.91415 17.9789 8.95608 18 9.00021 18C9.04501 18 9.08668 17.9789 9.11329 17.9429L9.33837 17.6364C9.57981 17.3084 15.2471 9.56227 15.2471 6.2468C15.2471 2.80246 12.4445 0 9.00021 0ZM9.00021 4.00921C10.2343 4.00921 11.2378 5.01276 11.2378 6.2468C11.2378 7.4802 10.2342 8.4844 9.00021 8.4844C7.76685 8.4844 6.76262 7.4802 6.76262 6.2468C6.76262 5.01276 7.7668 4.00921 9.00021 4.00921Z" fill="white"/>
</svg>
