<svg width="31" height="31" viewBox="0 0 31 31" fill="none" xmlns="http://www.w3.org/2000/svg">
<path d="M28.6941 11.2019C29.1701 12.6044 29.4285 14.1067 29.4285 15.6682C29.4285 20.1049 27.3433 24.0635 24.1015 26.6161L26.606 29.1208L25.2257 30.5011L22.4563 27.7316C20.4082 28.9172 18.032 29.5966 15.5001 29.5966C12.9681 29.5966 10.5921 28.9172 8.54383 27.7316L5.77445 30.5011L4.39412 29.1208L6.89878 26.6161C3.65697 24.0635 1.57177 20.1049 1.57177 15.6682C1.57177 14.1067 1.83011 12.6044 2.30619 11.2019C0.904125 10.1051 0.000259399 8.39942 0.000259399 6.4855C0.000259399 3.18447 2.68583 0.498909 5.98685 0.498909C7.82555 0.498909 9.47255 1.33275 10.5716 2.64137C12.1046 2.05936 13.7658 1.73972 15.5004 1.73972C17.235 1.73972 18.896 2.05936 20.4292 2.64137C21.5277 1.33262 23.1748 0.498779 25.0134 0.498779C28.3144 0.498779 31 3.18434 31 6.48537C31 8.39929 30.0961 10.1051 28.6941 11.2019ZM5.98659 2.45097C3.762 2.45097 1.95219 4.26078 1.95219 6.48537C1.95219 7.58432 2.39443 8.58163 3.10958 9.30993C4.36601 6.87151 6.32158 4.85008 8.70924 3.51114C7.99097 2.85325 7.03491 2.45097 5.98659 2.45097ZM15.5 3.69178C8.89626 3.69178 3.52357 9.06434 3.52357 15.6681C3.52357 22.2718 8.89613 27.6442 15.5 27.6442C22.1037 27.6442 27.4762 22.2717 27.4762 15.6681C27.4763 9.06447 22.1037 3.69178 15.5 3.69178ZM25.0134 2.45097C23.965 2.45097 23.0089 2.85325 22.2908 3.51114C24.6784 4.85021 26.6341 6.87151 27.8904 9.30993C28.6057 8.58163 29.0478 7.58445 29.0478 6.48537C29.0478 4.26078 27.238 2.45097 25.0134 2.45097ZM9.4784 16.6443H16.4762V9.92812H14.524V14.6921H9.4784V16.6443Z" fill="white"/>
</svg>
