<svg width="73" height="37" viewBox="0 0 73 37" fill="none" xmlns="http://www.w3.org/2000/svg">
<path d="M73 0.5C73 5.29325 72.0559 10.0396 70.2216 14.4679C68.3873 18.8963 65.6987 22.9201 62.3094 26.3094C58.9201 29.6987 54.8963 32.3873 50.4679 34.2216C46.0396 36.0559 41.2932 37 36.5 37C31.7068 37 26.9604 36.0559 22.5321 34.2216C18.1037 32.3873 14.0799 29.6987 10.6906 26.3094C7.30126 22.9201 4.61269 18.8963 2.7784 14.4679C0.9441 10.0396 -4.19039e-07 5.29324 0 0.499996H1.66451C1.66451 5.07466 2.56555 9.60453 4.3162 13.831C6.06685 18.0574 8.63281 21.8976 11.8676 25.1324C15.1024 28.3672 18.9426 30.9332 23.169 32.6838C27.3955 34.4344 31.9253 35.3355 36.5 35.3355C41.0747 35.3355 45.6045 34.4344 49.831 32.6838C54.0574 30.9332 57.8976 28.3672 61.1324 25.1324C64.3672 21.8976 66.9332 18.0574 68.6838 13.831C70.4344 9.60453 71.3355 5.07466 71.3355 0.5H73Z" fill="white"/>
</svg>
