<svg width="11" height="11" viewBox="0 0 11 11" fill="none" xmlns="http://www.w3.org/2000/svg">
<path fill-rule="evenodd" clip-rule="evenodd" d="M10.0313 0.968704C8.73973 -0.322901 6.64552 -0.322901 5.35393 0.968704L3.94106 2.38157L4.72053 3.16105L6.13339 1.74819C6.99501 0.886565 8.38969 0.886565 9.25186 1.74819C10.1113 2.60816 10.1113 4.00668 9.25186 4.86665L7.83899 6.27965L8.61845 7.05913L10.0313 5.64613C11.3229 4.35452 11.3229 2.26031 10.0313 0.968704ZM4.86662 9.25148C4.45042 9.66823 3.89641 9.89749 3.30767 9.89749C2.71893 9.89749 2.16491 9.66823 1.74871 9.25148C0.888754 8.39206 0.888754 6.99297 1.74871 6.13356L3.16158 4.72055L2.38156 3.94054L0.968693 5.3534C-0.322898 6.64501 -0.322898 8.73934 0.968693 10.0315C1.61476 10.677 2.46095 11 3.30767 11C4.1544 11 5.00057 10.677 5.64664 10.0315L7.05951 8.61863L6.27949 7.83861L4.86662 9.25148ZM6.74474 3.47593L7.52421 4.25542L4.247 7.53259L3.46753 6.75311L6.74474 3.47593Z" fill="#FF7A00"/>
</svg>
