<svg width="20" height="20" viewBox="0 0 20 20" fill="none" xmlns="http://www.w3.org/2000/svg">
<path d="M19.1282 16.7631C19.7935 17.4283 19.7935 18.463 19.1282 19.1283C18.7956 19.4609 18.3891 19.6087 17.9456 19.6087C17.5021 19.6087 17.0956 19.4609 16.763 19.1283L9.99998 12.3652L3.23693 19.1283C2.90433 19.4609 2.4978 19.6087 2.05432 19.6087C1.61085 19.6087 1.20432 19.4609 0.871716 19.1283C0.206498 18.463 0.206498 17.4283 0.871716 16.7631L7.63476 10L0.871716 3.23696C0.206498 2.57175 0.206498 1.53696 0.871716 0.871746C1.53693 0.206529 2.57172 0.206529 3.23693 0.871746L9.99998 7.63479L16.763 0.871746C17.4282 0.206529 18.463 0.206529 19.1282 0.871746C19.7935 1.53696 19.7935 2.57175 19.1282 3.23696L12.3652 10L19.1282 16.7631Z" fill="black"/>
</svg>
