<svg width="24" height="24" viewBox="0 0 34 34" fill="none" xmlns="http://www.w3.org/2000/svg">
<g clip-path="url(#clip0_75_94)">
<path d="M32.9003 16.4688H18.0625C17.9216 16.4688 17.7865 16.4128 17.6869 16.3132C17.5872 16.2135 17.5313 16.0784 17.5313 15.9375V1.06252C17.5311 0.989514 17.5459 0.917253 17.5749 0.850249C17.6039 0.783245 17.6464 0.722936 17.6998 0.673087C17.7531 0.623237 17.8161 0.584916 17.885 0.560516C17.9538 0.536116 18.0269 0.526161 18.0997 0.531272C22.0903 0.799611 25.8468 2.511 28.6681 5.34596C31.4894 8.18092 33.1825 11.9457 33.4316 15.9375C33.4359 16.0099 33.4254 16.0824 33.4007 16.1506C33.3759 16.2188 33.3375 16.2812 33.2877 16.334C33.2379 16.3867 33.1779 16.4287 33.1113 16.4574C33.0446 16.4861 32.9728 16.5008 32.9003 16.5006V16.4688ZM18.5938 15.4063H32.3213C31.9551 11.8906 30.3912 8.6077 27.8917 6.10828C25.3923 3.60886 22.1095 2.04492 18.5938 1.67877V15.4063Z" fill="black"/>
<path d="M17 33.4687C12.7285 33.4671 8.62486 31.8059 5.55505 28.8358C2.48525 25.8658 0.689491 21.8192 0.546799 17.5501C0.404107 13.2811 1.92565 9.12364 4.79027 5.95521C7.6549 2.78679 11.6385 0.855304 15.9003 0.568423C15.973 0.563735 16.0458 0.57405 16.1144 0.598725C16.1829 0.623401 16.2457 0.66191 16.2987 0.71186C16.3521 0.761394 16.3948 0.821382 16.424 0.888097C16.4533 0.954812 16.4685 1.02683 16.4687 1.09967V17.5312H32.9003C32.9733 17.5311 33.0455 17.5459 33.1125 17.5749C33.1795 17.6039 33.2398 17.6464 33.2897 17.6997C33.3396 17.7531 33.3779 17.8161 33.4023 17.8849C33.4267 17.9537 33.4366 18.0268 33.4315 18.0997C33.1452 22.265 31.2905 26.1669 28.2413 29.019C25.1921 31.871 21.1751 33.4611 17 33.4687ZM15.4062 1.67874C12.5103 1.97942 9.75893 3.09453 7.47083 4.89483C5.18273 6.69513 3.45159 9.10693 2.478 11.8508C1.50442 14.5946 1.32825 17.5581 1.9699 20.398C2.61156 23.2379 4.04477 25.8378 6.10347 27.8965C8.16217 29.9552 10.7621 31.3884 13.6019 32.03C16.4418 32.6717 19.4053 32.4955 22.1492 31.5219C24.893 30.5484 27.3048 28.8172 29.1051 26.5291C30.9054 24.241 32.0205 21.4896 32.3212 18.5937H15.9375C15.7966 18.5937 15.6614 18.5378 15.5618 18.4381C15.4622 18.3385 15.4062 18.2034 15.4062 18.0625V1.67874Z" fill="black"/>
</g>
<defs>
<clipPath id="clip0_75_94">
<rect width="34" height="34" fill="white"/>
</clipPath>
</defs>
</svg>