<svg width="21" height="22" viewBox="0 0 21 22" fill="none" xmlns="http://www.w3.org/2000/svg">
<rect y="0.25" width="21" height="21" rx="10.5" fill="#FF7A00"/>
<path d="M14.7668 13.9186C15.0777 14.2298 15.0777 14.714 14.7668 15.0252C14.6113 15.1808 14.4213 15.25 14.214 15.25C14.0067 15.25 13.8167 15.1808 13.6612 15.0252L10.5 11.861L7.33877 15.0252C7.1833 15.1808 6.99328 15.25 6.78599 15.25C6.57869 15.25 6.38868 15.1808 6.23321 15.0252C5.92226 14.714 5.92226 14.2298 6.23321 13.9186L9.39443 10.7543L6.23321 7.59006C5.92226 7.27882 5.92226 6.79467 6.23321 6.48343C6.54415 6.17219 7.02783 6.17219 7.33877 6.48343L10.5 9.64769L13.6612 6.48343C13.9722 6.17219 14.4559 6.17219 14.7668 6.48343C15.0777 6.79467 15.0777 7.27882 14.7668 7.59006L11.6056 10.7543L14.7668 13.9186Z" fill="white"/>
</svg>
