<svg width="1063" height="68" viewBox="0 0 1063 68" fill="none" xmlns="http://www.w3.org/2000/svg">
<path d="M10 21.0002L10 39.0002" stroke="white" stroke-opacity="0.94" stroke-linecap="round"/>
<path d="M71 21.0002L71 39.0002" stroke="white" stroke-opacity="0.94" stroke-linecap="round"/>
<path d="M132 21.0002L132 39.0002" stroke="white" stroke-opacity="0.94" stroke-linecap="round"/>
<path d="M193 21.0002L193 39.0002" stroke="white" stroke-width="4" stroke-linecap="round"/>
<path d="M254 21.0002L254 39.0002" stroke="white" stroke-opacity="0.94" stroke-linecap="round"/>
<path d="M315 21.0002L315 39.0002" stroke="white" stroke-opacity="0.94" stroke-linecap="round"/>
<path d="M376 21.0002L376 39.0002" stroke="white" stroke-opacity="0.94" stroke-linecap="round"/>
<path d="M437 21.0002L437 39.0002" stroke="white" stroke-opacity="0.94" stroke-linecap="round"/>
<path d="M498 21.0002L498 39.0002" stroke="white" stroke-width="4" stroke-linecap="round"/>
<path d="M559 21.0002L559 39.0002" stroke="white" stroke-opacity="0.94" stroke-linecap="round"/>
<path d="M620 21.0002L620 39.0002" stroke="white" stroke-opacity="0.94" stroke-linecap="round"/>
<path d="M681 21.0002L681 39.0002" stroke="white" stroke-opacity="0.94" stroke-linecap="round"/>
<path d="M742 21.0002L742 39.0002" stroke="white" stroke-opacity="0.94" stroke-linecap="round"/>
<path d="M803 21.0002L803 39.0002" stroke="white" stroke-opacity="0.94" stroke-linecap="round"/>
<path d="M864 21.0002L864 39.0002" stroke="white" stroke-width="4" stroke-linecap="round"/>
<path d="M925 21.0002L925 39.0002" stroke="white" stroke-opacity="0.94" stroke-linecap="round"/>
<path d="M986 21.0002L986 39.0002" stroke="white" stroke-opacity="0.94" stroke-linecap="round"/>
<path d="M1047 21.0002L1047 39.0002" stroke="white" stroke-opacity="0.94" stroke-linecap="round"/>
<path d="M469.863 13.0672L477.32 3.62683L462.48 3.56795L469.863 13.0672Z" fill="white"/>
<path d="M0.802594 56.7302C0.862594 56.3302 0.974594 55.9782 1.13859 55.6742C1.30259 55.3702 1.50859 55.1162 1.75659 54.9122C2.00459 54.7042 2.28859 54.5482 2.60859 54.4442C2.93259 54.3402 3.28059 54.2882 3.65259 54.2882C4.02459 54.2882 4.36659 54.3422 4.67859 54.4502C4.99059 54.5542 5.25659 54.7042 5.47659 54.9002C5.70059 55.0922 5.87459 55.3242 5.99859 55.5962C6.12259 55.8682 6.18459 56.1682 6.18459 56.4962C6.18459 56.7722 6.15059 57.0162 6.08259 57.2282C6.01459 57.4402 5.91659 57.6262 5.78859 57.7862C5.66459 57.9462 5.51259 58.0822 5.33259 58.1942C5.15259 58.3022 4.95059 58.3922 4.72659 58.4642C5.27459 58.6162 5.68659 58.8642 5.96259 59.2082C6.23859 59.5482 6.37659 59.9802 6.37659 60.5042C6.37659 60.9082 6.30059 61.2722 6.14859 61.5962C5.99659 61.9162 5.78859 62.1882 5.52459 62.4122C5.26059 62.6322 4.95259 62.8022 4.60059 62.9222C4.25259 63.0382 3.88059 63.0962 3.48459 63.0962C3.03259 63.0962 2.64459 63.0422 2.32059 62.9342C1.99659 62.8222 1.72059 62.6682 1.49259 62.4722C1.26459 62.2722 1.07459 62.0342 0.922594 61.7582C0.774594 61.4782 0.648594 61.1722 0.544594 60.8402L1.05459 60.6242C1.18659 60.5682 1.31459 60.5522 1.43859 60.5762C1.56259 60.6002 1.65259 60.6702 1.70859 60.7862C1.76859 60.9062 1.83659 61.0422 1.91259 61.1942C1.99259 61.3422 2.09859 61.4842 2.23059 61.6202C2.36259 61.7522 2.52659 61.8642 2.72259 61.9562C2.92259 62.0482 3.17259 62.0942 3.47259 62.0942C3.76059 62.0942 4.01259 62.0482 4.22859 61.9562C4.44459 61.8602 4.62459 61.7382 4.76859 61.5902C4.91259 61.4382 5.02059 61.2702 5.09259 61.0862C5.16459 60.9022 5.20059 60.7202 5.20059 60.5402C5.20059 60.3162 5.17259 60.1102 5.11659 59.9222C5.06059 59.7342 4.95259 59.5742 4.79259 59.4422C4.63659 59.3062 4.41859 59.2002 4.13859 59.1242C3.85859 59.0482 3.49459 59.0102 3.04659 59.0102V58.1582C3.41459 58.1542 3.72459 58.1162 3.97659 58.0442C4.23259 57.9722 4.43859 57.8722 4.59459 57.7442C4.75059 57.6162 4.86259 57.4642 4.93059 57.2882C5.00259 57.1122 5.03859 56.9162 5.03859 56.7002C5.03859 56.4642 5.00259 56.2582 4.93059 56.0822C4.85859 55.9062 4.75659 55.7602 4.62459 55.6442C4.49659 55.5242 4.34259 55.4362 4.16259 55.3802C3.98659 55.3202 3.79459 55.2902 3.58659 55.2902C3.37859 55.2902 3.18659 55.3202 3.01059 55.3802C2.83459 55.4402 2.67859 55.5242 2.54259 55.6322C2.40659 55.7402 2.29259 55.8682 2.20059 56.0162C2.10859 56.1642 2.04259 56.3242 2.00259 56.4962C1.94659 56.6482 1.87459 56.7502 1.78659 56.8022C1.70259 56.8542 1.58059 56.8662 1.42059 56.8382L0.802594 56.7302ZM13.6315 58.6922C13.6315 59.4442 13.5495 60.0962 13.3855 60.6482C13.2255 61.2002 13.0035 61.6582 12.7195 62.0222C12.4395 62.3822 12.1075 62.6502 11.7235 62.8262C11.3435 63.0022 10.9335 63.0902 10.4935 63.0902C10.0535 63.0902 9.64153 63.0022 9.25753 62.8262C8.87753 62.6502 8.54753 62.3822 8.26753 62.0222C7.98753 61.6582 7.76753 61.2002 7.60753 60.6482C7.44753 60.0962 7.36753 59.4442 7.36753 58.6922C7.36753 57.9402 7.44753 57.2882 7.60753 56.7362C7.76753 56.1802 7.98753 55.7222 8.26753 55.3622C8.54753 54.9982 8.87753 54.7282 9.25753 54.5522C9.64153 54.3762 10.0535 54.2882 10.4935 54.2882C10.9335 54.2882 11.3435 54.3762 11.7235 54.5522C12.1075 54.7282 12.4395 54.9982 12.7195 55.3622C13.0035 55.7222 13.2255 56.1802 13.3855 56.7362C13.5495 57.2882 13.6315 57.9402 13.6315 58.6922ZM12.4195 58.6922C12.4195 58.0442 12.3655 57.5022 12.2575 57.0662C12.1535 56.6302 12.0115 56.2802 11.8315 56.0162C11.6555 55.7482 11.4515 55.5582 11.2195 55.4462C10.9875 55.3342 10.7455 55.2782 10.4935 55.2782C10.2415 55.2782 9.99953 55.3342 9.76753 55.4462C9.53553 55.5582 9.32953 55.7482 9.14953 56.0162C8.97353 56.2802 8.83353 56.6302 8.72953 57.0662C8.62553 57.5022 8.57353 58.0442 8.57353 58.6922C8.57353 59.3402 8.62553 59.8822 8.72953 60.3182C8.83353 60.7542 8.97353 61.1042 9.14953 61.3682C9.32953 61.6322 9.53553 61.8202 9.76753 61.9322C9.99953 62.0442 10.2415 62.1002 10.4935 62.1002C10.7455 62.1002 10.9875 62.0442 11.2195 61.9322C11.4515 61.8202 11.6555 61.6322 11.8315 61.3682C12.0115 61.1042 12.1535 60.7542 12.2575 60.3182C12.3655 59.8822 12.4195 59.3402 12.4195 58.6922ZM20.5925 58.6922C20.5925 59.4442 20.5105 60.0962 20.3465 60.6482C20.1865 61.2002 19.9645 61.6582 19.6805 62.0222C19.4005 62.3822 19.0685 62.6502 18.6845 62.8262C18.3045 63.0022 17.8945 63.0902 17.4545 63.0902C17.0145 63.0902 16.6025 63.0022 16.2185 62.8262C15.8385 62.6502 15.5085 62.3822 15.2285 62.0222C14.9485 61.6582 14.7285 61.2002 14.5685 60.6482C14.4085 60.0962 14.3285 59.4442 14.3285 58.6922C14.3285 57.9402 14.4085 57.2882 14.5685 56.7362C14.7285 56.1802 14.9485 55.7222 15.2285 55.3622C15.5085 54.9982 15.8385 54.7282 16.2185 54.5522C16.6025 54.3762 17.0145 54.2882 17.4545 54.2882C17.8945 54.2882 18.3045 54.3762 18.6845 54.5522C19.0685 54.7282 19.4005 54.9982 19.6805 55.3622C19.9645 55.7222 20.1865 56.1802 20.3465 56.7362C20.5105 57.2882 20.5925 57.9402 20.5925 58.6922ZM19.3805 58.6922C19.3805 58.0442 19.3265 57.5022 19.2185 57.0662C19.1145 56.6302 18.9725 56.2802 18.7925 56.0162C18.6165 55.7482 18.4125 55.5582 18.1805 55.4462C17.9485 55.3342 17.7065 55.2782 17.4545 55.2782C17.2025 55.2782 16.9605 55.3342 16.7285 55.4462C16.4965 55.5582 16.2905 55.7482 16.1105 56.0162C15.9345 56.2802 15.7945 56.6302 15.6905 57.0662C15.5865 57.5022 15.5345 58.0442 15.5345 58.6922C15.5345 59.3402 15.5865 59.8822 15.6905 60.3182C15.7945 60.7542 15.9345 61.1042 16.1105 61.3682C16.2905 61.6322 16.4965 61.8202 16.7285 61.9322C16.9605 62.0442 17.2025 62.1002 17.4545 62.1002C17.7065 62.1002 17.9485 62.0442 18.1805 61.9322C18.4125 61.8202 18.6165 61.6322 18.7925 61.3682C18.9725 61.1042 19.1145 60.7542 19.2185 60.3182C19.3265 59.8822 19.3805 59.3402 19.3805 58.6922Z" fill="white"/>
<path d="M62.8026 56.7302C62.8626 56.3302 62.9746 55.9782 63.1386 55.6742C63.3026 55.3702 63.5086 55.1162 63.7566 54.9122C64.0046 54.7042 64.2886 54.5482 64.6086 54.4442C64.9326 54.3402 65.2806 54.2882 65.6526 54.2882C66.0246 54.2882 66.3666 54.3422 66.6786 54.4502C66.9906 54.5542 67.2566 54.7042 67.4766 54.9002C67.7006 55.0922 67.8746 55.3242 67.9986 55.5962C68.1226 55.8682 68.1846 56.1682 68.1846 56.4962C68.1846 56.7722 68.1506 57.0162 68.0826 57.2282C68.0146 57.4402 67.9166 57.6262 67.7886 57.7862C67.6646 57.9462 67.5126 58.0822 67.3326 58.1942C67.1526 58.3022 66.9506 58.3922 66.7266 58.4642C67.2746 58.6162 67.6866 58.8642 67.9626 59.2082C68.2386 59.5482 68.3766 59.9802 68.3766 60.5042C68.3766 60.9082 68.3006 61.2722 68.1486 61.5962C67.9966 61.9162 67.7886 62.1882 67.5246 62.4122C67.2606 62.6322 66.9526 62.8022 66.6006 62.9222C66.2526 63.0382 65.8806 63.0962 65.4846 63.0962C65.0326 63.0962 64.6446 63.0422 64.3206 62.9342C63.9966 62.8222 63.7206 62.6682 63.4926 62.4722C63.2646 62.2722 63.0746 62.0342 62.9226 61.7582C62.7746 61.4782 62.6486 61.1722 62.5446 60.8402L63.0546 60.6242C63.1866 60.5682 63.3146 60.5522 63.4386 60.5762C63.5626 60.6002 63.6526 60.6702 63.7086 60.7862C63.7686 60.9062 63.8366 61.0422 63.9126 61.1942C63.9926 61.3422 64.0986 61.4842 64.2306 61.6202C64.3626 61.7522 64.5266 61.8642 64.7226 61.9562C64.9226 62.0482 65.1726 62.0942 65.4726 62.0942C65.7606 62.0942 66.0126 62.0482 66.2286 61.9562C66.4446 61.8602 66.6246 61.7382 66.7686 61.5902C66.9126 61.4382 67.0206 61.2702 67.0926 61.0862C67.1646 60.9022 67.2006 60.7202 67.2006 60.5402C67.2006 60.3162 67.1726 60.1102 67.1166 59.9222C67.0606 59.7342 66.9526 59.5742 66.7926 59.4422C66.6366 59.3062 66.4186 59.2002 66.1386 59.1242C65.8586 59.0482 65.4946 59.0102 65.0466 59.0102V58.1582C65.4146 58.1542 65.7246 58.1162 65.9766 58.0442C66.2326 57.9722 66.4386 57.8722 66.5946 57.7442C66.7506 57.6162 66.8626 57.4642 66.9306 57.2882C67.0026 57.1122 67.0386 56.9162 67.0386 56.7002C67.0386 56.4642 67.0026 56.2582 66.9306 56.0822C66.8586 55.9062 66.7566 55.7602 66.6246 55.6442C66.4966 55.5242 66.3426 55.4362 66.1626 55.3802C65.9866 55.3202 65.7946 55.2902 65.5866 55.2902C65.3786 55.2902 65.1866 55.3202 65.0106 55.3802C64.8346 55.4402 64.6786 55.5242 64.5426 55.6322C64.4066 55.7402 64.2926 55.8682 64.2006 56.0162C64.1086 56.1642 64.0426 56.3242 64.0026 56.4962C63.9466 56.6482 63.8746 56.7502 63.7866 56.8022C63.7026 56.8542 63.5806 56.8662 63.4206 56.8382L62.8026 56.7302ZM69.7635 56.7302C69.8235 56.3302 69.9355 55.9782 70.0995 55.6742C70.2635 55.3702 70.4695 55.1162 70.7175 54.9122C70.9655 54.7042 71.2495 54.5482 71.5695 54.4442C71.8935 54.3402 72.2415 54.2882 72.6135 54.2882C72.9855 54.2882 73.3275 54.3422 73.6395 54.4502C73.9515 54.5542 74.2175 54.7042 74.4375 54.9002C74.6615 55.0922 74.8355 55.3242 74.9595 55.5962C75.0835 55.8682 75.1455 56.1682 75.1455 56.4962C75.1455 56.7722 75.1115 57.0162 75.0435 57.2282C74.9755 57.4402 74.8775 57.6262 74.7495 57.7862C74.6255 57.9462 74.4735 58.0822 74.2935 58.1942C74.1135 58.3022 73.9115 58.3922 73.6875 58.4642C74.2355 58.6162 74.6475 58.8642 74.9235 59.2082C75.1995 59.5482 75.3375 59.9802 75.3375 60.5042C75.3375 60.9082 75.2615 61.2722 75.1095 61.5962C74.9575 61.9162 74.7495 62.1882 74.4855 62.4122C74.2215 62.6322 73.9135 62.8022 73.5615 62.9222C73.2135 63.0382 72.8415 63.0962 72.4455 63.0962C71.9935 63.0962 71.6055 63.0422 71.2815 62.9342C70.9575 62.8222 70.6815 62.6682 70.4535 62.4722C70.2255 62.2722 70.0355 62.0342 69.8835 61.7582C69.7355 61.4782 69.6095 61.1722 69.5055 60.8402L70.0155 60.6242C70.1475 60.5682 70.2755 60.5522 70.3995 60.5762C70.5235 60.6002 70.6135 60.6702 70.6695 60.7862C70.7295 60.9062 70.7975 61.0422 70.8735 61.1942C70.9535 61.3422 71.0595 61.4842 71.1915 61.6202C71.3235 61.7522 71.4875 61.8642 71.6835 61.9562C71.8835 62.0482 72.1335 62.0942 72.4335 62.0942C72.7215 62.0942 72.9735 62.0482 73.1895 61.9562C73.4055 61.8602 73.5855 61.7382 73.7295 61.5902C73.8735 61.4382 73.9815 61.2702 74.0535 61.0862C74.1255 60.9022 74.1615 60.7202 74.1615 60.5402C74.1615 60.3162 74.1335 60.1102 74.0775 59.9222C74.0215 59.7342 73.9135 59.5742 73.7535 59.4422C73.5975 59.3062 73.3795 59.2002 73.0995 59.1242C72.8195 59.0482 72.4555 59.0102 72.0075 59.0102V58.1582C72.3755 58.1542 72.6855 58.1162 72.9375 58.0442C73.1935 57.9722 73.3995 57.8722 73.5555 57.7442C73.7115 57.6162 73.8235 57.4642 73.8915 57.2882C73.9635 57.1122 73.9995 56.9162 73.9995 56.7002C73.9995 56.4642 73.9635 56.2582 73.8915 56.0822C73.8195 55.9062 73.7175 55.7602 73.5855 55.6442C73.4575 55.5242 73.3035 55.4362 73.1235 55.3802C72.9475 55.3202 72.7555 55.2902 72.5475 55.2902C72.3395 55.2902 72.1475 55.3202 71.9715 55.3802C71.7955 55.4402 71.6395 55.5242 71.5035 55.6322C71.3675 55.7402 71.2535 55.8682 71.1615 56.0162C71.0695 56.1642 71.0035 56.3242 70.9635 56.4962C70.9075 56.6482 70.8355 56.7502 70.7475 56.8022C70.6635 56.8542 70.5415 56.8662 70.3815 56.8382L69.7635 56.7302ZM82.5925 58.6922C82.5925 59.4442 82.5105 60.0962 82.3465 60.6482C82.1865 61.2002 81.9645 61.6582 81.6805 62.0222C81.4005 62.3822 81.0685 62.6502 80.6845 62.8262C80.3045 63.0022 79.8945 63.0902 79.4545 63.0902C79.0145 63.0902 78.6025 63.0022 78.2185 62.8262C77.8385 62.6502 77.5085 62.3822 77.2285 62.0222C76.9485 61.6582 76.7285 61.2002 76.5685 60.6482C76.4085 60.0962 76.3285 59.4442 76.3285 58.6922C76.3285 57.9402 76.4085 57.2882 76.5685 56.7362C76.7285 56.1802 76.9485 55.7222 77.2285 55.3622C77.5085 54.9982 77.8385 54.7282 78.2185 54.5522C78.6025 54.3762 79.0145 54.2882 79.4545 54.2882C79.8945 54.2882 80.3045 54.3762 80.6845 54.5522C81.0685 54.7282 81.4005 54.9982 81.6805 55.3622C81.9645 55.7222 82.1865 56.1802 82.3465 56.7362C82.5105 57.2882 82.5925 57.9402 82.5925 58.6922ZM81.3805 58.6922C81.3805 58.0442 81.3265 57.5022 81.2185 57.0662C81.1145 56.6302 80.9725 56.2802 80.7925 56.0162C80.6165 55.7482 80.4125 55.5582 80.1805 55.4462C79.9485 55.3342 79.7065 55.2782 79.4545 55.2782C79.2025 55.2782 78.9605 55.3342 78.7285 55.4462C78.4965 55.5582 78.2905 55.7482 78.1105 56.0162C77.9345 56.2802 77.7945 56.6302 77.6905 57.0662C77.5865 57.5022 77.5345 58.0442 77.5345 58.6922C77.5345 59.3402 77.5865 59.8822 77.6905 60.3182C77.7945 60.7542 77.9345 61.1042 78.1105 61.3682C78.2905 61.6322 78.4965 61.8202 78.7285 61.9322C78.9605 62.0442 79.2025 62.1002 79.4545 62.1002C79.7065 62.1002 79.9485 62.0442 80.1805 61.9322C80.4125 61.8202 80.6165 61.6322 80.7925 61.3682C80.9725 61.1042 81.1145 60.7542 81.2185 60.3182C81.3265 59.8822 81.3805 59.3402 81.3805 58.6922Z" fill="white"/>
<path d="M124.803 56.7302C124.863 56.3302 124.975 55.9782 125.139 55.6742C125.303 55.3702 125.509 55.1162 125.757 54.9122C126.005 54.7042 126.289 54.5482 126.609 54.4442C126.933 54.3402 127.281 54.2882 127.653 54.2882C128.025 54.2882 128.367 54.3422 128.679 54.4502C128.991 54.5542 129.257 54.7042 129.477 54.9002C129.701 55.0922 129.875 55.3242 129.999 55.5962C130.123 55.8682 130.185 56.1682 130.185 56.4962C130.185 56.7722 130.151 57.0162 130.083 57.2282C130.015 57.4402 129.917 57.6262 129.789 57.7862C129.665 57.9462 129.513 58.0822 129.333 58.1942C129.153 58.3022 128.951 58.3922 128.727 58.4642C129.275 58.6162 129.687 58.8642 129.963 59.2082C130.239 59.5482 130.377 59.9802 130.377 60.5042C130.377 60.9082 130.301 61.2722 130.149 61.5962C129.997 61.9162 129.789 62.1882 129.525 62.4122C129.261 62.6322 128.953 62.8022 128.601 62.9222C128.253 63.0382 127.881 63.0962 127.485 63.0962C127.033 63.0962 126.645 63.0422 126.321 62.9342C125.997 62.8222 125.721 62.6682 125.493 62.4722C125.265 62.2722 125.075 62.0342 124.923 61.7582C124.775 61.4782 124.649 61.1722 124.545 60.8402L125.055 60.6242C125.187 60.5682 125.315 60.5522 125.439 60.5762C125.563 60.6002 125.653 60.6702 125.709 60.7862C125.769 60.9062 125.837 61.0422 125.913 61.1942C125.993 61.3422 126.099 61.4842 126.231 61.6202C126.363 61.7522 126.527 61.8642 126.723 61.9562C126.923 62.0482 127.173 62.0942 127.473 62.0942C127.761 62.0942 128.013 62.0482 128.229 61.9562C128.445 61.8602 128.625 61.7382 128.769 61.5902C128.913 61.4382 129.021 61.2702 129.093 61.0862C129.165 60.9022 129.201 60.7202 129.201 60.5402C129.201 60.3162 129.173 60.1102 129.117 59.9222C129.061 59.7342 128.953 59.5742 128.793 59.4422C128.637 59.3062 128.419 59.2002 128.139 59.1242C127.859 59.0482 127.495 59.0102 127.047 59.0102V58.1582C127.415 58.1542 127.725 58.1162 127.977 58.0442C128.233 57.9722 128.439 57.8722 128.595 57.7442C128.751 57.6162 128.863 57.4642 128.931 57.2882C129.003 57.1122 129.039 56.9162 129.039 56.7002C129.039 56.4642 129.003 56.2582 128.931 56.0822C128.859 55.9062 128.757 55.7602 128.625 55.6442C128.497 55.5242 128.343 55.4362 128.163 55.3802C127.987 55.3202 127.795 55.2902 127.587 55.2902C127.379 55.2902 127.187 55.3202 127.011 55.3802C126.835 55.4402 126.679 55.5242 126.543 55.6322C126.407 55.7402 126.293 55.8682 126.201 56.0162C126.109 56.1642 126.043 56.3242 126.003 56.4962C125.947 56.6482 125.875 56.7502 125.787 56.8022C125.703 56.8542 125.581 56.8662 125.421 56.8382L124.803 56.7302ZM135.376 59.8562V56.4962C135.376 56.3802 135.378 56.2582 135.382 56.1302C135.39 55.9982 135.404 55.8622 135.424 55.7222L132.406 59.8562H135.376ZM137.65 59.8562V60.5342C137.65 60.6022 137.628 60.6602 137.584 60.7082C137.54 60.7562 137.478 60.7802 137.398 60.7802H136.402V63.0002H135.376V60.7802H131.596C131.508 60.7802 131.434 60.7562 131.374 60.7082C131.314 60.6562 131.274 60.5922 131.254 60.5162L131.134 59.9162L135.298 54.3782H136.402V59.8562H137.65ZM140.218 57.6002C140.658 57.5082 141.056 57.4622 141.412 57.4622C141.86 57.4622 142.256 57.5302 142.6 57.6662C142.944 57.7982 143.232 57.9822 143.464 58.2182C143.7 58.4502 143.876 58.7262 143.992 59.0462C144.112 59.3622 144.172 59.7062 144.172 60.0782C144.172 60.5342 144.092 60.9482 143.932 61.3202C143.772 61.6922 143.552 62.0102 143.272 62.2742C142.992 62.5382 142.66 62.7422 142.276 62.8862C141.896 63.0262 141.486 63.0962 141.046 63.0962C140.786 63.0962 140.538 63.0702 140.302 63.0182C140.07 62.9662 139.852 62.8982 139.648 62.8142C139.444 62.7262 139.254 62.6262 139.078 62.5142C138.906 62.4022 138.752 62.2842 138.616 62.1602L138.976 61.6562C139.052 61.5442 139.154 61.4882 139.282 61.4882C139.366 61.4882 139.458 61.5202 139.558 61.5842C139.662 61.6442 139.784 61.7122 139.924 61.7882C140.064 61.8642 140.23 61.9342 140.422 61.9982C140.614 62.0582 140.842 62.0882 141.106 62.0882C141.398 62.0882 141.66 62.0422 141.892 61.9502C142.128 61.8542 142.326 61.7202 142.486 61.5482C142.65 61.3762 142.774 61.1702 142.858 60.9302C142.946 60.6902 142.99 60.4242 142.99 60.1322C142.99 59.8722 142.952 59.6382 142.876 59.4302C142.8 59.2222 142.686 59.0442 142.534 58.8962C142.382 58.7482 142.192 58.6362 141.964 58.5602C141.736 58.4802 141.47 58.4402 141.166 58.4402C140.742 58.4402 140.29 58.5162 139.81 58.6682L139.072 58.4522L139.774 54.3842H143.902V54.8942C143.902 55.0622 143.848 55.2002 143.74 55.3082C143.636 55.4122 143.46 55.4642 143.212 55.4642H140.59L140.218 57.6002Z" fill="white"/>
<path d="M272.171 62.1062V63.0002H267.515V62.1062H269.339V56.4602C269.339 56.2802 269.345 56.0942 269.357 55.9022L267.893 57.1442C267.837 57.1882 267.781 57.2162 267.725 57.2282C267.669 57.2402 267.615 57.2422 267.563 57.2342C267.515 57.2262 267.471 57.2102 267.431 57.1862C267.395 57.1582 267.365 57.1302 267.341 57.1022L266.975 56.5922L269.555 54.3662H270.509V62.1062H272.171ZM275.238 57.6002C275.678 57.5082 276.076 57.4622 276.432 57.4622C276.88 57.4622 277.276 57.5302 277.62 57.6662C277.964 57.7982 278.252 57.9822 278.484 58.2182C278.72 58.4502 278.896 58.7262 279.012 59.0462C279.132 59.3622 279.192 59.7062 279.192 60.0782C279.192 60.5342 279.112 60.9482 278.952 61.3202C278.792 61.6922 278.572 62.0102 278.292 62.2742C278.012 62.5382 277.68 62.7422 277.296 62.8862C276.916 63.0262 276.506 63.0962 276.066 63.0962C275.806 63.0962 275.558 63.0702 275.322 63.0182C275.09 62.9662 274.872 62.8982 274.668 62.8142C274.464 62.7262 274.274 62.6262 274.098 62.5142C273.926 62.4022 273.772 62.2842 273.636 62.1602L273.996 61.6562C274.072 61.5442 274.174 61.4882 274.302 61.4882C274.386 61.4882 274.478 61.5202 274.578 61.5842C274.682 61.6442 274.804 61.7122 274.944 61.7882C275.084 61.8642 275.25 61.9342 275.442 61.9982C275.634 62.0582 275.862 62.0882 276.126 62.0882C276.418 62.0882 276.68 62.0422 276.912 61.9502C277.148 61.8542 277.346 61.7202 277.506 61.5482C277.67 61.3762 277.794 61.1702 277.878 60.9302C277.966 60.6902 278.01 60.4242 278.01 60.1322C278.01 59.8722 277.972 59.6382 277.896 59.4302C277.82 59.2222 277.706 59.0442 277.554 58.8962C277.402 58.7482 277.212 58.6362 276.984 58.5602C276.756 58.4802 276.49 58.4402 276.186 58.4402C275.762 58.4402 275.31 58.5162 274.83 58.6682L274.092 58.4522L274.794 54.3842H278.922V54.8942C278.922 55.0622 278.868 55.2002 278.76 55.3082C278.656 55.4122 278.48 55.4642 278.232 55.4642H275.61L275.238 57.6002Z" fill="white"/>
<path d="M321.783 56.7302C321.843 56.3302 321.955 55.9782 322.119 55.6742C322.283 55.3702 322.489 55.1162 322.737 54.9122C322.985 54.7042 323.269 54.5482 323.589 54.4442C323.913 54.3402 324.261 54.2882 324.633 54.2882C325.005 54.2882 325.347 54.3422 325.659 54.4502C325.971 54.5542 326.237 54.7042 326.457 54.9002C326.681 55.0922 326.855 55.3242 326.979 55.5962C327.103 55.8682 327.165 56.1682 327.165 56.4962C327.165 56.7722 327.131 57.0162 327.063 57.2282C326.995 57.4402 326.897 57.6262 326.769 57.7862C326.645 57.9462 326.493 58.0822 326.313 58.1942C326.133 58.3022 325.931 58.3922 325.707 58.4642C326.255 58.6162 326.667 58.8642 326.943 59.2082C327.219 59.5482 327.357 59.9802 327.357 60.5042C327.357 60.9082 327.281 61.2722 327.129 61.5962C326.977 61.9162 326.769 62.1882 326.505 62.4122C326.241 62.6322 325.933 62.8022 325.581 62.9222C325.233 63.0382 324.861 63.0962 324.465 63.0962C324.013 63.0962 323.625 63.0422 323.301 62.9342C322.977 62.8222 322.701 62.6682 322.473 62.4722C322.245 62.2722 322.055 62.0342 321.903 61.7582C321.755 61.4782 321.629 61.1722 321.525 60.8402L322.035 60.6242C322.167 60.5682 322.295 60.5522 322.419 60.5762C322.543 60.6002 322.633 60.6702 322.689 60.7862C322.749 60.9062 322.817 61.0422 322.893 61.1942C322.973 61.3422 323.079 61.4842 323.211 61.6202C323.343 61.7522 323.507 61.8642 323.703 61.9562C323.903 62.0482 324.153 62.0942 324.453 62.0942C324.741 62.0942 324.993 62.0482 325.209 61.9562C325.425 61.8602 325.605 61.7382 325.749 61.5902C325.893 61.4382 326.001 61.2702 326.073 61.0862C326.145 60.9022 326.181 60.7202 326.181 60.5402C326.181 60.3162 326.153 60.1102 326.097 59.9222C326.041 59.7342 325.933 59.5742 325.773 59.4422C325.617 59.3062 325.399 59.2002 325.119 59.1242C324.839 59.0482 324.475 59.0102 324.027 59.0102V58.1582C324.395 58.1542 324.705 58.1162 324.957 58.0442C325.213 57.9722 325.419 57.8722 325.575 57.7442C325.731 57.6162 325.843 57.4642 325.911 57.2882C325.983 57.1122 326.019 56.9162 326.019 56.7002C326.019 56.4642 325.983 56.2582 325.911 56.0822C325.839 55.9062 325.737 55.7602 325.605 55.6442C325.477 55.5242 325.323 55.4362 325.143 55.3802C324.967 55.3202 324.775 55.2902 324.567 55.2902C324.359 55.2902 324.167 55.3202 323.991 55.3802C323.815 55.4402 323.659 55.5242 323.523 55.6322C323.387 55.7402 323.273 55.8682 323.181 56.0162C323.089 56.1642 323.023 56.3242 322.983 56.4962C322.927 56.6482 322.855 56.7502 322.767 56.8022C322.683 56.8542 322.561 56.8662 322.401 56.8382L321.783 56.7302ZM334.612 58.6922C334.612 59.4442 334.53 60.0962 334.366 60.6482C334.206 61.2002 333.984 61.6582 333.7 62.0222C333.42 62.3822 333.088 62.6502 332.704 62.8262C332.324 63.0022 331.914 63.0902 331.474 63.0902C331.034 63.0902 330.622 63.0022 330.238 62.8262C329.858 62.6502 329.528 62.3822 329.248 62.0222C328.968 61.6582 328.748 61.2002 328.588 60.6482C328.428 60.0962 328.348 59.4442 328.348 58.6922C328.348 57.9402 328.428 57.2882 328.588 56.7362C328.748 56.1802 328.968 55.7222 329.248 55.3622C329.528 54.9982 329.858 54.7282 330.238 54.5522C330.622 54.3762 331.034 54.2882 331.474 54.2882C331.914 54.2882 332.324 54.3762 332.704 54.5522C333.088 54.7282 333.42 54.9982 333.7 55.3622C333.984 55.7222 334.206 56.1802 334.366 56.7362C334.53 57.2882 334.612 57.9402 334.612 58.6922ZM333.4 58.6922C333.4 58.0442 333.346 57.5022 333.238 57.0662C333.134 56.6302 332.992 56.2802 332.812 56.0162C332.636 55.7482 332.432 55.5582 332.2 55.4462C331.968 55.3342 331.726 55.2782 331.474 55.2782C331.222 55.2782 330.98 55.3342 330.748 55.4462C330.516 55.5582 330.31 55.7482 330.13 56.0162C329.954 56.2802 329.814 56.6302 329.71 57.0662C329.606 57.5022 329.554 58.0442 329.554 58.6922C329.554 59.3402 329.606 59.8822 329.71 60.3182C329.814 60.7542 329.954 61.1042 330.13 61.3682C330.31 61.6322 330.516 61.8202 330.748 61.9322C330.98 62.0442 331.222 62.1002 331.474 62.1002C331.726 62.1002 331.968 62.0442 332.2 61.9322C332.432 61.8202 332.636 61.6322 332.812 61.3682C332.992 61.1042 333.134 60.7542 333.238 60.3182C333.346 59.8822 333.4 59.3402 333.4 58.6922Z" fill="white"/>
<path d="M380.395 59.8562V56.4962C380.395 56.3802 380.397 56.2582 380.401 56.1302C380.409 55.9982 380.423 55.8622 380.443 55.7222L377.425 59.8562H380.395ZM382.669 59.8562V60.5342C382.669 60.6022 382.647 60.6602 382.603 60.7082C382.559 60.7562 382.497 60.7802 382.417 60.7802H381.421V63.0002H380.395V60.7802H376.615C376.527 60.7802 376.453 60.7562 376.393 60.7082C376.333 60.6562 376.293 60.5922 376.273 60.5162L376.153 59.9162L380.317 54.3782H381.421V59.8562H382.669ZM385.238 57.6002C385.678 57.5082 386.076 57.4622 386.432 57.4622C386.88 57.4622 387.276 57.5302 387.62 57.6662C387.964 57.7982 388.252 57.9822 388.484 58.2182C388.72 58.4502 388.896 58.7262 389.012 59.0462C389.132 59.3622 389.192 59.7062 389.192 60.0782C389.192 60.5342 389.112 60.9482 388.952 61.3202C388.792 61.6922 388.572 62.0102 388.292 62.2742C388.012 62.5382 387.68 62.7422 387.296 62.8862C386.916 63.0262 386.506 63.0962 386.066 63.0962C385.806 63.0962 385.558 63.0702 385.322 63.0182C385.09 62.9662 384.872 62.8982 384.668 62.8142C384.464 62.7262 384.274 62.6262 384.098 62.5142C383.926 62.4022 383.772 62.2842 383.636 62.1602L383.996 61.6562C384.072 61.5442 384.174 61.4882 384.302 61.4882C384.386 61.4882 384.478 61.5202 384.578 61.5842C384.682 61.6442 384.804 61.7122 384.944 61.7882C385.084 61.8642 385.25 61.9342 385.442 61.9982C385.634 62.0582 385.862 62.0882 386.126 62.0882C386.418 62.0882 386.68 62.0422 386.912 61.9502C387.148 61.8542 387.346 61.7202 387.506 61.5482C387.67 61.3762 387.794 61.1702 387.878 60.9302C387.966 60.6902 388.01 60.4242 388.01 60.1322C388.01 59.8722 387.972 59.6382 387.896 59.4302C387.82 59.2222 387.706 59.0442 387.554 58.8962C387.402 58.7482 387.212 58.6362 386.984 58.5602C386.756 58.4802 386.49 58.4402 386.186 58.4402C385.762 58.4402 385.31 58.5162 384.83 58.6682L384.092 58.4522L384.794 54.3842H388.922V54.8942C388.922 55.0622 388.868 55.2002 388.76 55.3082C388.656 55.4122 388.48 55.4642 388.232 55.4642H385.61L385.238 57.6002Z" fill="white"/>
<path d="M433.277 57.6002C433.717 57.5082 434.115 57.4622 434.471 57.4622C434.919 57.4622 435.315 57.5302 435.659 57.6662C436.003 57.7982 436.291 57.9822 436.523 58.2182C436.759 58.4502 436.935 58.7262 437.051 59.0462C437.171 59.3622 437.231 59.7062 437.231 60.0782C437.231 60.5342 437.151 60.9482 436.991 61.3202C436.831 61.6922 436.611 62.0102 436.331 62.2742C436.051 62.5382 435.719 62.7422 435.335 62.8862C434.955 63.0262 434.545 63.0962 434.105 63.0962C433.845 63.0962 433.597 63.0702 433.361 63.0182C433.129 62.9662 432.911 62.8982 432.707 62.8142C432.503 62.7262 432.313 62.6262 432.137 62.5142C431.965 62.4022 431.811 62.2842 431.675 62.1602L432.035 61.6562C432.111 61.5442 432.213 61.4882 432.341 61.4882C432.425 61.4882 432.517 61.5202 432.617 61.5842C432.721 61.6442 432.843 61.7122 432.983 61.7882C433.123 61.8642 433.289 61.9342 433.481 61.9982C433.673 62.0582 433.901 62.0882 434.165 62.0882C434.457 62.0882 434.719 62.0422 434.951 61.9502C435.187 61.8542 435.385 61.7202 435.545 61.5482C435.709 61.3762 435.833 61.1702 435.917 60.9302C436.005 60.6902 436.049 60.4242 436.049 60.1322C436.049 59.8722 436.011 59.6382 435.935 59.4302C435.859 59.2222 435.745 59.0442 435.593 58.8962C435.441 58.7482 435.251 58.6362 435.023 58.5602C434.795 58.4802 434.529 58.4402 434.225 58.4402C433.801 58.4402 433.349 58.5162 432.869 58.6682L432.131 58.4522L432.833 54.3842H436.961V54.8942C436.961 55.0622 436.907 55.2002 436.799 55.3082C436.695 55.4122 436.519 55.4642 436.271 55.4642H433.649L433.277 57.6002ZM440.238 57.6002C440.678 57.5082 441.076 57.4622 441.432 57.4622C441.88 57.4622 442.276 57.5302 442.62 57.6662C442.964 57.7982 443.252 57.9822 443.484 58.2182C443.72 58.4502 443.896 58.7262 444.012 59.0462C444.132 59.3622 444.192 59.7062 444.192 60.0782C444.192 60.5342 444.112 60.9482 443.952 61.3202C443.792 61.6922 443.572 62.0102 443.292 62.2742C443.012 62.5382 442.68 62.7422 442.296 62.8862C441.916 63.0262 441.506 63.0962 441.066 63.0962C440.806 63.0962 440.558 63.0702 440.322 63.0182C440.09 62.9662 439.872 62.8982 439.668 62.8142C439.464 62.7262 439.274 62.6262 439.098 62.5142C438.926 62.4022 438.772 62.2842 438.636 62.1602L438.996 61.6562C439.072 61.5442 439.174 61.4882 439.302 61.4882C439.386 61.4882 439.478 61.5202 439.578 61.5842C439.682 61.6442 439.804 61.7122 439.944 61.7882C440.084 61.8642 440.25 61.9342 440.442 61.9982C440.634 62.0582 440.862 62.0882 441.126 62.0882C441.418 62.0882 441.68 62.0422 441.912 61.9502C442.148 61.8542 442.346 61.7202 442.506 61.5482C442.67 61.3762 442.794 61.1702 442.878 60.9302C442.966 60.6902 443.01 60.4242 443.01 60.1322C443.01 59.8722 442.972 59.6382 442.896 59.4302C442.82 59.2222 442.706 59.0442 442.554 58.8962C442.402 58.7482 442.212 58.6362 441.984 58.5602C441.756 58.4802 441.49 58.4402 441.186 58.4402C440.762 58.4402 440.31 58.5162 439.83 58.6682L439.092 58.4522L439.794 54.3842H443.922V54.8942C443.922 55.0622 443.868 55.2002 443.76 55.3082C443.656 55.4122 443.48 55.4642 443.232 55.4642H440.61L440.238 57.6002Z" fill="white"/>
<path d="M550.191 62.1062V63.0002H545.535V62.1062H547.359V56.4602C547.359 56.2802 547.365 56.0942 547.377 55.9022L545.913 57.1442C545.857 57.1882 545.801 57.2162 545.745 57.2282C545.689 57.2402 545.635 57.2422 545.583 57.2342C545.535 57.2262 545.491 57.2102 545.451 57.1862C545.415 57.1582 545.385 57.1302 545.361 57.1022L544.995 56.5922L547.575 54.3662H548.529V62.1062H550.191ZM557.152 62.1062V63.0002H552.496V62.1062H554.32V56.4602C554.32 56.2802 554.326 56.0942 554.338 55.9022L552.874 57.1442C552.818 57.1882 552.762 57.2162 552.706 57.2282C552.65 57.2402 552.596 57.2422 552.544 57.2342C552.496 57.2262 552.452 57.2102 552.412 57.1862C552.376 57.1582 552.346 57.1302 552.322 57.1022L551.956 56.5922L554.536 54.3662H555.49V62.1062H557.152ZM564.592 58.6922C564.592 59.4442 564.51 60.0962 564.346 60.6482C564.186 61.2002 563.964 61.6582 563.68 62.0222C563.4 62.3822 563.068 62.6502 562.684 62.8262C562.304 63.0022 561.894 63.0902 561.454 63.0902C561.014 63.0902 560.602 63.0022 560.218 62.8262C559.838 62.6502 559.508 62.3822 559.228 62.0222C558.948 61.6582 558.728 61.2002 558.568 60.6482C558.408 60.0962 558.328 59.4442 558.328 58.6922C558.328 57.9402 558.408 57.2882 558.568 56.7362C558.728 56.1802 558.948 55.7222 559.228 55.3622C559.508 54.9982 559.838 54.7282 560.218 54.5522C560.602 54.3762 561.014 54.2882 561.454 54.2882C561.894 54.2882 562.304 54.3762 562.684 54.5522C563.068 54.7282 563.4 54.9982 563.68 55.3622C563.964 55.7222 564.186 56.1802 564.346 56.7362C564.51 57.2882 564.592 57.9402 564.592 58.6922ZM563.38 58.6922C563.38 58.0442 563.326 57.5022 563.218 57.0662C563.114 56.6302 562.972 56.2802 562.792 56.0162C562.616 55.7482 562.412 55.5582 562.18 55.4462C561.948 55.3342 561.706 55.2782 561.454 55.2782C561.202 55.2782 560.96 55.3342 560.728 55.4462C560.496 55.5582 560.29 55.7482 560.11 56.0162C559.934 56.2802 559.794 56.6302 559.69 57.0662C559.586 57.5022 559.534 58.0442 559.534 58.6922C559.534 59.3402 559.586 59.8822 559.69 60.3182C559.794 60.7542 559.934 61.1042 560.11 61.3682C560.29 61.6322 560.496 61.8202 560.728 61.9322C560.96 62.0442 561.202 62.1002 561.454 62.1002C561.706 62.1002 561.948 62.0442 562.18 61.9322C562.412 61.8202 562.616 61.6322 562.792 61.3682C562.972 61.1042 563.114 60.7542 563.218 60.3182C563.326 59.8822 563.38 59.3402 563.38 58.6922Z" fill="white"/>
<path d="M612.191 62.1062V63.0002H607.535V62.1062H609.359V56.4602C609.359 56.2802 609.365 56.0942 609.377 55.9022L607.913 57.1442C607.857 57.1882 607.801 57.2162 607.745 57.2282C607.689 57.2402 607.635 57.2422 607.583 57.2342C607.535 57.2262 607.491 57.2102 607.451 57.1862C607.415 57.1582 607.385 57.1302 607.361 57.1022L606.995 56.5922L609.575 54.3662H610.529V62.1062H612.191ZM618.936 61.8902C619.064 61.8902 619.164 61.9282 619.236 62.0042C619.308 62.0762 619.344 62.1722 619.344 62.2922V63.0002H613.56V62.5982C613.56 62.5182 613.576 62.4342 613.608 62.3462C613.64 62.2542 613.694 62.1722 613.77 62.1002L616.494 59.3702C616.722 59.1422 616.928 58.9222 617.112 58.7102C617.296 58.4982 617.452 58.2882 617.58 58.0802C617.708 57.8682 617.806 57.6522 617.874 57.4322C617.946 57.2122 617.982 56.9802 617.982 56.7362C617.982 56.4962 617.944 56.2862 617.868 56.1062C617.792 55.9222 617.688 55.7702 617.556 55.6502C617.424 55.5302 617.268 55.4402 617.088 55.3802C616.908 55.3202 616.714 55.2902 616.506 55.2902C616.298 55.2902 616.106 55.3202 615.93 55.3802C615.758 55.4402 615.604 55.5242 615.468 55.6322C615.332 55.7402 615.218 55.8682 615.126 56.0162C615.034 56.1642 614.968 56.3242 614.928 56.4962C614.872 56.6482 614.8 56.7502 614.712 56.8022C614.628 56.8542 614.504 56.8662 614.34 56.8382L613.728 56.7302C613.784 56.3302 613.894 55.9782 614.058 55.6742C614.222 55.3702 614.428 55.1162 614.676 54.9122C614.924 54.7042 615.208 54.5482 615.528 54.4442C615.852 54.3402 616.2 54.2882 616.572 54.2882C616.948 54.2882 617.294 54.3442 617.61 54.4562C617.93 54.5642 618.206 54.7222 618.438 54.9302C618.67 55.1382 618.852 55.3922 618.984 55.6922C619.116 55.9882 619.182 56.3242 619.182 56.7002C619.182 57.0202 619.134 57.3182 619.038 57.5942C618.946 57.8662 618.818 58.1262 618.654 58.3742C618.494 58.6222 618.306 58.8642 618.09 59.1002C617.878 59.3322 617.652 59.5682 617.412 59.8082L615.228 62.0402C615.396 61.9962 615.564 61.9602 615.732 61.9322C615.904 61.9042 616.066 61.8902 616.218 61.8902H618.936ZM622.218 57.6002C622.658 57.5082 623.056 57.4622 623.412 57.4622C623.86 57.4622 624.256 57.5302 624.6 57.6662C624.944 57.7982 625.232 57.9822 625.464 58.2182C625.7 58.4502 625.876 58.7262 625.992 59.0462C626.112 59.3622 626.172 59.7062 626.172 60.0782C626.172 60.5342 626.092 60.9482 625.932 61.3202C625.772 61.6922 625.552 62.0102 625.272 62.2742C624.992 62.5382 624.66 62.7422 624.276 62.8862C623.896 63.0262 623.486 63.0962 623.046 63.0962C622.786 63.0962 622.538 63.0702 622.302 63.0182C622.07 62.9662 621.852 62.8982 621.648 62.8142C621.444 62.7262 621.254 62.6262 621.078 62.5142C620.906 62.4022 620.752 62.2842 620.616 62.1602L620.976 61.6562C621.052 61.5442 621.154 61.4882 621.282 61.4882C621.366 61.4882 621.458 61.5202 621.558 61.5842C621.662 61.6442 621.784 61.7122 621.924 61.7882C622.064 61.8642 622.23 61.9342 622.422 61.9982C622.614 62.0582 622.842 62.0882 623.106 62.0882C623.398 62.0882 623.66 62.0422 623.892 61.9502C624.128 61.8542 624.326 61.7202 624.486 61.5482C624.65 61.3762 624.774 61.1702 624.858 60.9302C624.946 60.6902 624.99 60.4242 624.99 60.1322C624.99 59.8722 624.952 59.6382 624.876 59.4302C624.8 59.2222 624.686 59.0442 624.534 58.8962C624.382 58.7482 624.192 58.6362 623.964 58.5602C623.736 58.4802 623.47 58.4402 623.166 58.4402C622.742 58.4402 622.29 58.5162 621.81 58.6682L621.072 58.4522L621.774 54.3842H625.902V54.8942C625.902 55.0622 625.848 55.2002 625.74 55.3082C625.636 55.4122 625.46 55.4642 625.212 55.4642H622.59L622.218 57.6002Z" fill="white"/>
<path d="M674.191 62.1062V63.0002H669.535V62.1062H671.359V56.4602C671.359 56.2802 671.365 56.0942 671.377 55.9022L669.913 57.1442C669.857 57.1882 669.801 57.2162 669.745 57.2282C669.689 57.2402 669.635 57.2422 669.583 57.2342C669.535 57.2262 669.491 57.2102 669.451 57.1862C669.415 57.1582 669.385 57.1302 669.361 57.1022L668.995 56.5922L671.575 54.3662H672.529V62.1062H674.191ZM679.376 59.8562V56.4962C679.376 56.3802 679.378 56.2582 679.382 56.1302C679.39 55.9982 679.404 55.8622 679.424 55.7222L676.406 59.8562H679.376ZM681.65 59.8562V60.5342C681.65 60.6022 681.628 60.6602 681.584 60.7082C681.54 60.7562 681.478 60.7802 681.398 60.7802H680.402V63.0002H679.376V60.7802H675.596C675.508 60.7802 675.434 60.7562 675.374 60.7082C675.314 60.6562 675.274 60.5922 675.254 60.5162L675.134 59.9162L679.298 54.3782H680.402V59.8562H681.65ZM684.218 57.6002C684.658 57.5082 685.056 57.4622 685.412 57.4622C685.86 57.4622 686.256 57.5302 686.6 57.6662C686.944 57.7982 687.232 57.9822 687.464 58.2182C687.7 58.4502 687.876 58.7262 687.992 59.0462C688.112 59.3622 688.172 59.7062 688.172 60.0782C688.172 60.5342 688.092 60.9482 687.932 61.3202C687.772 61.6922 687.552 62.0102 687.272 62.2742C686.992 62.5382 686.66 62.7422 686.276 62.8862C685.896 63.0262 685.486 63.0962 685.046 63.0962C684.786 63.0962 684.538 63.0702 684.302 63.0182C684.07 62.9662 683.852 62.8982 683.648 62.8142C683.444 62.7262 683.254 62.6262 683.078 62.5142C682.906 62.4022 682.752 62.2842 682.616 62.1602L682.976 61.6562C683.052 61.5442 683.154 61.4882 683.282 61.4882C683.366 61.4882 683.458 61.5202 683.558 61.5842C683.662 61.6442 683.784 61.7122 683.924 61.7882C684.064 61.8642 684.23 61.9342 684.422 61.9982C684.614 62.0582 684.842 62.0882 685.106 62.0882C685.398 62.0882 685.66 62.0422 685.892 61.9502C686.128 61.8542 686.326 61.7202 686.486 61.5482C686.65 61.3762 686.774 61.1702 686.858 60.9302C686.946 60.6902 686.99 60.4242 686.99 60.1322C686.99 59.8722 686.952 59.6382 686.876 59.4302C686.8 59.2222 686.686 59.0442 686.534 58.8962C686.382 58.7482 686.192 58.6362 685.964 58.5602C685.736 58.4802 685.47 58.4402 685.166 58.4402C684.742 58.4402 684.29 58.5162 683.81 58.6682L683.072 58.4522L683.774 54.3842H687.902V54.8942C687.902 55.0622 687.848 55.2002 687.74 55.3082C687.636 55.4122 687.46 55.4642 687.212 55.4642H684.59L684.218 57.6002Z" fill="white"/>
<path d="M736.191 62.1062V63.0002H731.535V62.1062H733.359V56.4602C733.359 56.2802 733.365 56.0942 733.377 55.9022L731.913 57.1442C731.857 57.1882 731.801 57.2162 731.745 57.2282C731.689 57.2402 731.635 57.2422 731.583 57.2342C731.535 57.2262 731.491 57.2102 731.451 57.1862C731.415 57.1582 731.385 57.1302 731.361 57.1022L730.995 56.5922L733.575 54.3662H734.529V62.1062H736.191ZM739.258 57.6002C739.698 57.5082 740.096 57.4622 740.452 57.4622C740.9 57.4622 741.296 57.5302 741.64 57.6662C741.984 57.7982 742.272 57.9822 742.504 58.2182C742.74 58.4502 742.916 58.7262 743.032 59.0462C743.152 59.3622 743.212 59.7062 743.212 60.0782C743.212 60.5342 743.132 60.9482 742.972 61.3202C742.812 61.6922 742.592 62.0102 742.312 62.2742C742.032 62.5382 741.7 62.7422 741.316 62.8862C740.936 63.0262 740.526 63.0962 740.086 63.0962C739.826 63.0962 739.578 63.0702 739.342 63.0182C739.11 62.9662 738.892 62.8982 738.688 62.8142C738.484 62.7262 738.294 62.6262 738.118 62.5142C737.946 62.4022 737.792 62.2842 737.656 62.1602L738.016 61.6562C738.092 61.5442 738.194 61.4882 738.322 61.4882C738.406 61.4882 738.498 61.5202 738.598 61.5842C738.702 61.6442 738.824 61.7122 738.964 61.7882C739.104 61.8642 739.27 61.9342 739.462 61.9982C739.654 62.0582 739.882 62.0882 740.146 62.0882C740.438 62.0882 740.7 62.0422 740.932 61.9502C741.168 61.8542 741.366 61.7202 741.526 61.5482C741.69 61.3762 741.814 61.1702 741.898 60.9302C741.986 60.6902 742.03 60.4242 742.03 60.1322C742.03 59.8722 741.992 59.6382 741.916 59.4302C741.84 59.2222 741.726 59.0442 741.574 58.8962C741.422 58.7482 741.232 58.6362 741.004 58.5602C740.776 58.4802 740.51 58.4402 740.206 58.4402C739.782 58.4402 739.33 58.5162 738.85 58.6682L738.112 58.4522L738.814 54.3842H742.942V54.8942C742.942 55.0622 742.888 55.2002 742.78 55.3082C742.676 55.4122 742.5 55.4642 742.252 55.4642H739.63L739.258 57.6002ZM746.218 57.6002C746.658 57.5082 747.056 57.4622 747.412 57.4622C747.86 57.4622 748.256 57.5302 748.6 57.6662C748.944 57.7982 749.232 57.9822 749.464 58.2182C749.7 58.4502 749.876 58.7262 749.992 59.0462C750.112 59.3622 750.172 59.7062 750.172 60.0782C750.172 60.5342 750.092 60.9482 749.932 61.3202C749.772 61.6922 749.552 62.0102 749.272 62.2742C748.992 62.5382 748.66 62.7422 748.276 62.8862C747.896 63.0262 747.486 63.0962 747.046 63.0962C746.786 63.0962 746.538 63.0702 746.302 63.0182C746.07 62.9662 745.852 62.8982 745.648 62.8142C745.444 62.7262 745.254 62.6262 745.078 62.5142C744.906 62.4022 744.752 62.2842 744.616 62.1602L744.976 61.6562C745.052 61.5442 745.154 61.4882 745.282 61.4882C745.366 61.4882 745.458 61.5202 745.558 61.5842C745.662 61.6442 745.784 61.7122 745.924 61.7882C746.064 61.8642 746.23 61.9342 746.422 61.9982C746.614 62.0582 746.842 62.0882 747.106 62.0882C747.398 62.0882 747.66 62.0422 747.892 61.9502C748.128 61.8542 748.326 61.7202 748.486 61.5482C748.65 61.3762 748.774 61.1702 748.858 60.9302C748.946 60.6902 748.99 60.4242 748.99 60.1322C748.99 59.8722 748.952 59.6382 748.876 59.4302C748.8 59.2222 748.686 59.0442 748.534 58.8962C748.382 58.7482 748.192 58.6362 747.964 58.5602C747.736 58.4802 747.47 58.4402 747.166 58.4402C746.742 58.4402 746.29 58.5162 745.81 58.6682L745.072 58.4522L745.774 54.3842H749.902V54.8942C749.902 55.0622 749.848 55.2002 749.74 55.3082C749.636 55.4122 749.46 55.4642 749.212 55.4642H746.59L746.218 57.6002Z" fill="white"/>
<path d="M798.191 62.1062V63.0002H793.535V62.1062H795.359V56.4602C795.359 56.2802 795.365 56.0942 795.377 55.9022L793.913 57.1442C793.857 57.1882 793.801 57.2162 793.745 57.2282C793.689 57.2402 793.635 57.2422 793.583 57.2342C793.535 57.2262 793.491 57.2102 793.451 57.1862C793.415 57.1582 793.385 57.1302 793.361 57.1022L792.995 56.5922L795.575 54.3662H796.529V62.1062H798.191ZM802.488 62.1182C802.764 62.1182 803.014 62.0742 803.238 61.9862C803.462 61.8942 803.654 61.7702 803.814 61.6142C803.974 61.4582 804.098 61.2722 804.186 61.0562C804.274 60.8402 804.318 60.6062 804.318 60.3542C804.318 60.0782 804.274 59.8322 804.186 59.6162C804.102 59.3962 803.982 59.2102 803.826 59.0582C803.674 58.9062 803.49 58.7902 803.274 58.7102C803.058 58.6302 802.818 58.5902 802.554 58.5902C802.278 58.5902 802.03 58.6382 801.81 58.7342C801.59 58.8262 801.402 58.9522 801.246 59.1122C801.09 59.2682 800.97 59.4522 800.886 59.6642C800.802 59.8762 800.76 60.0982 800.76 60.3302C800.76 60.5942 800.798 60.8362 800.874 61.0562C800.95 61.2762 801.062 61.4642 801.21 61.6202C801.358 61.7762 801.538 61.8982 801.75 61.9862C801.966 62.0742 802.212 62.1182 802.488 62.1182ZM801.936 57.5882C801.868 57.6762 801.8 57.7622 801.732 57.8462C801.668 57.9262 801.606 58.0062 801.546 58.0862C801.738 57.9622 801.95 57.8662 802.182 57.7982C802.418 57.7302 802.672 57.6962 802.944 57.6962C803.284 57.6962 803.608 57.7522 803.916 57.8642C804.224 57.9762 804.494 58.1402 804.726 58.3562C804.962 58.5722 805.148 58.8402 805.284 59.1602C805.42 59.4802 805.488 59.8482 805.488 60.2642C805.488 60.6602 805.416 61.0322 805.272 61.3802C805.128 61.7242 804.924 62.0242 804.66 62.2802C804.4 62.5322 804.088 62.7322 803.724 62.8802C803.36 63.0242 802.956 63.0962 802.512 63.0962C802.072 63.0962 801.674 63.0262 801.318 62.8862C800.966 62.7462 800.664 62.5482 800.412 62.2922C800.164 62.0322 799.972 61.7202 799.836 61.3562C799.7 60.9882 799.632 60.5802 799.632 60.1322C799.632 59.7482 799.714 59.3442 799.878 58.9202C800.046 58.4922 800.31 58.0362 800.67 57.5522L802.824 54.6662C802.884 54.5862 802.968 54.5202 803.076 54.4682C803.184 54.4122 803.308 54.3842 803.448 54.3842H804.492L801.936 57.5882ZM808.218 57.6002C808.658 57.5082 809.056 57.4622 809.412 57.4622C809.86 57.4622 810.256 57.5302 810.6 57.6662C810.944 57.7982 811.232 57.9822 811.464 58.2182C811.7 58.4502 811.876 58.7262 811.992 59.0462C812.112 59.3622 812.172 59.7062 812.172 60.0782C812.172 60.5342 812.092 60.9482 811.932 61.3202C811.772 61.6922 811.552 62.0102 811.272 62.2742C810.992 62.5382 810.66 62.7422 810.276 62.8862C809.896 63.0262 809.486 63.0962 809.046 63.0962C808.786 63.0962 808.538 63.0702 808.302 63.0182C808.07 62.9662 807.852 62.8982 807.648 62.8142C807.444 62.7262 807.254 62.6262 807.078 62.5142C806.906 62.4022 806.752 62.2842 806.616 62.1602L806.976 61.6562C807.052 61.5442 807.154 61.4882 807.282 61.4882C807.366 61.4882 807.458 61.5202 807.558 61.5842C807.662 61.6442 807.784 61.7122 807.924 61.7882C808.064 61.8642 808.23 61.9342 808.422 61.9982C808.614 62.0582 808.842 62.0882 809.106 62.0882C809.398 62.0882 809.66 62.0422 809.892 61.9502C810.128 61.8542 810.326 61.7202 810.486 61.5482C810.65 61.3762 810.774 61.1702 810.858 60.9302C810.946 60.6902 810.99 60.4242 810.99 60.1322C810.99 59.8722 810.952 59.6382 810.876 59.4302C810.8 59.2222 810.686 59.0442 810.534 58.8962C810.382 58.7482 810.192 58.6362 809.964 58.5602C809.736 58.4802 809.47 58.4402 809.166 58.4402C808.742 58.4402 808.29 58.5162 807.81 58.6682L807.072 58.4522L807.774 54.3842H811.902V54.8942C811.902 55.0622 811.848 55.2002 811.74 55.3082C811.636 55.4122 811.46 55.4642 811.212 55.4642H808.59L808.218 57.6002Z" fill="white"/>
<path d="M925.039 58.8962H928.039V59.8922H925.039V58.8962ZM934.903 62.1062V63.0002H930.247V62.1062H932.071V56.4602C932.071 56.2802 932.077 56.0942 932.089 55.9022L930.625 57.1442C930.569 57.1882 930.513 57.2162 930.457 57.2282C930.401 57.2402 930.347 57.2422 930.295 57.2342C930.247 57.2262 930.203 57.2102 930.163 57.1862C930.127 57.1582 930.097 57.1302 930.073 57.1022L929.707 56.5922L932.287 54.3662H933.241V62.1062H934.903ZM937.97 57.6002C938.41 57.5082 938.808 57.4622 939.164 57.4622C939.612 57.4622 940.008 57.5302 940.352 57.6662C940.696 57.7982 940.984 57.9822 941.216 58.2182C941.452 58.4502 941.628 58.7262 941.744 59.0462C941.864 59.3622 941.924 59.7062 941.924 60.0782C941.924 60.5342 941.844 60.9482 941.684 61.3202C941.524 61.6922 941.304 62.0102 941.024 62.2742C940.744 62.5382 940.412 62.7422 940.028 62.8862C939.648 63.0262 939.238 63.0962 938.798 63.0962C938.538 63.0962 938.29 63.0702 938.054 63.0182C937.822 62.9662 937.604 62.8982 937.4 62.8142C937.196 62.7262 937.006 62.6262 936.83 62.5142C936.658 62.4022 936.504 62.2842 936.368 62.1602L936.728 61.6562C936.804 61.5442 936.906 61.4882 937.034 61.4882C937.118 61.4882 937.21 61.5202 937.31 61.5842C937.414 61.6442 937.536 61.7122 937.676 61.7882C937.816 61.8642 937.982 61.9342 938.174 61.9982C938.366 62.0582 938.594 62.0882 938.858 62.0882C939.15 62.0882 939.412 62.0422 939.644 61.9502C939.88 61.8542 940.078 61.7202 940.238 61.5482C940.402 61.3762 940.526 61.1702 940.61 60.9302C940.698 60.6902 940.742 60.4242 940.742 60.1322C940.742 59.8722 940.704 59.6382 940.628 59.4302C940.552 59.2222 940.438 59.0442 940.286 58.8962C940.134 58.7482 939.944 58.6362 939.716 58.5602C939.488 58.4802 939.222 58.4402 938.918 58.4402C938.494 58.4402 938.042 58.5162 937.562 58.6682L936.824 58.4522L937.526 54.3842H941.654V54.8942C941.654 55.0622 941.6 55.2002 941.492 55.3082C941.388 55.4122 941.212 55.4642 940.964 55.4642H938.342L937.97 57.6002Z" fill="white"/>
<path d="M985.039 58.8962H988.039V59.8922H985.039V58.8962ZM994.687 61.8902C994.815 61.8902 994.915 61.9282 994.987 62.0042C995.059 62.0762 995.095 62.1722 995.095 62.2922V63.0002H989.311V62.5982C989.311 62.5182 989.327 62.4342 989.359 62.3462C989.391 62.2542 989.445 62.1722 989.521 62.1002L992.245 59.3702C992.473 59.1422 992.679 58.9222 992.863 58.7102C993.047 58.4982 993.203 58.2882 993.331 58.0802C993.459 57.8682 993.557 57.6522 993.625 57.4322C993.697 57.2122 993.733 56.9802 993.733 56.7362C993.733 56.4962 993.695 56.2862 993.619 56.1062C993.543 55.9222 993.439 55.7702 993.307 55.6502C993.175 55.5302 993.019 55.4402 992.839 55.3802C992.659 55.3202 992.465 55.2902 992.257 55.2902C992.049 55.2902 991.857 55.3202 991.681 55.3802C991.509 55.4402 991.355 55.5242 991.219 55.6322C991.083 55.7402 990.969 55.8682 990.877 56.0162C990.785 56.1642 990.719 56.3242 990.679 56.4962C990.623 56.6482 990.551 56.7502 990.463 56.8022C990.379 56.8542 990.255 56.8662 990.091 56.8382L989.479 56.7302C989.535 56.3302 989.645 55.9782 989.809 55.6742C989.973 55.3702 990.179 55.1162 990.427 54.9122C990.675 54.7042 990.959 54.5482 991.279 54.4442C991.603 54.3402 991.951 54.2882 992.323 54.2882C992.699 54.2882 993.045 54.3442 993.361 54.4562C993.681 54.5642 993.957 54.7222 994.189 54.9302C994.421 55.1382 994.603 55.3922 994.735 55.6922C994.867 55.9882 994.933 56.3242 994.933 56.7002C994.933 57.0202 994.885 57.3182 994.789 57.5942C994.697 57.8662 994.569 58.1262 994.405 58.3742C994.245 58.6222 994.057 58.8642 993.841 59.1002C993.629 59.3322 993.403 59.5682 993.163 59.8082L990.979 62.0402C991.147 61.9962 991.315 61.9602 991.483 61.9322C991.655 61.9042 991.817 61.8902 991.969 61.8902H994.687ZM997.97 57.6002C998.41 57.5082 998.808 57.4622 999.164 57.4622C999.612 57.4622 1000.01 57.5302 1000.35 57.6662C1000.7 57.7982 1000.98 57.9822 1001.22 58.2182C1001.45 58.4502 1001.63 58.7262 1001.74 59.0462C1001.86 59.3622 1001.92 59.7062 1001.92 60.0782C1001.92 60.5342 1001.84 60.9482 1001.68 61.3202C1001.52 61.6922 1001.3 62.0102 1001.02 62.2742C1000.74 62.5382 1000.41 62.7422 1000.03 62.8862C999.648 63.0262 999.238 63.0962 998.798 63.0962C998.538 63.0962 998.29 63.0702 998.054 63.0182C997.822 62.9662 997.604 62.8982 997.4 62.8142C997.196 62.7262 997.006 62.6262 996.83 62.5142C996.658 62.4022 996.504 62.2842 996.368 62.1602L996.728 61.6562C996.804 61.5442 996.906 61.4882 997.034 61.4882C997.118 61.4882 997.21 61.5202 997.31 61.5842C997.414 61.6442 997.536 61.7122 997.676 61.7882C997.816 61.8642 997.982 61.9342 998.174 61.9982C998.366 62.0582 998.594 62.0882 998.858 62.0882C999.15 62.0882 999.412 62.0422 999.644 61.9502C999.88 61.8542 1000.08 61.7202 1000.24 61.5482C1000.4 61.3762 1000.53 61.1702 1000.61 60.9302C1000.7 60.6902 1000.74 60.4242 1000.74 60.1322C1000.74 59.8722 1000.7 59.6382 1000.63 59.4302C1000.55 59.2222 1000.44 59.0442 1000.29 58.8962C1000.13 58.7482 999.944 58.6362 999.716 58.5602C999.488 58.4802 999.222 58.4402 998.918 58.4402C998.494 58.4402 998.042 58.5162 997.562 58.6682L996.824 58.4522L997.526 54.3842H1001.65V54.8942C1001.65 55.0622 1001.6 55.2002 1001.49 55.3082C1001.39 55.4122 1001.21 55.4642 1000.96 55.4642H998.342L997.97 57.6002Z" fill="white"/>
<path d="M1045.04 58.8962H1048.04V59.8922H1045.04V58.8962ZM1049.52 56.7302C1049.58 56.3302 1049.69 55.9782 1049.85 55.6742C1050.02 55.3702 1050.22 55.1162 1050.47 54.9122C1050.72 54.7042 1051 54.5482 1051.32 54.4442C1051.65 54.3402 1051.99 54.2882 1052.37 54.2882C1052.74 54.2882 1053.08 54.3422 1053.39 54.4502C1053.7 54.5542 1053.97 54.7042 1054.19 54.9002C1054.41 55.0922 1054.59 55.3242 1054.71 55.5962C1054.84 55.8682 1054.9 56.1682 1054.9 56.4962C1054.9 56.7722 1054.86 57.0162 1054.8 57.2282C1054.73 57.4402 1054.63 57.6262 1054.5 57.7862C1054.38 57.9462 1054.23 58.0822 1054.05 58.1942C1053.87 58.3022 1053.66 58.3922 1053.44 58.4642C1053.99 58.6162 1054.4 58.8642 1054.68 59.2082C1054.95 59.5482 1055.09 59.9802 1055.09 60.5042C1055.09 60.9082 1055.01 61.2722 1054.86 61.5962C1054.71 61.9162 1054.5 62.1882 1054.24 62.4122C1053.97 62.6322 1053.67 62.8022 1053.31 62.9222C1052.97 63.0382 1052.59 63.0962 1052.2 63.0962C1051.75 63.0962 1051.36 63.0422 1051.03 62.9342C1050.71 62.8222 1050.43 62.6682 1050.21 62.4722C1049.98 62.2722 1049.79 62.0342 1049.64 61.7582C1049.49 61.4782 1049.36 61.1722 1049.26 60.8402L1049.77 60.6242C1049.9 60.5682 1050.03 60.5522 1050.15 60.5762C1050.28 60.6002 1050.37 60.6702 1050.42 60.7862C1050.48 60.9062 1050.55 61.0422 1050.63 61.1942C1050.71 61.3422 1050.81 61.4842 1050.94 61.6202C1051.08 61.7522 1051.24 61.8642 1051.44 61.9562C1051.64 62.0482 1051.89 62.0942 1052.19 62.0942C1052.47 62.0942 1052.73 62.0482 1052.94 61.9562C1053.16 61.8602 1053.34 61.7382 1053.48 61.5902C1053.63 61.4382 1053.73 61.2702 1053.81 61.0862C1053.88 60.9022 1053.91 60.7202 1053.91 60.5402C1053.91 60.3162 1053.89 60.1102 1053.83 59.9222C1053.77 59.7342 1053.67 59.5742 1053.51 59.4422C1053.35 59.3062 1053.13 59.2002 1052.85 59.1242C1052.57 59.0482 1052.21 59.0102 1051.76 59.0102V58.1582C1052.13 58.1542 1052.44 58.1162 1052.69 58.0442C1052.95 57.9722 1053.15 57.8722 1053.31 57.7442C1053.46 57.6162 1053.58 57.4642 1053.64 57.2882C1053.72 57.1122 1053.75 56.9162 1053.75 56.7002C1053.75 56.4642 1053.72 56.2582 1053.64 56.0822C1053.57 55.9062 1053.47 55.7602 1053.34 55.6442C1053.21 55.5242 1053.06 55.4362 1052.88 55.3802C1052.7 55.3202 1052.51 55.2902 1052.3 55.2902C1052.09 55.2902 1051.9 55.3202 1051.72 55.3802C1051.55 55.4402 1051.39 55.5242 1051.26 55.6322C1051.12 55.7402 1051.01 55.8682 1050.91 56.0162C1050.82 56.1642 1050.76 56.3242 1050.72 56.4962C1050.66 56.6482 1050.59 56.7502 1050.5 56.8022C1050.42 56.8542 1050.29 56.8662 1050.13 56.8382L1049.52 56.7302ZM1057.97 57.6002C1058.41 57.5082 1058.81 57.4622 1059.16 57.4622C1059.61 57.4622 1060.01 57.5302 1060.35 57.6662C1060.7 57.7982 1060.98 57.9822 1061.22 58.2182C1061.45 58.4502 1061.63 58.7262 1061.74 59.0462C1061.86 59.3622 1061.92 59.7062 1061.92 60.0782C1061.92 60.5342 1061.84 60.9482 1061.68 61.3202C1061.52 61.6922 1061.3 62.0102 1061.02 62.2742C1060.74 62.5382 1060.41 62.7422 1060.03 62.8862C1059.65 63.0262 1059.24 63.0962 1058.8 63.0962C1058.54 63.0962 1058.29 63.0702 1058.05 63.0182C1057.82 62.9662 1057.6 62.8982 1057.4 62.8142C1057.2 62.7262 1057.01 62.6262 1056.83 62.5142C1056.66 62.4022 1056.5 62.2842 1056.37 62.1602L1056.73 61.6562C1056.8 61.5442 1056.91 61.4882 1057.03 61.4882C1057.12 61.4882 1057.21 61.5202 1057.31 61.5842C1057.41 61.6442 1057.54 61.7122 1057.68 61.7882C1057.82 61.8642 1057.98 61.9342 1058.17 61.9982C1058.37 62.0582 1058.59 62.0882 1058.86 62.0882C1059.15 62.0882 1059.41 62.0422 1059.64 61.9502C1059.88 61.8542 1060.08 61.7202 1060.24 61.5482C1060.4 61.3762 1060.53 61.1702 1060.61 60.9302C1060.7 60.6902 1060.74 60.4242 1060.74 60.1322C1060.74 59.8722 1060.7 59.6382 1060.63 59.4302C1060.55 59.2222 1060.44 59.0442 1060.29 58.8962C1060.13 58.7482 1059.94 58.6362 1059.72 58.5602C1059.49 58.4802 1059.22 58.4402 1058.92 58.4402C1058.49 58.4402 1058.04 58.5162 1057.56 58.6682L1056.82 58.4522L1057.53 54.3842H1061.65V54.8942C1061.65 55.0622 1061.6 55.2002 1061.49 55.3082C1061.39 55.4122 1061.21 55.4642 1060.96 55.4642H1058.34L1057.97 57.6002Z" fill="white"/>
<path d="M869.155 50.7017V66.0002H867.307C867.034 66.0002 866.803 65.9582 866.614 65.8742C866.432 65.7832 866.25 65.6292 866.068 65.4122L858.855 56.2877C858.883 56.5607 858.9 56.8267 858.907 57.0857C858.921 57.3377 858.928 57.5757 858.928 57.7997V66.0002H855.799V50.7017H857.668C857.822 50.7017 857.952 50.7087 858.057 50.7227C858.162 50.7367 858.256 50.7647 858.34 50.8067C858.424 50.8417 858.505 50.8942 858.582 50.9642C858.659 51.0342 858.746 51.1287 858.844 51.2477L866.121 60.4352C866.086 60.1412 866.061 59.8577 866.047 59.5847C866.033 59.3047 866.026 59.0422 866.026 58.7972V50.7017H869.155ZM875.694 53.4317V57.0017H880.503V59.6267H875.694V63.2702H881.973V66.0002H872.124V50.7017H881.973V53.4317H875.694Z" fill="white"/>
<path d="M505.174 50.7017V66.0002H503.326C503.053 66.0002 502.822 65.9582 502.633 65.8742C502.451 65.7832 502.269 65.6292 502.087 65.4122L494.874 56.2877C494.902 56.5607 494.919 56.8267 494.926 57.0857C494.94 57.3377 494.947 57.5757 494.947 57.7997V66.0002H491.818V50.7017H493.687C493.841 50.7017 493.971 50.7087 494.076 50.7227C494.181 50.7367 494.275 50.7647 494.359 50.8067C494.443 50.8417 494.524 50.8942 494.601 50.9642C494.678 51.0342 494.765 51.1287 494.863 51.2477L502.14 60.4352C502.105 60.1412 502.08 59.8577 502.066 59.5847C502.052 59.3047 502.045 59.0422 502.045 58.7972V50.7017H505.174Z" fill="white"/>
<path d="M192.987 50.7017V66.0002H191.139C190.866 66.0002 190.635 65.9582 190.446 65.8742C190.264 65.7832 190.082 65.6292 189.9 65.4122L182.687 56.2877C182.715 56.5607 182.732 56.8267 182.739 57.0857C182.753 57.3377 182.76 57.5757 182.76 57.7997V66.0002H179.631V50.7017H181.5C181.654 50.7017 181.784 50.7087 181.889 50.7227C181.994 50.7367 182.088 50.7647 182.172 50.8067C182.256 50.8417 182.337 50.8942 182.414 50.9642C182.491 51.0342 182.578 51.1287 182.676 51.2477L189.953 60.4352C189.918 60.1412 189.893 59.8577 189.879 59.5847C189.865 59.3047 189.858 59.0422 189.858 58.7972V50.7017H192.987ZM216.798 50.7017L212.073 66.0002H208.86L205.983 56.5187C205.927 56.3717 205.875 56.2107 205.826 56.0357C205.777 55.8537 205.728 55.6647 205.679 55.4687C205.63 55.6647 205.581 55.8537 205.532 56.0357C205.483 56.2107 205.43 56.3717 205.374 56.5187L202.455 66.0002H199.242L194.517 50.7017H197.499C197.807 50.7017 198.063 50.7717 198.266 50.9117C198.476 51.0517 198.612 51.2372 198.675 51.4682L200.775 59.4482C200.838 59.7002 200.901 59.9767 200.964 60.2777C201.027 60.5717 201.09 60.8797 201.153 61.2017C201.279 60.5437 201.433 59.9592 201.615 59.4482L204.093 51.4682C204.156 51.2722 204.289 51.0972 204.492 50.9432C204.702 50.7822 204.954 50.7017 205.248 50.7017H206.298C206.606 50.7017 206.855 50.7752 207.044 50.9222C207.233 51.0622 207.376 51.2442 207.474 51.4682L209.931 59.4482C210.113 59.9382 210.267 60.4947 210.393 61.1177C210.449 60.8027 210.505 60.5087 210.561 60.2357C210.624 59.9557 210.687 59.6932 210.75 59.4482L212.85 51.4682C212.906 51.2652 213.039 51.0867 213.249 50.9327C213.459 50.7787 213.711 50.7017 214.005 50.7017H216.798Z" fill="white"/>
</svg>
