<svg width="43" height="43" viewBox="0 0 43 43" fill="none" xmlns="http://www.w3.org/2000/svg">
<circle cx="21.5" cy="21.5" r="21.5" fill="white" fill-opacity="0.34"/>
<g clip-path="url(#clip0_591_772)">
<path d="M18.4004 19.1357L18.4716 20.4767C18.4838 20.7057 18.5919 20.9155 18.7642 21.0443C18.9355 21.1723 19.1523 21.2067 19.351 21.1341L20.0024 20.8963L18.4004 19.1357Z" fill="white"/>
<path d="M37.1755 16.3349C37.1598 16.0384 36.9366 15.8096 36.6705 15.8096C36.6605 15.8096 36.6505 15.8099 36.6404 15.8105L35.8814 15.8594L35.8555 15.3722C35.8397 15.0757 35.6166 14.8468 35.3505 14.8468C35.3405 14.8468 35.3305 14.8472 35.3205 14.8478C35.0413 14.8658 34.8283 15.1297 34.8445 15.4373L34.8704 15.9245L30.7652 16.1891L29.7442 14.1975C29.6451 14.0078 29.4594 13.8932 29.2608 13.9007L25.1468 14.0453C24.9024 14.0539 24.694 14.243 24.6394 14.5056L24.3496 15.9016L25.4803 15.8395L25.5958 15.2156L28.9726 15.0969L29.5658 16.2665L28.8062 16.3154C29.5185 17.503 29.0931 19.0967 27.9312 19.6802L27.6161 19.8384L28.1479 21.5605C28.352 22.2215 29.0038 22.5746 29.6032 22.3498C30.2028 22.125 30.5236 21.4072 30.3196 20.7465C29.7457 18.8885 29.8693 19.2884 29.6145 18.4636L31.544 18.3393C31.8232 18.3213 32.0362 18.0574 32.0199 17.7498C32.0072 17.51 31.8585 17.315 31.6612 17.2491L36.6995 16.9245C36.9788 16.9064 37.1918 16.6425 37.1755 16.3349Z" fill="white"/>
<path d="M21.422 10.631C20.0404 10.3985 18.7484 11.4439 18.5373 12.9668C18.3037 14.6513 19.4858 16.1773 21.0429 16.1773C22.2721 16.1773 23.3509 15.1889 23.5423 13.809C23.7534 12.2864 22.8041 10.8635 21.422 10.631Z" fill="white"/>
<path d="M28.1093 17.0621C27.8466 16.4271 27.1662 16.147 26.5899 16.4364L22.4068 18.5369C21.9847 18.2762 18.9978 16.4295 18.5557 16.1587C17.9493 15.7871 17.7162 15.0386 17.7162 15.0386C17.2035 15.0346 16.7106 15.2565 16.3473 15.655C15.984 16.0535 15.7803 16.5955 15.7817 17.1603C15.809 20.6621 15.804 23.5217 15.7998 24.7255C15.7984 25.1181 15.8516 25.5157 15.9569 25.8907C16.1844 26.7008 16.6293 28.3748 17.1219 30.7121H12.1263C11.3662 30.7122 10.75 31.3911 10.75 32.2285C10.75 33.066 11.3662 33.7448 12.1263 33.7448H18.8586C19.2789 33.7448 19.6762 33.5332 19.9373 33.1703C20.1984 32.8074 20.2946 32.3329 20.1986 31.8822L19.0413 26.4478L22.8287 26.034L21.9694 31.9905C21.8369 32.9089 22.4802 33.745 23.3304 33.745C23.9953 33.745 24.5803 33.2129 24.688 32.4666L25.8272 24.5691C25.8942 24.105 25.762 23.6328 25.4694 23.2908C25.1767 22.9489 24.7568 22.7757 24.3322 22.8222L21.3426 23.1488L21.3503 22.356C21.21 22.2309 21.2196 22.2345 20.5538 21.5029L19.5693 21.8622C19.1795 22.0045 18.7361 21.9507 18.3726 21.679C18.0236 21.4181 17.8006 20.9853 17.7759 20.5214C17.6772 18.661 17.6716 18.7371 17.7003 18.5273C18.4429 18.9858 17.4804 18.3915 21.7928 21.0545C22.1115 21.2515 22.4965 21.2692 22.8291 21.1022L27.5415 18.736C28.1178 18.4465 28.372 17.6971 28.1093 17.0621Z" fill="white"/>
</g>
<defs>
<clipPath id="clip0_591_772">
<rect width="26.4271" height="29.1146" fill="white" transform="translate(10.75 7.6145)"/>
</clipPath>
</defs>
</svg>
