<svg width="28" height="30" viewBox="0 0 28 30" fill="none" xmlns="http://www.w3.org/2000/svg">
<g clip-path="url(#clip0_591_774)">
<path d="M8.40039 12.1357L8.47157 13.4767C8.4838 13.7057 8.59188 13.9155 8.76418 14.0443C8.93554 14.1723 9.15227 14.2067 9.35099 14.1341L10.0024 13.8963L8.40039 12.1357Z" fill="white"/>
<path d="M27.1755 9.33488C27.1598 9.03839 26.9366 8.80956 26.6705 8.80956C26.6605 8.80956 26.6505 8.8099 26.6404 8.81053L25.8814 8.85943L25.8555 8.37216C25.8397 8.07567 25.6166 7.84685 25.3505 7.84685C25.3405 7.84685 25.3305 7.84719 25.3205 7.84782C25.0413 7.86584 24.8283 8.12969 24.8445 8.43727L24.8704 8.92454L20.7652 9.18908L19.7442 7.19746C19.6451 7.00781 19.4594 6.89323 19.2608 6.90074L15.1468 7.04534C14.9024 7.05393 14.694 7.24301 14.6394 7.50561L14.3496 8.90163L15.4803 8.83947L15.5958 8.21561L18.9726 8.09694L19.5658 9.26647L18.8062 9.31543C19.5185 10.503 19.0931 12.0967 17.9312 12.6802L17.6161 12.8384L18.1479 14.5605C18.352 15.2215 19.0038 15.5746 19.6032 15.3498C20.2028 15.125 20.5236 14.4072 20.3196 13.7465C19.7457 11.8885 19.8693 12.2884 19.6145 11.4636L21.544 11.3393C21.8232 11.3213 22.0362 11.0574 22.0199 10.7498C22.0072 10.51 21.8585 10.315 21.6612 10.2491L26.6995 9.9245C26.9788 9.90636 27.1918 9.64251 27.1755 9.33488Z" fill="white"/>
<path d="M11.422 3.63098C10.0404 3.39852 8.74844 4.44391 8.53734 5.9668C8.30373 7.65129 9.48582 9.17725 11.0429 9.17725C12.2721 9.17725 13.3509 8.18889 13.5423 6.80902C13.7534 5.28642 12.8041 3.8635 11.422 3.63098Z" fill="white"/>
<path d="M18.1093 10.0621C17.8466 9.42709 17.1662 9.14703 16.5899 9.43636L12.4068 11.5369C11.9847 11.2762 8.99778 9.42953 8.55574 9.15869C7.94926 8.78708 7.71617 8.03863 7.71617 8.03863C7.20347 8.03459 6.7106 8.25653 6.34728 8.65498C5.98396 9.05349 5.78033 9.59552 5.78173 10.1603C5.80898 13.6621 5.80402 16.5217 5.79984 17.7255C5.79845 18.1181 5.85156 18.5157 5.95691 18.8907C6.18438 19.7008 6.62925 21.3748 7.12192 23.7121H2.12632C1.36618 23.7122 0.75 24.3911 0.75 25.2285C0.75 26.066 1.36618 26.7448 2.12632 26.7448H8.85862C9.27893 26.7448 9.67621 26.5332 9.93728 26.1703C10.1984 25.8074 10.2946 25.3329 10.1986 24.8822L9.04129 19.4478L12.8287 19.034L11.9694 24.9905C11.8369 25.9089 12.4802 26.745 13.3304 26.745C13.9953 26.745 14.5803 26.2129 14.688 25.4666L15.8272 17.5691C15.8942 17.105 15.762 16.6328 15.4694 16.2908C15.1767 15.9489 14.7568 15.7757 14.3322 15.8222L11.3426 16.1488L11.3503 15.356C11.21 15.2309 11.2196 15.2345 10.5538 14.5029L9.56932 14.8622C9.17952 15.0045 8.73609 14.9507 8.37261 14.679C8.02364 14.4181 7.80056 13.9853 7.77594 13.5214C7.6772 11.661 7.67162 11.7371 7.70032 11.5273C8.44286 11.9858 7.48044 11.3915 11.7928 14.0545C12.1115 14.2515 12.4965 14.2692 12.8291 14.1022L17.5415 11.736C18.1178 11.4465 18.372 10.6971 18.1093 10.0621Z" fill="white"/>
</g>
<defs>
<clipPath id="clip0_591_774">
<rect width="26.4271" height="29.1146" fill="white" transform="translate(0.75 0.614502)"/>
</clipPath>
</defs>
</svg>
