<svg width="134" height="118" viewBox="0 0 134 118" fill="none" xmlns="http://www.w3.org/2000/svg">
<circle cx="49.5" cy="50.5" r="36.5" fill="white" fill-opacity="0.34"/>
<path d="M65.6113 83.2522C61.3102 85.3679 56.6346 86.6156 51.8513 86.9243C47.068 87.233 42.2707 86.5965 37.7334 85.0511C33.1961 83.5058 29.0076 81.0819 25.407 77.9179C21.8065 74.7538 18.8644 70.9116 16.7487 66.6105C14.6331 62.3094 13.3853 57.6338 13.0766 52.8505C12.768 48.0672 13.4045 43.2699 14.9498 38.7326C16.4951 34.1953 18.919 30.0068 22.0831 26.4062C25.2471 22.8056 29.0894 19.8635 33.3904 17.7479L34.1251 19.2415C30.0202 21.2607 26.3531 24.0686 23.3334 27.505C20.3136 30.9413 18.0003 34.9388 16.5254 39.2692C15.0506 43.5996 14.4431 48.1781 14.7377 52.7433C15.0323 57.3084 16.2231 61.7709 18.2423 65.8758C20.2615 69.9807 23.0694 73.6478 26.5058 76.6675C29.9421 79.6873 33.9396 82.0006 38.27 83.4755C42.6004 84.9503 47.1789 85.5578 51.7441 85.2632C56.3093 84.9687 60.7717 83.7778 64.8766 81.7586L65.6113 83.2522Z" fill="white"/>
<g clip-path="url(#clip0_591_747)">
<path d="M56.6589 61.2463H34.6055C34.2711 61.2463 34 61.5175 34 61.8518C34 62.1861 34.2711 62.4573 34.6055 62.4573H56.6589C56.9933 62.4573 57.2643 62.1861 57.2643 61.8518C57.2643 61.5175 56.9933 61.2463 56.6589 61.2463Z" fill="white"/>
<path d="M64.3938 61.2463H61.1367C60.8023 61.2463 60.5312 61.5175 60.5312 61.8518C60.5312 62.1861 60.8023 62.4573 61.1367 62.4573H64.3938C64.7282 62.4573 64.9993 62.1861 64.9993 61.8518C64.9993 61.5175 64.7282 61.2463 64.3938 61.2463Z" fill="white"/>
<path d="M60.1664 52.6963H52.0733V52.1471C52.0733 47.9415 52.9074 43.9969 54.5524 40.4228C54.8944 39.6798 55.0647 38.8851 55.0588 38.061C55.0485 36.6163 54.48 35.2483 53.4584 34.2092C52.4366 33.1698 51.0785 32.5786 49.6342 32.5445C48.122 32.5098 46.6961 33.07 45.6162 34.1247C44.5359 35.1797 43.941 36.5922 43.941 38.1019C43.941 38.8837 44.1003 39.6399 44.4144 40.3495C46.0815 44.1147 46.9267 47.9699 46.9267 51.8081V52.6963H38.8336C36.1683 52.6963 34 54.8646 34 57.5299V59.4088C34 59.7432 34.2711 60.0143 34.6055 60.0143H64.3945C64.7289 60.0143 65 59.7432 65 59.4088V57.5299C65 54.8646 62.8316 52.6963 60.1664 52.6963ZM45.5217 39.8592C45.2763 39.305 45.1519 38.7137 45.1519 38.1019C45.1519 36.921 45.6173 35.8162 46.4622 34.9909C47.3069 34.1661 48.4223 33.7276 49.6056 33.7551C51.9281 33.8099 53.8313 35.7455 53.8479 38.0698C53.8526 38.7148 53.7195 39.3362 53.4524 39.9166C51.7338 43.6505 50.8624 47.7655 50.8624 52.1471V52.6963H48.1376V51.8081C48.1376 47.7999 47.2575 43.7797 45.5217 39.8592ZM63.7891 58.8033H35.2109V57.5298C35.2109 55.5323 36.836 53.9072 38.8336 53.9072H60.1664C62.1639 53.9072 63.7891 55.5323 63.7891 57.5298V58.8033Z" fill="white"/>
<path d="M50.1752 35.335C50.1831 35.0007 49.9185 34.7233 49.5842 34.7154C48.6434 34.6929 47.7557 35.0425 47.0836 35.6989C46.4113 36.3555 46.041 37.2346 46.041 38.1742C46.041 38.5086 46.3121 38.7797 46.6465 38.7797C46.9809 38.7797 47.252 38.5086 47.252 38.1742C47.252 37.5635 47.4927 36.9921 47.9297 36.5652C48.3665 36.1386 48.9437 35.912 49.5556 35.926C49.8906 35.9353 50.1673 35.6692 50.1752 35.335Z" fill="white"/>
<path d="M51.7493 38.1573C51.7516 38.4902 52.0222 38.7585 52.3546 38.7585C52.3561 38.7585 52.3576 38.7585 52.3591 38.7585C52.6935 38.756 52.9626 38.483 52.9602 38.1486C52.9542 37.3065 52.6385 36.4955 52.0713 35.8647C51.8477 35.6161 51.4648 35.5957 51.2163 35.8194C50.9676 36.0429 50.9473 36.4258 51.1709 36.6744C51.5399 37.0848 51.7453 37.6115 51.7493 38.1573Z" fill="white"/>
<path d="M40.8821 56.2927H37.625C37.2906 56.2927 37.0195 56.5639 37.0195 56.8982C37.0195 57.2325 37.2906 57.5037 37.625 57.5037H40.8821C41.2165 57.5037 41.4876 57.2325 41.4876 56.8982C41.4876 56.5639 41.2165 56.2927 40.8821 56.2927Z" fill="white"/>
</g>
<defs>
<clipPath id="clip0_591_747">
<rect width="31" height="31" fill="white" transform="translate(34 32)"/>
</clipPath>
</defs>
</svg>
