<svg width="70" height="80" viewBox="0 0 70 80" fill="none" xmlns="http://www.w3.org/2000/svg">
<path d="M64.0323 0C60.831 0 58.2259 2.60516 58.2259 5.80645C58.2259 6.16129 57.9369 6.45161 57.5807 6.45161H55.6452V0H14.3549V6.45161H12.4194C12.0633 6.45161 11.7743 6.16129 11.7743 5.80645C11.7743 2.60516 9.16912 0 5.96783 0C2.76654 0 0.161377 2.60516 0.161377 5.80645V21.0219C0.161377 29.24 4.72783 36.6297 12.0788 40.3045C15.0556 41.7935 18.3898 42.5806 21.7201 42.5806H24.4157C25.6891 43.7727 27.0677 44.8723 28.5485 45.8606V47.5832C28.5485 50.7018 28.1985 53.8179 27.5085 56.8592C24.8665 57.2894 22.758 59.3285 22.2265 61.9355H16.9356V80H53.0646V61.9355H47.7735C47.2422 59.3285 45.1335 57.2892 42.4915 56.8592C41.8017 53.8179 41.4517 50.7018 41.4517 47.5832V45.8606C42.9327 44.8723 44.311 43.7727 45.5844 42.5806H48.2801C51.6104 42.5806 54.9446 41.7935 57.9214 40.3045C65.2723 36.6297 69.8388 29.24 69.8388 21.0219V5.80645C69.8388 2.60516 67.2336 0 64.0323 0ZM13.2323 37.9961C6.76138 34.76 2.74202 28.2555 2.74202 21.0219V5.80645C2.74202 4.0271 4.18976 2.58065 5.96783 2.58065C7.74589 2.58065 9.19363 4.0271 9.19363 5.80645C9.19363 7.58581 10.6414 9.03226 12.4194 9.03226H14.3549V19.3058C14.3549 27.0326 17.0951 34.3116 21.9472 40H21.7201C18.7885 40 15.853 39.3071 13.2323 37.9961ZM31.1291 47.5832V46.4516H38.871V47.5832C38.871 50.6698 39.1952 53.7545 39.8322 56.7742H30.1678C30.8049 53.7545 31.1291 50.6698 31.1291 47.5832ZM19.5162 77.4193V69.6774H50.484V77.4193H19.5162ZM50.484 67.0968H19.5162V64.5161H50.484V67.0968ZM45.1006 61.9355H24.8996C25.4323 60.4337 26.8667 59.3548 28.5485 59.3548H41.4517C43.1336 59.3548 44.5678 60.4337 45.1006 61.9355ZM39.7741 43.871H30.2261C21.8981 38.4282 16.9356 29.2739 16.9356 19.3058V2.58065H53.0646V19.3058C53.0646 29.2739 48.102 38.4282 39.7741 43.871ZM67.2581 21.0219C67.2581 28.2555 63.2388 34.76 56.7678 37.9961C54.1472 39.3071 51.2117 40 48.2801 40H48.053C52.9051 34.3116 55.6452 27.0326 55.6452 19.3058V9.03226H57.5807C59.3588 9.03226 60.8065 7.58581 60.8065 5.80645C60.8065 4.0271 62.2543 2.58065 64.0323 2.58065C65.8104 2.58065 67.2581 4.0271 67.2581 5.80645V21.0219Z" fill="white"/>
<path d="M35.0001 5.16132C29.3085 5.16132 24.6775 9.79228 24.6775 15.4839C24.6775 21.1755 29.3085 25.8065 35.0001 25.8065C40.6917 25.8065 45.3227 21.1755 45.3227 15.4839C45.3227 9.79228 40.6917 5.16132 35.0001 5.16132ZM35.0001 23.2258C30.7304 23.2258 27.2581 19.7536 27.2581 15.4839C27.2581 11.2142 30.7304 7.74196 35.0001 7.74196C39.2697 7.74196 42.742 11.2142 42.742 15.4839C42.742 19.7536 39.2697 23.2258 35.0001 23.2258Z" fill="white"/>
</svg>
