<svg width="31" height="31" viewBox="0 0 31 31" fill="none" xmlns="http://www.w3.org/2000/svg">
<g clip-path="url(#clip0_845_316)">
<path d="M22.6589 29.2463H0.605469C0.271068 29.2463 0 29.5175 0 29.8518C0 30.1861 0.271068 30.4573 0.605469 30.4573H22.6589C22.9933 30.4573 23.2643 30.1861 23.2643 29.8518C23.2643 29.5175 22.9933 29.2463 22.6589 29.2463Z" fill="white"/>
<path d="M30.3938 29.2463H27.1367C26.8023 29.2463 26.5312 29.5175 26.5312 29.8518C26.5312 30.1861 26.8023 30.4573 27.1367 30.4573H30.3938C30.7282 30.4573 30.9993 30.1861 30.9993 29.8518C30.9993 29.5175 30.7282 29.2463 30.3938 29.2463Z" fill="white"/>
<path d="M26.1664 20.6963H18.0733V20.1471C18.0733 15.9415 18.9074 11.9969 20.5524 8.42279C20.8944 7.67982 21.0647 6.88514 21.0588 6.06104C21.0485 4.61633 20.48 3.24833 19.4584 2.20916C18.4366 1.16976 17.0785 0.578577 15.6342 0.544489C14.122 0.509795 12.6961 1.06998 11.6162 2.1247C10.5359 3.17973 9.94101 4.59217 9.94101 6.1019C9.94101 6.88369 10.1003 7.63986 10.4144 8.34947C12.0815 12.1147 12.9267 15.9699 12.9267 19.8081V20.6963H4.83358C2.1683 20.6963 0 22.8646 0 25.5299V27.4088C0 27.7432 0.271068 28.0143 0.605469 28.0143H30.3945C30.7289 28.0143 31 27.7432 31 27.4088V25.5299C31 22.8646 28.8316 20.6963 26.1664 20.6963ZM11.5217 7.85922C11.2763 7.30497 11.1519 6.71373 11.1519 6.1019C11.1519 4.921 11.6173 3.8162 12.4622 2.99095C13.3069 2.16606 14.4223 1.72757 15.6056 1.75506C17.9281 1.80992 19.8313 3.74548 19.8479 6.06981C19.8526 6.71482 19.7195 7.33615 19.4524 7.91655C17.7338 11.6505 16.8624 15.7655 16.8624 20.1471V20.6963H14.1376V19.8081C14.1376 15.7999 13.2575 11.7797 11.5217 7.85922ZM29.7891 26.8033H1.21094V25.5298C1.21094 23.5323 2.83602 21.9072 4.83358 21.9072H26.1664C28.1639 21.9072 29.7891 23.5323 29.7891 25.5298V26.8033Z" fill="white"/>
<path d="M16.1752 3.33496C16.1831 3.00068 15.9185 2.72325 15.5842 2.71538C14.6434 2.69286 13.7557 3.04245 13.0836 3.6989C12.4113 4.35553 12.041 5.23461 12.041 6.17424C12.041 6.50858 12.3121 6.77971 12.6465 6.77971C12.9809 6.77971 13.252 6.50858 13.252 6.17424C13.252 5.5635 13.4927 4.99206 13.9297 4.56521C14.3665 4.13859 14.9437 3.91203 15.5556 3.92595C15.8906 3.93528 16.1673 3.66924 16.1752 3.33496Z" fill="white"/>
<path d="M17.7493 6.15735C17.7516 6.49023 18.0222 6.75846 18.3546 6.75846C18.3561 6.75846 18.3576 6.75846 18.3591 6.75846C18.6935 6.75603 18.9626 6.48303 18.9602 6.14863C18.9542 5.30654 18.6385 4.49552 18.0713 3.86474C17.8477 3.61607 17.4648 3.59567 17.2163 3.81939C16.9676 4.04293 16.9473 4.42577 17.1709 4.67443C17.5399 5.08482 17.7453 5.61146 17.7493 6.15735Z" fill="white"/>
<path d="M6.88212 24.2927H3.625C3.2906 24.2927 3.01953 24.5639 3.01953 24.8982C3.01953 25.2325 3.2906 25.5037 3.625 25.5037H6.88206C7.21646 25.5037 7.48759 25.2325 7.48759 24.8982C7.48759 24.5639 7.21652 24.2927 6.88212 24.2927Z" fill="white"/>
</g>
<defs>
<clipPath id="clip0_845_316">
<rect width="31" height="31" fill="white"/>
</clipPath>
</defs>
</svg>
