<svg width="9" height="9" viewBox="0 0 9 9" fill="none" xmlns="http://www.w3.org/2000/svg">
<path d="M8.9999 4.06811C8.99983 4.11717 8.98162 4.16398 8.94968 4.19708L5.1867 8.09088C5.14142 8.13732 5.07626 8.14923 5.02033 8.12136C4.96441 8.09349 4.92824 8.031 4.92792 7.96191V6.26098C4.89431 6.26156 4.86077 6.26221 4.8271 6.26265C3.12851 6.29037 1.52398 6.3165 0.624447 8.88954V8.88947C0.601102 8.95595 0.544409 8.99971 0.481174 9C0.418133 8.99993 0.361502 8.9566 0.337838 8.89049C-0.00380276 7.93272 -0.0886505 6.88228 0.0938838 5.87046C0.276336 4.85848 0.718093 3.92969 1.36402 3.20009C2.2631 2.18266 3.52331 1.68567 4.92802 1.79026V0.174379C4.92834 0.105215 4.96451 0.0427298 5.02044 0.0148612C5.07636 -0.0130074 5.14152 -0.00103264 5.1868 0.045342L8.94979 3.93914C8.98172 3.97231 8.99994 4.01912 9 4.06818L8.9999 4.06811Z" fill="#FFC700"/>
</svg>
