<svg width="20" height="24" viewBox="0 0 20 24" fill="none" xmlns="http://www.w3.org/2000/svg">
<path d="M7.53188 15.2287C9.20788 15.085 10.893 15.085 12.569 15.2287C13.4855 15.2901 14.3958 15.424 15.2915 15.6291C17.2288 16.0191 18.4932 16.789 19.0234 17.9182C19.447 18.8564 19.4358 19.9353 18.9928 20.8644C18.4524 21.9936 17.188 22.7635 15.2201 23.1638C14.3275 23.3648 13.4206 23.4952 12.5078 23.5539C11.4983 23.6668 10.6418 23.6668 9.8465 23.6668H9.53041C9.07984 23.618 8.73828 23.2351 8.73828 22.7789C8.73828 22.3226 9.07984 21.9398 9.53041 21.8909L10.2281 21.8908C10.9273 21.8826 11.6309 21.8499 12.3345 21.7883C13.1645 21.7339 13.9893 21.6172 14.802 21.4392C16.199 21.1313 17.0759 20.6899 17.3512 20.1048C17.5653 19.6572 17.5653 19.1357 17.3512 18.6881C17.0759 18.0927 16.199 17.6308 14.8326 17.3536C14.0073 17.1672 13.1685 17.0471 12.3243 16.9943C10.747 16.8506 9.16011 16.8506 7.58286 16.9943C6.74949 17.0487 5.92129 17.1654 5.1051 17.3434C3.70817 17.6513 2.84146 18.0927 2.55596 18.6779C2.4548 18.9001 2.40263 19.1417 2.40301 19.3862C2.40244 19.6339 2.45459 19.879 2.55596 20.1048C3.04127 20.772 3.77966 21.2069 4.59527 21.3058L4.71359 21.3379C4.98192 21.4311 5.19255 21.6496 5.27461 21.9283C5.36838 22.2469 5.27872 22.5916 5.04186 22.823C4.805 23.0544 4.46012 23.1343 4.14662 23.0304C2.83204 22.8146 1.67907 22.0257 0.995883 20.8747C0.556874 19.9423 0.556874 18.8608 0.995883 17.9285C1.5363 16.7685 2.80068 16.0191 4.74822 15.6188C5.66515 15.4191 6.59563 15.2887 7.53188 15.2287ZM7.62546 0.808571C9.94712 -0.158454 12.6188 0.378291 14.394 2.16837C16.1691 3.95844 16.6979 6.64905 15.7335 8.98478C14.7692 11.3205 12.5018 12.841 9.98925 12.8369C6.56371 12.8312 3.78974 10.0339 3.78974 6.58527L3.7955 6.31526C3.89892 3.89461 5.38671 1.74106 7.62546 0.808571ZM9.98925 2.11983C8.81112 2.11712 7.68031 2.58638 6.84628 3.4241C6.01226 4.26183 5.54354 5.39919 5.54354 6.58527C5.53943 8.39645 6.61997 10.0316 8.28088 10.7276C9.94179 11.4236 11.8556 11.0432 13.1292 9.76397C14.4028 8.48474 14.785 6.55886 14.0975 4.88514C13.41 3.21143 11.7883 2.11983 9.98925 2.11983Z" fill="#003554"/>
</svg>
