<svg width="82" height="80" viewBox="0 0 82 80" fill="none" xmlns="http://www.w3.org/2000/svg">
<path d="M47.7514 32.9686H43.846C43.2565 32.9686 42.7767 32.4897 42.7767 31.9002V28.8705C42.7767 28.2819 43.2556 27.8021 43.846 27.8021H47.7514C48.3401 27.8021 48.8198 28.2819 48.8198 28.8705C48.8198 29.3674 49.2222 29.7706 49.7199 29.7706C50.2177 29.7706 50.62 29.3674 50.62 28.8705C50.62 27.2891 49.3329 26.002 47.7514 26.002H46.6984V24.4637C46.6984 23.9669 46.296 23.5637 45.7983 23.5637C45.3005 23.5637 44.8982 23.9669 44.8982 24.4637V26.0011H43.846C42.2637 26.0011 40.9766 27.2882 40.9766 28.8696V31.8993C40.9766 33.4807 42.2637 34.7678 43.846 34.7678H47.7514C48.3401 34.7678 48.8198 35.2476 48.8198 35.8362V38.8659C48.8198 39.4545 48.341 39.9343 47.7514 39.9343H43.846C43.2565 39.9343 42.7767 39.4545 42.7767 38.8659C42.7767 38.369 42.3744 37.9658 41.8766 37.9658C41.3798 37.9658 40.9766 38.369 40.9766 38.8659C40.9766 40.4473 42.2637 41.7353 43.846 41.7353H44.8982V43.4869C44.8982 43.9846 45.3005 44.387 45.7983 44.387C46.296 44.387 46.6984 43.9846 46.6984 43.4869V41.7353H47.7514C49.3329 41.7353 50.62 40.4482 50.62 38.8659V35.8362C50.6191 34.2548 49.3329 32.9686 47.7514 32.9686Z" fill="white"/>
<path d="M81.0039 53.0079C77.9652 47.9666 73.1723 45.5445 68.5657 46.5138C67.6846 43.4698 67.2795 39.9748 66.8592 36.2854C65.753 26.5753 64.6108 16.5358 54.1096 14.5494C50.8648 14.1677 49.8648 13.1803 49.8675 12.8635C49.8702 12.6511 50.5165 11.9706 52.5569 11.7681C56.7702 10.9707 57.8521 7.31454 58.3534 3.84294C58.411 3.4424 58.195 3.05177 57.8242 2.88975C50.6488 -0.250618 43.3761 -0.251518 36.2025 2.87985C35.8227 3.03287 35.5878 3.428 35.6481 3.84384C36.1521 7.31454 37.2349 10.9707 41.5265 11.7798C43.4878 11.9706 44.134 12.6511 44.1367 12.8644C44.1394 13.1812 43.1403 14.1686 39.8334 14.5593C29.3943 16.5358 28.2503 26.5762 27.145 36.2863C26.5798 41.2448 26.0289 45.9315 24.3206 49.4751C22.8715 48.8693 21.3413 48.413 19.6015 48.5714L17.6006 48.7487V46.9783C17.6006 45.3203 16.2514 43.9711 14.5934 43.9711H3.45858C1.80063 43.9711 0.451416 45.3203 0.451416 46.9783V76.3676C0.451416 78.0256 1.80063 79.3748 3.45858 79.3748H14.5934C16.2514 79.3748 17.6006 78.0256 17.6006 76.3676V76.058L22.813 75.5954C25.6887 75.3433 28.5843 76.4162 31.3844 77.4567C33.9244 78.4009 36.5418 79.3739 39.1854 79.3739C39.4869 79.3739 39.7893 79.3613 40.0918 79.3343C45.7821 78.8365 59.0987 70.4937 74.5179 60.8314C76.2893 59.7216 78.0796 58.6001 79.8761 57.4786C81.408 56.5245 81.9139 54.5191 81.0039 53.0079ZM28.9344 36.4897C30.0136 27.0109 31.0334 18.0579 40.1071 16.3369C43.7758 15.9058 45.9549 14.6007 45.9378 12.8464C45.9261 11.6628 44.8073 10.2911 41.783 9.99947C39.0468 9.48103 38.0747 7.43065 37.5391 4.26957C43.8226 1.69625 50.1843 1.69625 56.4678 4.26957C55.9322 7.43065 54.9655 9.48103 52.304 9.98867C49.1996 10.2911 48.0808 11.6628 48.0691 12.8464C48.0511 14.6007 50.2311 15.9058 53.8368 16.3279C62.9726 18.0579 63.9924 27.0109 65.0716 36.4888C65.483 40.1053 65.9141 43.828 66.8475 47.0476C66.726 47.0971 66.6027 47.1358 66.482 47.1898L52.6262 53.6308C51.1177 51.2393 48.6326 48.6074 44.1016 49.3797L31.442 51.6776C29.4753 51.8468 27.7661 51.052 25.9614 50.2114C27.7904 46.3743 28.3799 41.3627 28.9344 36.4897ZM15.8013 76.3685C15.8013 77.0337 15.2595 77.5755 14.5943 77.5755H3.45858C2.79252 77.5755 2.25157 77.0337 2.25157 76.3685V46.9792C2.25157 46.314 2.79342 45.7722 3.45858 45.7722H14.5934C15.2595 45.7722 15.8004 46.314 15.8004 46.9792V48.9098V76.22L15.8013 76.3685ZM78.9238 55.953C77.1255 57.0745 75.3352 58.1969 73.5621 59.3075C58.9736 68.4487 45.1934 77.0832 39.9342 77.5431C37.3834 77.7709 34.7759 76.7988 32.0118 75.7718C29.343 74.779 26.5942 73.7583 23.7004 73.7583C23.3539 73.7583 23.0047 73.7736 22.6536 73.8042L17.6006 74.2524V50.5561L19.7608 50.3644C21.6672 50.1952 23.3602 50.9836 25.1523 51.8198C27.1072 52.7316 29.1324 53.6686 31.676 53.4606L44.4148 51.1528C48.2186 50.503 50.1222 52.8522 51.4903 55.2365L51.9008 55.953L52.6748 57.2995C46.1115 61.0069 40.4725 63.3012 35.46 64.303C34.9721 64.4002 34.6562 64.8745 34.7543 65.3624C34.8398 65.7908 35.216 66.086 35.6355 66.086C35.694 66.086 35.7534 66.0806 35.8128 66.068C41.2178 64.987 47.2825 62.4839 54.3535 58.4147C54.7837 58.1672 54.9322 57.6163 54.6847 57.1861L53.5398 55.1906L67.23 48.8261C71.5342 46.8928 76.4522 48.9431 79.4612 53.9359C79.868 54.61 79.6259 55.5146 78.9238 55.953Z" fill="white"/>
</svg>
