<svg width="18" height="18" viewBox="0 0 18 18" fill="none" xmlns="http://www.w3.org/2000/svg">
<path d="M8.99999 4.19175C8.08602 4.19175 7.19255 4.44749 6.43263 4.9266C5.67269 5.40572 5.08038 6.08672 4.73061 6.88345C4.38084 7.68022 4.28933 8.55697 4.46764 9.40277C4.64594 10.2486 5.08607 11.0256 5.73235 11.6354C6.37863 12.2451 7.20202 12.6604 8.09842 12.8286C8.99492 12.9969 9.924 12.9105 10.7684 12.5805C11.6129 12.2505 12.3346 11.6916 12.8423 10.9746C13.3502 10.2575 13.6212 9.41447 13.6212 8.55208C13.6226 7.97906 13.5042 7.41147 13.2724 6.88185C13.0407 6.35215 12.7004 5.87091 12.271 5.46574C11.8416 5.06056 11.3315 4.73944 10.7702 4.5208C10.2088 4.30218 9.60728 4.19035 8.99999 4.19175ZM8.99999 11.3916C8.40477 11.3916 7.82295 11.2251 7.32803 10.913C6.83323 10.6011 6.44746 10.1576 6.2197 9.63876C5.99192 9.11988 5.93233 8.54899 6.04844 7.9981C6.16456 7.44732 6.45117 6.9413 6.872 6.54419C7.29287 6.14712 7.82915 5.87668 8.41288 5.76712C8.99673 5.65756 9.60176 5.71378 10.1517 5.9287C10.7016 6.14362 11.1716 6.50761 11.5022 6.97448C11.8329 7.44147 12.0094 7.99044 12.0094 8.55208C12.0094 9.30514 11.6923 10.0275 11.128 10.56C10.5636 11.0925 9.7981 11.3916 8.99999 11.3916ZM14.8948 4.01095C14.8948 4.2213 14.8288 4.42692 14.7049 4.6018C14.581 4.77669 14.405 4.91301 14.199 4.9935C13.9931 5.07399 13.7664 5.09505 13.5478 5.05402C13.3291 5.01298 13.1284 4.91169 12.9707 4.76296C12.8131 4.61423 12.7057 4.42474 12.6622 4.21844C12.6187 4.01213 12.641 3.79831 12.7263 3.60397C12.8117 3.40965 12.9562 3.24355 13.1415 3.1267C13.3269 3.00983 13.5447 2.94745 13.7677 2.94745C14.0666 2.94745 14.3533 3.0595 14.5647 3.25895C14.7761 3.45839 14.8948 3.7289 14.8948 4.01095ZM17.9493 5.07445C17.9821 3.75234 17.4594 2.47165 16.4953 1.51173C15.4834 0.590414 14.1254 0.08554 12.7195 0.107916C11.2542 0.0441061 6.74577 0.0441061 5.28053 0.107916C3.87976 0.0792973 2.52336 0.572143 1.5047 1.47983C0.540609 2.43974 0.0179437 3.72044 0.0507201 5.04254C-0.0169067 6.42508 -0.0169067 10.6791 0.0507201 12.0616C0.0179437 13.3838 0.540609 14.6644 1.5047 15.6243C2.52336 16.532 3.87976 17.0249 5.28053 16.9962C6.76831 17.0813 11.2317 17.0813 12.7195 16.9962C14.1207 17.0272 15.478 16.534 16.4953 15.6243C17.4594 14.6644 17.9821 13.3838 17.9493 12.0616C18.0169 10.6791 18.0169 6.42508 17.9493 5.04254V5.07445ZM16.0332 13.5824C15.8801 13.9483 15.6492 14.2804 15.3544 14.5585C15.0597 14.8366 14.7077 15.0545 14.32 15.1989C12.5702 15.5328 10.7815 15.6472 8.99999 15.5393C7.22231 15.6473 5.43721 15.5329 3.6913 15.1989C3.30365 15.0545 2.95155 14.8366 2.65686 14.5585C2.36215 14.2804 2.13112 13.9483 1.97809 13.5824C1.5047 12.4551 1.60614 9.79637 1.60614 8.56271C1.60614 7.32905 1.5047 4.65969 1.97809 3.54301C2.12681 3.17363 2.35619 2.83788 2.65133 2.55756C2.94648 2.27724 3.3008 2.0586 3.6913 1.91586C5.43721 1.5819 7.22231 1.46747 8.99999 1.57554C10.7815 1.46765 12.5702 1.58208 14.32 1.91586C14.7077 2.06026 15.0597 2.27825 15.3544 2.55632C15.6492 2.83438 15.8801 3.16661 16.0332 3.53238C16.5066 4.65969 16.3939 7.31842 16.3939 8.55208C16.3939 9.78573 16.5066 12.4551 16.0332 13.5718V13.5824Z" fill="white"/>
</svg>
