<svg width="161" height="96" viewBox="0 0 161 96" fill="none" xmlns="http://www.w3.org/2000/svg">
<g clip-path="url(#clip0_1487_26865)">
<g filter="url(#filter0_d_1487_26865)">
<path d="M80.5 92C123.489 92 158.339 90.3583 158.339 88.3333C158.339 86.3082 123.489 84.6666 80.5 84.6666C37.5108 84.6666 2.66113 86.3082 2.66113 88.3333C2.66113 90.3583 37.5108 92 80.5 92Z" fill="#CDEFFF"/>
</g>
<path d="M132.393 13.3334H33.2644C31.0599 13.3334 29.2727 15.1242 29.2727 17.3334V80C29.2727 82.2092 31.0599 84 33.2644 84H132.393C134.597 84 136.384 82.2092 136.384 80V17.3334C136.384 15.1242 134.597 13.3334 132.393 13.3334Z" stroke="#003554" stroke-width="4"/>
<path d="M31.0204 20.1965L80.0961 57.1928C81.5172 58.2641 83.4745 58.2641 84.8955 57.1928L133.971 20.1965C137.034 17.8873 135.405 13 131.572 13H33.4202C29.587 13 27.9573 17.8873 31.0204 20.1965Z" stroke="#003554" stroke-width="4"/>
<path d="M56.8822 64.6667C58.5357 64.6667 59.876 64.0697 59.876 63.3333C59.876 62.597 58.5357 62 56.8822 62C55.2288 62 53.8884 62.597 53.8884 63.3333C53.8884 64.0697 55.2288 64.6667 56.8822 64.6667Z" fill="#CDEFFF"/>
<path d="M52.59 59.6667C52.5722 59.6667 52.5579 59.6523 52.558 59.6345C52.5625 59.1639 52.6656 58.6985 52.8617 58.2635C53.0623 57.8187 53.3563 57.4144 53.727 57.0739C54.0977 56.7335 54.5377 56.4634 55.022 56.2791C55.5064 56.0949 56.0254 56 56.5496 56C57.0738 56 57.5928 56.0949 58.0772 56.2791C58.5615 56.4634 59.0015 56.7335 59.3721 57.0739C59.7428 57.4144 60.0368 57.8187 60.2375 58.2635C60.4336 58.6985 60.5367 59.1639 60.5412 59.6345C60.5413 59.6523 60.527 59.6667 60.5092 59.6667C60.4914 59.6667 60.4771 59.6523 60.4769 59.6345C60.4724 59.1717 60.371 58.7139 60.1781 58.2861C59.9808 57.8484 59.6914 57.4507 59.3267 57.1157C58.9621 56.7807 58.5291 56.5149 58.0525 56.3337C57.5761 56.1523 57.0653 56.059 56.5496 56.059C56.0339 56.059 55.5231 56.1523 55.0466 56.3337C54.5701 56.5149 54.1371 56.7807 53.7725 57.1157C53.4078 57.4507 53.1184 57.8484 52.9211 58.2861C52.7282 58.7139 52.6268 59.1717 52.6223 59.6345C52.6221 59.6523 52.6078 59.6667 52.59 59.6667Z" fill="#003554"/>
<mask id="mask0_1487_26865" style="mask-type:luminance" maskUnits="userSpaceOnUse" x="50" y="54" width="13" height="8">
<path d="M61.2066 55.3334H51.8926V60.6667H61.2066V55.3334Z" fill="white" stroke="#003554" stroke-width="2"/>
<path d="M52.59 59.6667C52.5722 59.6667 52.5579 59.6523 52.558 59.6345C52.5625 59.1639 52.6656 58.6985 52.8617 58.2635C53.0623 57.8187 53.3563 57.4144 53.727 57.0739C54.0977 56.7335 54.5377 56.4634 55.022 56.2791C55.5064 56.0949 56.0254 56 56.5496 56C57.0738 56 57.5928 56.0949 58.0772 56.2791C58.5615 56.4634 59.0015 56.7335 59.3721 57.0739C59.7428 57.4144 60.0368 57.8187 60.2375 58.2635C60.4336 58.6985 60.5367 59.1639 60.5412 59.6345C60.5413 59.6523 60.527 59.6667 60.5092 59.6667C60.4914 59.6667 60.4771 59.6523 60.4769 59.6345C60.4724 59.1717 60.371 58.7139 60.1781 58.2861C59.9808 57.8484 59.6914 57.4507 59.3267 57.1157C58.9621 56.7807 58.5291 56.5149 58.0525 56.3337C57.5761 56.1523 57.0653 56.059 56.5496 56.059C56.0339 56.059 55.5231 56.1523 55.0466 56.3337C54.5701 56.5149 54.1371 56.7807 53.7725 57.1157C53.4078 57.4507 53.1184 57.8484 52.9211 58.2861C52.7282 58.7139 52.6268 59.1717 52.6223 59.6345C52.6221 59.6523 52.6078 59.6667 52.59 59.6667Z" stroke="#003554" stroke-width="2"/>
</mask>
<g mask="url(#mask0_1487_26865)">
<path d="M52.59 59.6667C52.5722 59.6667 52.5579 59.6523 52.558 59.6345C52.5625 59.1639 52.6656 58.6985 52.8617 58.2635C53.0623 57.8187 53.3563 57.4144 53.727 57.0739C54.0977 56.7335 54.5377 56.4634 55.022 56.2791C55.5064 56.0949 56.0254 56 56.5496 56C57.0738 56 57.5928 56.0949 58.0772 56.2791C58.5615 56.4634 59.0015 56.7335 59.3721 57.0739C59.7428 57.4144 60.0368 57.8187 60.2375 58.2635C60.4336 58.6985 60.5367 59.1639 60.5412 59.6345C60.5413 59.6523 60.527 59.6667 60.5092 59.6667C60.4914 59.6667 60.4771 59.6523 60.4769 59.6345C60.4724 59.1717 60.371 58.7139 60.1781 58.2861C59.9808 57.8484 59.6914 57.4507 59.3267 57.1157C58.9621 56.7807 58.5291 56.5149 58.0525 56.3337C57.5761 56.1523 57.0653 56.059 56.5496 56.059C56.0339 56.059 55.5231 56.1523 55.0466 56.3337C54.5701 56.5149 54.1371 56.7807 53.7725 57.1157C53.4078 57.4507 53.1184 57.8484 52.9211 58.2861C52.7282 58.7139 52.6268 59.1717 52.6223 59.6345C52.6221 59.6523 52.6078 59.6667 52.59 59.6667Z" stroke="#003554" stroke-width="2"/>
</g>
<path d="M104.118 66.6667C105.771 66.6667 107.112 66.0697 107.112 65.3333C107.112 64.597 105.771 64 104.118 64C102.464 64 101.124 64.597 101.124 65.3333C101.124 66.0697 102.464 66.6667 104.118 66.6667Z" fill="#CDEFFF"/>
<path d="M99.8253 61.6667C99.808 61.6667 99.7933 61.6523 99.7933 61.6345C99.798 61.1639 99.9011 60.6985 100.097 60.2635C100.298 59.8187 100.592 59.4144 100.962 59.0739C101.333 58.7335 101.773 58.4634 102.258 58.2791C102.742 58.0949 103.261 58 103.785 58C104.309 58 104.828 58.0949 105.313 58.2791C105.797 58.4634 106.237 58.7335 106.608 59.0739C106.978 59.4144 107.273 59.8187 107.473 60.2635C107.669 60.6985 107.772 61.1639 107.777 61.6345C107.777 61.6523 107.762 61.6667 107.745 61.6667C107.727 61.6667 107.712 61.6523 107.712 61.6345C107.708 61.1717 107.606 60.7139 107.414 60.2861C107.216 59.8484 106.927 59.4507 106.562 59.1157C106.197 58.7807 105.764 58.5149 105.288 58.3337C104.812 58.1523 104.301 58.059 103.785 58.059C103.269 58.059 102.759 58.1523 102.282 58.3337C101.806 58.5149 101.373 58.7807 101.008 59.1157C100.643 59.4507 100.354 59.8484 100.157 60.2861C99.9637 60.7139 99.8625 61.1717 99.8579 61.6345C99.8579 61.6523 99.8432 61.6667 99.8253 61.6667Z" fill="#003554"/>
<mask id="mask1_1487_26865" style="mask-type:luminance" maskUnits="userSpaceOnUse" x="98" y="56" width="12" height="8">
<path d="M108.442 57.3334H99.1281V62.6667H108.442V57.3334Z" fill="white" stroke="#003554" stroke-width="2"/>
<path d="M99.8253 61.6667C99.808 61.6667 99.7933 61.6523 99.7933 61.6345C99.798 61.1639 99.9011 60.6985 100.097 60.2635C100.298 59.8187 100.592 59.4144 100.962 59.0739C101.333 58.7335 101.773 58.4634 102.258 58.2791C102.742 58.0949 103.261 58 103.785 58C104.309 58 104.828 58.0949 105.313 58.2791C105.797 58.4634 106.237 58.7335 106.608 59.0739C106.978 59.4144 107.273 59.8187 107.473 60.2635C107.669 60.6985 107.772 61.1639 107.777 61.6345C107.777 61.6523 107.762 61.6667 107.745 61.6667C107.727 61.6667 107.712 61.6523 107.712 61.6345C107.708 61.1717 107.606 60.7139 107.414 60.2861C107.216 59.8484 106.927 59.4507 106.562 59.1157C106.197 58.7807 105.764 58.5149 105.288 58.3337C104.812 58.1523 104.301 58.059 103.785 58.059C103.269 58.059 102.759 58.1523 102.282 58.3337C101.806 58.5149 101.373 58.7807 101.008 59.1157C100.643 59.4507 100.354 59.8484 100.157 60.2861C99.9637 60.7139 99.8625 61.1717 99.8579 61.6345C99.8579 61.6523 99.8432 61.6667 99.8253 61.6667Z" stroke="#003554" stroke-width="2"/>
</mask>
<g mask="url(#mask1_1487_26865)">
<path d="M99.8253 61.6667C99.808 61.6667 99.7933 61.6523 99.7933 61.6345C99.798 61.1639 99.9011 60.6985 100.097 60.2635C100.298 59.8187 100.592 59.4144 100.962 59.0739C101.333 58.7335 101.773 58.4634 102.258 58.2791C102.742 58.0949 103.261 58 103.785 58C104.309 58 104.828 58.0949 105.313 58.2791C105.797 58.4634 106.237 58.7335 106.608 59.0739C106.978 59.4144 107.273 59.8187 107.473 60.2635C107.669 60.6985 107.772 61.1639 107.777 61.6345C107.777 61.6523 107.762 61.6667 107.745 61.6667C107.727 61.6667 107.712 61.6523 107.712 61.6345C107.708 61.1717 107.606 60.7139 107.414 60.2861C107.216 59.8484 106.927 59.4507 106.562 59.1157C106.197 58.7807 105.764 58.5149 105.288 58.3337C104.812 58.1523 104.301 58.059 103.785 58.059C103.269 58.059 102.759 58.1523 102.282 58.3337C101.806 58.5149 101.373 58.7807 101.008 59.1157C100.643 59.4507 100.354 59.8484 100.157 60.2861C99.9637 60.7139 99.8625 61.1717 99.8579 61.6345C99.8579 61.6523 99.8432 61.6667 99.8253 61.6667Z" stroke="#003554" stroke-width="2"/>
</g>
<path d="M88.4835 66C88.4835 67.5913 87.8176 69.1173 86.6327 70.2427C85.4471 71.368 83.8398 72 82.1633 72C80.4867 72 78.8794 71.368 77.6939 70.2427C76.509 69.1173 75.843 67.5913 75.843 66H82.1633H88.4835Z" fill="#134563" fill-opacity="0.67"/>
<mask id="mask2_1487_26865" style="mask-type:luminance" maskUnits="userSpaceOnUse" x="74" y="64" width="17" height="10">
<path d="M89.1488 65.3334H75.1777V72.6667H89.1488V65.3334Z" fill="white" stroke="#003554" stroke-width="2"/>
<path d="M88.4835 66C88.4835 67.5913 87.8176 69.1173 86.6327 70.2427C85.4471 71.368 83.8398 72 82.1633 72C80.4867 72 78.8794 71.368 77.6939 70.2427C76.509 69.1173 75.843 67.5913 75.843 66H82.1633H88.4835Z" stroke="#003554" stroke-width="2"/>
</mask>
<g mask="url(#mask2_1487_26865)">
<path d="M88.4835 66C88.4835 67.5913 87.8176 69.1173 86.6327 70.2427C85.4471 71.368 83.8398 72 82.1633 72C80.4867 72 78.8794 71.368 77.6939 70.2427C76.509 69.1173 75.843 67.5913 75.843 66H82.1633H88.4835Z" stroke="#003554" stroke-width="2"/>
</g>
</g>
<defs>
<filter id="filter0_d_1487_26865" x="-1.33887" y="82.6666" width="163.678" height="15.3334" filterUnits="userSpaceOnUse" color-interpolation-filters="sRGB">
<feFlood flood-opacity="0" result="BackgroundImageFix"/>
<feColorMatrix in="SourceAlpha" type="matrix" values="0 0 0 0 0 0 0 0 0 0 0 0 0 0 0 0 0 0 127 0" result="hardAlpha"/>
<feOffset dy="2"/>
<feGaussianBlur stdDeviation="2"/>
<feComposite in2="hardAlpha" operator="out"/>
<feColorMatrix type="matrix" values="0 0 0 0 0 0 0 0 0 0 0 0 0 0 0 0 0 0 0.06 0"/>
<feBlend mode="normal" in2="BackgroundImageFix" result="effect1_dropShadow_1487_26865"/>
<feBlend mode="normal" in="SourceGraphic" in2="effect1_dropShadow_1487_26865" result="shape"/>
</filter>
<clipPath id="clip0_1487_26865">
<rect width="161" height="96" fill="white"/>
</clipPath>
</defs>
</svg>
