<svg width="15" height="15" viewBox="0 0 15 15" fill="none" xmlns="http://www.w3.org/2000/svg">
<g clip-path="url(#clip0_1287_10804)">
<path d="M4.23994 4.56396H1.42942C1.30468 4.56396 1.20361 4.66508 1.20361 4.78977V13.8188C1.20361 13.9435 1.30468 14.0446 1.42942 14.0446H4.23994C4.36468 14.0446 4.46575 13.9435 4.46575 13.8188V4.78977C4.46575 4.66508 4.36468 4.56396 4.23994 4.56396Z" fill="white"/>
<path d="M2.83555 0.0756836C1.81292 0.0756836 0.980957 0.906742 0.980957 1.92824C0.980957 2.9502 1.81292 3.78157 2.83555 3.78157C3.85737 3.78157 4.68865 2.95015 4.68865 1.92824C4.6887 0.906742 3.85737 0.0756836 2.83555 0.0756836Z" fill="white"/>
<path d="M11.3884 4.33936C10.2596 4.33936 9.42518 4.82461 8.91906 5.37599V4.78957C8.91906 4.66488 8.81799 4.56376 8.69325 4.56376H6.00169C5.87695 4.56376 5.77588 4.66488 5.77588 4.78957V13.8186C5.77588 13.9433 5.87695 14.0444 6.00169 14.0444H8.80607C8.9308 14.0444 9.03187 13.9433 9.03187 13.8186V9.35131C9.03187 7.84595 9.44076 7.25948 10.4901 7.25948C11.633 7.25948 11.7238 8.19965 11.7238 9.42876V13.8186C11.7238 13.9434 11.8249 14.0444 11.9496 14.0444H14.755C14.8798 14.0444 14.9808 13.9434 14.9808 13.8186V8.86605C14.9808 6.62763 14.554 4.33936 11.3884 4.33936Z" fill="white"/>
</g>
<defs>
<clipPath id="clip0_1287_10804">
<rect width="14" height="14" fill="white" transform="translate(0.980957 0.0600586)"/>
</clipPath>
</defs>
</svg>
