<svg width="108" height="116" viewBox="0 0 108 116" fill="none" xmlns="http://www.w3.org/2000/svg">
<path d="M10.5 96.5002C11.5 91.5002 11.04 96.0502 11.04 96.0502C10.66 89.7802 23.78 82.9202 33.5 77.5002C34.47 75.6202 34.41 73.2702 33.5 70.8902C21.14 54.5802 19.58 27.0602 33.5 16.0202C47.5 2.5002 82.75 10.5002 70.26 50.8402C67.87 55.8102 66.95 61.2602 68.5 67.5002C82.07 77.2602 94.8 84.3002 100.5 94.5002C43.95 124.16 11.5 110.5 10.5 96.5002Z" fill="#003554" stroke="#003554" stroke-miterlimit="10"/>
<path d="M80.7941 35.6111C80.7941 53.8182 65.1402 68.7222 45.6471 68.7222C26.1539 68.7222 10.5 53.8182 10.5 35.6111C10.5 17.404 26.1539 2.5 45.6471 2.5C65.1402 2.5 80.7941 17.404 80.7941 35.6111Z" stroke="#003554" stroke-width="3"/>
<line x1="45.5183" y1="0.150879" x2="45.5183" y2="63.8849" stroke="#003554" stroke-width="3"/>
<line x1="11.4431" y1="31.3145" x2="79.851" y2="31.3145" stroke="#003554" stroke-width="3"/>
</svg>
