<svg width="32" height="24" viewBox="0 0 32 24" fill="none" xmlns="http://www.w3.org/2000/svg">
<path fill-rule="evenodd" clip-rule="evenodd" d="M7.543 6.29037C7.12808 5.87544 6.45533 5.87544 6.0404 6.29037L1.08207 11.2487C0.667142 11.6637 0.667142 12.3363 1.08207 12.7513L6.0404 17.7096C6.45533 18.1245 7.12808 18.1245 7.543 17.7096C7.95793 17.2946 7.95793 16.622 7.543 16.2071L3.33597 12L7.543 7.79297C7.95793 7.37804 7.95793 6.70529 7.543 6.29037ZM19.6771 2.4375C16.0241 2.4375 12.8477 4.54618 11.2819 7.64488C11.0173 8.16861 10.3781 8.37865 9.85441 8.11398C9.33067 7.84934 9.12065 7.21022 9.38529 6.68649C11.2937 2.90986 15.1812 0.3125 19.6771 0.3125C26.0701 0.3125 31.2295 5.55805 31.2295 12C31.2295 13.0764 31.0854 14.1203 30.815 15.1127C30.6607 15.6788 30.0766 16.0127 29.5105 15.8584C28.9444 15.7042 28.6105 15.1202 28.7648 14.554C28.9859 13.7422 29.1045 12.886 29.1045 12C29.1045 6.7059 24.8709 2.4375 19.6771 2.4375ZM9.85441 15.8861C10.3781 15.6214 11.0173 15.8314 11.2819 16.3551C12.8477 19.4538 16.0241 21.5625 19.6771 21.5625C21.7755 21.5625 23.7119 20.8683 25.2791 19.6919C25.7484 19.3396 26.4144 19.4345 26.7667 19.9037C27.1189 20.3731 27.0241 21.039 26.5548 21.3914C24.6342 22.8331 22.2533 23.6875 19.6771 23.6875C15.1812 23.6875 11.2937 21.0902 9.38529 17.3135C9.12065 16.7897 9.33067 16.1507 9.85441 15.8861Z" fill="black"/>
</svg>
