<svg width="367" height="76" viewBox="0 0 367 76" fill="none" xmlns="http://www.w3.org/2000/svg">
<path d="M6 24.5929L6 42.5929" stroke="white" stroke-opacity="0.94" stroke-linecap="round"/>
<path d="M42 24.5929L42 42.5929" stroke="white" stroke-opacity="0.94" stroke-linecap="round"/>
<path d="M78 24.5929L78 42.5929" stroke="white" stroke-width="4" stroke-linecap="round"/>
<path d="M114 24.5929L114 42.5929" stroke="white" stroke-opacity="0.94" stroke-linecap="round"/>
<path d="M150 24.5929L150 42.5929" stroke="white" stroke-opacity="0.94" stroke-linecap="round"/>
<path d="M186 24.5929L186 42.5929" stroke="white" stroke-opacity="0.94" stroke-linecap="round"/>
<path d="M222 24.5929L222 42.5929" stroke="white" stroke-opacity="0.94" stroke-width="5" stroke-linecap="round"/>
<path d="M258 24.5929L258 42.5929" stroke="white" stroke-opacity="0.94" stroke-linecap="round"/>
<path d="M294 24.5929L294 42.5929" stroke="white" stroke-width="4" stroke-linecap="round"/>
<path d="M330 24.5929L330 42.5929" stroke="white" stroke-opacity="0.94" stroke-linecap="round"/>
<path d="M366 24.5929L366 42.5929" stroke="white" stroke-opacity="0.94" stroke-linecap="round"/>
<path d="M221.872 8.67735L226.984 2.20695L216.813 2.1666L221.872 8.67735Z" fill="white"/>
<path d="M115.171 71.8V72.694H110.515V71.8H112.339V66.154C112.339 65.974 112.345 65.788 112.357 65.596L110.893 66.838C110.837 66.882 110.781 66.91 110.725 66.922C110.669 66.934 110.615 66.936 110.563 66.928C110.515 66.92 110.471 66.904 110.431 66.88C110.395 66.852 110.365 66.824 110.341 66.796L109.975 66.286L112.555 64.06H113.509V71.8H115.171ZM118.238 67.294C118.678 67.202 119.076 67.156 119.432 67.156C119.88 67.156 120.276 67.224 120.62 67.36C120.964 67.492 121.252 67.676 121.484 67.912C121.72 68.144 121.896 68.42 122.012 68.74C122.132 69.056 122.192 69.4 122.192 69.772C122.192 70.228 122.112 70.642 121.952 71.014C121.792 71.386 121.572 71.704 121.292 71.968C121.012 72.232 120.68 72.436 120.296 72.58C119.916 72.72 119.506 72.79 119.066 72.79C118.806 72.79 118.558 72.764 118.322 72.712C118.09 72.66 117.872 72.592 117.668 72.508C117.464 72.42 117.274 72.32 117.098 72.208C116.926 72.096 116.772 71.978 116.636 71.854L116.996 71.35C117.072 71.238 117.174 71.182 117.302 71.182C117.386 71.182 117.478 71.214 117.578 71.278C117.682 71.338 117.804 71.406 117.944 71.482C118.084 71.558 118.25 71.628 118.442 71.692C118.634 71.752 118.862 71.782 119.126 71.782C119.418 71.782 119.68 71.736 119.912 71.644C120.148 71.548 120.346 71.414 120.506 71.242C120.67 71.07 120.794 70.864 120.878 70.624C120.966 70.384 121.01 70.118 121.01 69.826C121.01 69.566 120.972 69.332 120.896 69.124C120.82 68.916 120.706 68.738 120.554 68.59C120.402 68.442 120.212 68.33 119.984 68.254C119.756 68.174 119.49 68.134 119.186 68.134C118.762 68.134 118.31 68.21 117.83 68.362L117.092 68.146L117.794 64.078H121.922V64.588C121.922 64.756 121.868 64.894 121.76 65.002C121.656 65.106 121.48 65.158 121.232 65.158H118.61L118.238 67.294Z" fill="white"/>
<path d="M141.783 66.424C141.843 66.024 141.955 65.672 142.119 65.368C142.283 65.064 142.489 64.81 142.737 64.606C142.985 64.398 143.269 64.242 143.589 64.138C143.913 64.034 144.261 63.982 144.633 63.982C145.005 63.982 145.347 64.036 145.659 64.144C145.971 64.248 146.237 64.398 146.457 64.594C146.681 64.786 146.855 65.018 146.979 65.29C147.103 65.562 147.165 65.862 147.165 66.19C147.165 66.466 147.131 66.71 147.063 66.922C146.995 67.134 146.897 67.32 146.769 67.48C146.645 67.64 146.493 67.776 146.313 67.888C146.133 67.996 145.931 68.086 145.707 68.158C146.255 68.31 146.667 68.558 146.943 68.902C147.219 69.242 147.357 69.674 147.357 70.198C147.357 70.602 147.281 70.966 147.129 71.29C146.977 71.61 146.769 71.882 146.505 72.106C146.241 72.326 145.933 72.496 145.581 72.616C145.233 72.732 144.861 72.79 144.465 72.79C144.013 72.79 143.625 72.736 143.301 72.628C142.977 72.516 142.701 72.362 142.473 72.166C142.245 71.966 142.055 71.728 141.903 71.452C141.755 71.172 141.629 70.866 141.525 70.534L142.035 70.318C142.167 70.262 142.295 70.246 142.419 70.27C142.543 70.294 142.633 70.364 142.689 70.48C142.749 70.6 142.817 70.736 142.893 70.888C142.973 71.036 143.079 71.178 143.211 71.314C143.343 71.446 143.507 71.558 143.703 71.65C143.903 71.742 144.153 71.788 144.453 71.788C144.741 71.788 144.993 71.742 145.209 71.65C145.425 71.554 145.605 71.432 145.749 71.284C145.893 71.132 146.001 70.964 146.073 70.78C146.145 70.596 146.181 70.414 146.181 70.234C146.181 70.01 146.153 69.804 146.097 69.616C146.041 69.428 145.933 69.268 145.773 69.136C145.617 69 145.399 68.894 145.119 68.818C144.839 68.742 144.475 68.704 144.027 68.704V67.852C144.395 67.848 144.705 67.81 144.957 67.738C145.213 67.666 145.419 67.566 145.575 67.438C145.731 67.31 145.843 67.158 145.911 66.982C145.983 66.806 146.019 66.61 146.019 66.394C146.019 66.158 145.983 65.952 145.911 65.776C145.839 65.6 145.737 65.454 145.605 65.338C145.477 65.218 145.323 65.13 145.143 65.074C144.967 65.014 144.775 64.984 144.567 64.984C144.359 64.984 144.167 65.014 143.991 65.074C143.815 65.134 143.659 65.218 143.523 65.326C143.387 65.434 143.273 65.562 143.181 65.71C143.089 65.858 143.023 66.018 142.983 66.19C142.927 66.342 142.855 66.444 142.767 66.496C142.683 66.548 142.561 66.56 142.401 66.532L141.783 66.424ZM154.612 68.386C154.612 69.138 154.53 69.79 154.366 70.342C154.206 70.894 153.984 71.352 153.7 71.716C153.42 72.076 153.088 72.344 152.704 72.52C152.324 72.696 151.914 72.784 151.474 72.784C151.034 72.784 150.622 72.696 150.238 72.52C149.858 72.344 149.528 72.076 149.248 71.716C148.968 71.352 148.748 70.894 148.588 70.342C148.428 69.79 148.348 69.138 148.348 68.386C148.348 67.634 148.428 66.982 148.588 66.43C148.748 65.874 148.968 65.416 149.248 65.056C149.528 64.692 149.858 64.422 150.238 64.246C150.622 64.07 151.034 63.982 151.474 63.982C151.914 63.982 152.324 64.07 152.704 64.246C153.088 64.422 153.42 64.692 153.7 65.056C153.984 65.416 154.206 65.874 154.366 66.43C154.53 66.982 154.612 67.634 154.612 68.386ZM153.4 68.386C153.4 67.738 153.346 67.196 153.238 66.76C153.134 66.324 152.992 65.974 152.812 65.71C152.636 65.442 152.432 65.252 152.2 65.14C151.968 65.028 151.726 64.972 151.474 64.972C151.222 64.972 150.98 65.028 150.748 65.14C150.516 65.252 150.31 65.442 150.13 65.71C149.954 65.974 149.814 66.324 149.71 66.76C149.606 67.196 149.554 67.738 149.554 68.386C149.554 69.034 149.606 69.576 149.71 70.012C149.814 70.448 149.954 70.798 150.13 71.062C150.31 71.326 150.516 71.514 150.748 71.626C150.98 71.738 151.222 71.794 151.474 71.794C151.726 71.794 151.968 71.738 152.2 71.626C152.432 71.514 152.636 71.326 152.812 71.062C152.992 70.798 153.134 70.448 153.238 70.012C153.346 69.576 153.4 69.034 153.4 68.386Z" fill="white"/>
<path d="M6.17106 71.8V72.694H1.51506V71.8H3.33906V66.154C3.33906 65.974 3.34506 65.788 3.35706 65.596L1.89306 66.838C1.83706 66.882 1.78106 66.91 1.72506 66.922C1.66906 66.934 1.61506 66.936 1.56306 66.928C1.51506 66.92 1.47106 66.904 1.43106 66.88C1.39506 66.852 1.36506 66.824 1.34106 66.796L0.975063 66.286L3.55506 64.06H4.50906V71.8H6.17106ZM9.238 67.294C9.678 67.202 10.076 67.156 10.432 67.156C10.88 67.156 11.276 67.224 11.62 67.36C11.964 67.492 12.252 67.676 12.484 67.912C12.72 68.144 12.896 68.42 13.012 68.74C13.132 69.056 13.192 69.4 13.192 69.772C13.192 70.228 13.112 70.642 12.952 71.014C12.792 71.386 12.572 71.704 12.292 71.968C12.012 72.232 11.68 72.436 11.296 72.58C10.916 72.72 10.506 72.79 10.066 72.79C9.806 72.79 9.558 72.764 9.322 72.712C9.09 72.66 8.872 72.592 8.668 72.508C8.464 72.42 8.274 72.32 8.098 72.208C7.926 72.096 7.772 71.978 7.636 71.854L7.996 71.35C8.072 71.238 8.174 71.182 8.302 71.182C8.386 71.182 8.478 71.214 8.578 71.278C8.682 71.338 8.804 71.406 8.944 71.482C9.084 71.558 9.25 71.628 9.442 71.692C9.634 71.752 9.862 71.782 10.126 71.782C10.418 71.782 10.68 71.736 10.912 71.644C11.148 71.548 11.346 71.414 11.506 71.242C11.67 71.07 11.794 70.864 11.878 70.624C11.966 70.384 12.01 70.118 12.01 69.826C12.01 69.566 11.972 69.332 11.896 69.124C11.82 68.916 11.706 68.738 11.554 68.59C11.402 68.442 11.212 68.33 10.984 68.254C10.756 68.174 10.49 68.134 10.186 68.134C9.762 68.134 9.31 68.21 8.83 68.362L8.092 68.146L8.794 64.078H12.922V64.588C12.922 64.756 12.868 64.894 12.76 65.002C12.656 65.106 12.48 65.158 12.232 65.158H9.61L9.238 67.294Z" fill="white"/>
<path d="M32.7831 66.424C32.8431 66.024 32.9551 65.672 33.1191 65.368C33.2831 65.064 33.4891 64.81 33.7371 64.606C33.9851 64.398 34.2691 64.242 34.5891 64.138C34.9131 64.034 35.2611 63.982 35.6331 63.982C36.0051 63.982 36.3471 64.036 36.6591 64.144C36.9711 64.248 37.2371 64.398 37.4571 64.594C37.6811 64.786 37.8551 65.018 37.9791 65.29C38.1031 65.562 38.1651 65.862 38.1651 66.19C38.1651 66.466 38.1311 66.71 38.0631 66.922C37.9951 67.134 37.8971 67.32 37.7691 67.48C37.6451 67.64 37.4931 67.776 37.3131 67.888C37.1331 67.996 36.9311 68.086 36.7071 68.158C37.2551 68.31 37.6671 68.558 37.9431 68.902C38.2191 69.242 38.3571 69.674 38.3571 70.198C38.3571 70.602 38.2811 70.966 38.1291 71.29C37.9771 71.61 37.7691 71.882 37.5051 72.106C37.2411 72.326 36.9331 72.496 36.5811 72.616C36.2331 72.732 35.8611 72.79 35.4651 72.79C35.0131 72.79 34.6251 72.736 34.3011 72.628C33.9771 72.516 33.7011 72.362 33.4731 72.166C33.2451 71.966 33.0551 71.728 32.9031 71.452C32.7551 71.172 32.6291 70.866 32.5251 70.534L33.0351 70.318C33.1671 70.262 33.2951 70.246 33.4191 70.27C33.5431 70.294 33.6331 70.364 33.6891 70.48C33.7491 70.6 33.8171 70.736 33.8931 70.888C33.9731 71.036 34.0791 71.178 34.2111 71.314C34.3431 71.446 34.5071 71.558 34.7031 71.65C34.9031 71.742 35.1531 71.788 35.4531 71.788C35.7411 71.788 35.9931 71.742 36.2091 71.65C36.4251 71.554 36.6051 71.432 36.7491 71.284C36.8931 71.132 37.0011 70.964 37.0731 70.78C37.1451 70.596 37.1811 70.414 37.1811 70.234C37.1811 70.01 37.1531 69.804 37.0971 69.616C37.0411 69.428 36.9331 69.268 36.7731 69.136C36.6171 69 36.3991 68.894 36.1191 68.818C35.8391 68.742 35.4751 68.704 35.0271 68.704V67.852C35.3951 67.848 35.7051 67.81 35.9571 67.738C36.2131 67.666 36.4191 67.566 36.5751 67.438C36.7311 67.31 36.8431 67.158 36.9111 66.982C36.9831 66.806 37.0191 66.61 37.0191 66.394C37.0191 66.158 36.9831 65.952 36.9111 65.776C36.8391 65.6 36.7371 65.454 36.6051 65.338C36.4771 65.218 36.3231 65.13 36.1431 65.074C35.9671 65.014 35.7751 64.984 35.5671 64.984C35.3591 64.984 35.1671 65.014 34.9911 65.074C34.8151 65.134 34.6591 65.218 34.5231 65.326C34.3871 65.434 34.2731 65.562 34.1811 65.71C34.0891 65.858 34.0231 66.018 33.9831 66.19C33.9271 66.342 33.8551 66.444 33.7671 66.496C33.6831 66.548 33.5611 66.56 33.4011 66.532L32.7831 66.424ZM45.612 68.386C45.612 69.138 45.53 69.79 45.366 70.342C45.206 70.894 44.984 71.352 44.7 71.716C44.42 72.076 44.088 72.344 43.704 72.52C43.324 72.696 42.914 72.784 42.474 72.784C42.034 72.784 41.622 72.696 41.238 72.52C40.858 72.344 40.528 72.076 40.248 71.716C39.968 71.352 39.748 70.894 39.588 70.342C39.428 69.79 39.348 69.138 39.348 68.386C39.348 67.634 39.428 66.982 39.588 66.43C39.748 65.874 39.968 65.416 40.248 65.056C40.528 64.692 40.858 64.422 41.238 64.246C41.622 64.07 42.034 63.982 42.474 63.982C42.914 63.982 43.324 64.07 43.704 64.246C44.088 64.422 44.42 64.692 44.7 65.056C44.984 65.416 45.206 65.874 45.366 66.43C45.53 66.982 45.612 67.634 45.612 68.386ZM44.4 68.386C44.4 67.738 44.346 67.196 44.238 66.76C44.134 66.324 43.992 65.974 43.812 65.71C43.636 65.442 43.432 65.252 43.2 65.14C42.968 65.028 42.726 64.972 42.474 64.972C42.222 64.972 41.98 65.028 41.748 65.14C41.516 65.252 41.31 65.442 41.13 65.71C40.954 65.974 40.814 66.324 40.71 66.76C40.606 67.196 40.554 67.738 40.554 68.386C40.554 69.034 40.606 69.576 40.71 70.012C40.814 70.448 40.954 70.798 41.13 71.062C41.31 71.326 41.516 71.514 41.748 71.626C41.98 71.738 42.222 71.794 42.474 71.794C42.726 71.794 42.968 71.738 43.2 71.626C43.432 71.514 43.636 71.326 43.812 71.062C43.992 70.798 44.134 70.448 44.238 70.012C44.346 69.576 44.4 69.034 44.4 68.386Z" fill="white"/>
<path d="M181.395 69.55V66.19C181.395 66.074 181.397 65.952 181.401 65.824C181.409 65.692 181.423 65.556 181.443 65.416L178.425 69.55H181.395ZM183.669 69.55V70.228C183.669 70.296 183.647 70.354 183.603 70.402C183.559 70.45 183.497 70.474 183.417 70.474H182.421V72.694H181.395V70.474H177.615C177.527 70.474 177.453 70.45 177.393 70.402C177.333 70.35 177.293 70.286 177.273 70.21L177.153 69.61L181.317 64.072H182.421V69.55H183.669ZM186.238 67.294C186.678 67.202 187.076 67.156 187.432 67.156C187.88 67.156 188.276 67.224 188.62 67.36C188.964 67.492 189.252 67.676 189.484 67.912C189.72 68.144 189.896 68.42 190.012 68.74C190.132 69.056 190.192 69.4 190.192 69.772C190.192 70.228 190.112 70.642 189.952 71.014C189.792 71.386 189.572 71.704 189.292 71.968C189.012 72.232 188.68 72.436 188.296 72.58C187.916 72.72 187.506 72.79 187.066 72.79C186.806 72.79 186.558 72.764 186.322 72.712C186.09 72.66 185.872 72.592 185.668 72.508C185.464 72.42 185.274 72.32 185.098 72.208C184.926 72.096 184.772 71.978 184.636 71.854L184.996 71.35C185.072 71.238 185.174 71.182 185.302 71.182C185.386 71.182 185.478 71.214 185.578 71.278C185.682 71.338 185.804 71.406 185.944 71.482C186.084 71.558 186.25 71.628 186.442 71.692C186.634 71.752 186.862 71.782 187.126 71.782C187.418 71.782 187.68 71.736 187.912 71.644C188.148 71.548 188.346 71.414 188.506 71.242C188.67 71.07 188.794 70.864 188.878 70.624C188.966 70.384 189.01 70.118 189.01 69.826C189.01 69.566 188.972 69.332 188.896 69.124C188.82 68.916 188.706 68.738 188.554 68.59C188.402 68.442 188.212 68.33 187.984 68.254C187.756 68.174 187.49 68.134 187.186 68.134C186.762 68.134 186.31 68.21 185.83 68.362L185.092 68.146L185.794 64.078H189.922V64.588C189.922 64.756 189.868 64.894 189.76 65.002C189.656 65.106 189.48 65.158 189.232 65.158H186.61L186.238 67.294Z" fill="white"/>
<path d="M255.191 71.8V72.694H250.535V71.8H252.359V66.154C252.359 65.974 252.365 65.788 252.377 65.596L250.913 66.838C250.857 66.882 250.801 66.91 250.745 66.922C250.689 66.934 250.635 66.936 250.583 66.928C250.535 66.92 250.491 66.904 250.451 66.88C250.415 66.852 250.385 66.824 250.361 66.796L249.995 66.286L252.575 64.06H253.529V71.8H255.191ZM262.152 71.8V72.694H257.496V71.8H259.32V66.154C259.32 65.974 259.326 65.788 259.338 65.596L257.874 66.838C257.818 66.882 257.762 66.91 257.706 66.922C257.65 66.934 257.596 66.936 257.544 66.928C257.496 66.92 257.452 66.904 257.412 66.88C257.376 66.852 257.346 66.824 257.322 66.796L256.956 66.286L259.536 64.06H260.49V71.8H262.152ZM269.592 68.386C269.592 69.138 269.51 69.79 269.346 70.342C269.186 70.894 268.964 71.352 268.68 71.716C268.4 72.076 268.068 72.344 267.684 72.52C267.304 72.696 266.894 72.784 266.454 72.784C266.014 72.784 265.602 72.696 265.218 72.52C264.838 72.344 264.508 72.076 264.228 71.716C263.948 71.352 263.728 70.894 263.568 70.342C263.408 69.79 263.328 69.138 263.328 68.386C263.328 67.634 263.408 66.982 263.568 66.43C263.728 65.874 263.948 65.416 264.228 65.056C264.508 64.692 264.838 64.422 265.218 64.246C265.602 64.07 266.014 63.982 266.454 63.982C266.894 63.982 267.304 64.07 267.684 64.246C268.068 64.422 268.4 64.692 268.68 65.056C268.964 65.416 269.186 65.874 269.346 66.43C269.51 66.982 269.592 67.634 269.592 68.386ZM268.38 68.386C268.38 67.738 268.326 67.196 268.218 66.76C268.114 66.324 267.972 65.974 267.792 65.71C267.616 65.442 267.412 65.252 267.18 65.14C266.948 65.028 266.706 64.972 266.454 64.972C266.202 64.972 265.96 65.028 265.728 65.14C265.496 65.252 265.29 65.442 265.11 65.71C264.934 65.974 264.794 66.324 264.69 66.76C264.586 67.196 264.534 67.738 264.534 68.386C264.534 69.034 264.586 69.576 264.69 70.012C264.794 70.448 264.934 70.798 265.11 71.062C265.29 71.326 265.496 71.514 265.728 71.626C265.96 71.738 266.202 71.794 266.454 71.794C266.706 71.794 266.948 71.738 267.18 71.626C267.412 71.514 267.616 71.326 267.792 71.062C267.972 70.798 268.114 70.448 268.218 70.012C268.326 69.576 268.38 69.034 268.38 68.386Z" fill="white"/>
<path d="M293.191 71.8V72.694H288.535V71.8H290.359V66.154C290.359 65.974 290.365 65.788 290.377 65.596L288.913 66.838C288.857 66.882 288.801 66.91 288.745 66.922C288.689 66.934 288.635 66.936 288.583 66.928C288.535 66.92 288.491 66.904 288.451 66.88C288.415 66.852 288.385 66.824 288.361 66.796L287.995 66.286L290.575 64.06H291.529V71.8H293.191ZM299.936 71.584C300.064 71.584 300.164 71.622 300.236 71.698C300.308 71.77 300.344 71.866 300.344 71.986V72.694H294.56V72.292C294.56 72.212 294.576 72.128 294.608 72.04C294.64 71.948 294.694 71.866 294.77 71.794L297.494 69.064C297.722 68.836 297.928 68.616 298.112 68.404C298.296 68.192 298.452 67.982 298.58 67.774C298.708 67.562 298.806 67.346 298.874 67.126C298.946 66.906 298.982 66.674 298.982 66.43C298.982 66.19 298.944 65.98 298.868 65.8C298.792 65.616 298.688 65.464 298.556 65.344C298.424 65.224 298.268 65.134 298.088 65.074C297.908 65.014 297.714 64.984 297.506 64.984C297.298 64.984 297.106 65.014 296.93 65.074C296.758 65.134 296.604 65.218 296.468 65.326C296.332 65.434 296.218 65.562 296.126 65.71C296.034 65.858 295.968 66.018 295.928 66.19C295.872 66.342 295.8 66.444 295.712 66.496C295.628 66.548 295.504 66.56 295.34 66.532L294.728 66.424C294.784 66.024 294.894 65.672 295.058 65.368C295.222 65.064 295.428 64.81 295.676 64.606C295.924 64.398 296.208 64.242 296.528 64.138C296.852 64.034 297.2 63.982 297.572 63.982C297.948 63.982 298.294 64.038 298.61 64.15C298.93 64.258 299.206 64.416 299.438 64.624C299.67 64.832 299.852 65.086 299.984 65.386C300.116 65.682 300.182 66.018 300.182 66.394C300.182 66.714 300.134 67.012 300.038 67.288C299.946 67.56 299.818 67.82 299.654 68.068C299.494 68.316 299.306 68.558 299.09 68.794C298.878 69.026 298.652 69.262 298.412 69.502L296.228 71.734C296.396 71.69 296.564 71.654 296.732 71.626C296.904 71.598 297.066 71.584 297.218 71.584H299.936ZM303.218 67.294C303.658 67.202 304.056 67.156 304.412 67.156C304.86 67.156 305.256 67.224 305.6 67.36C305.944 67.492 306.232 67.676 306.464 67.912C306.7 68.144 306.876 68.42 306.992 68.74C307.112 69.056 307.172 69.4 307.172 69.772C307.172 70.228 307.092 70.642 306.932 71.014C306.772 71.386 306.552 71.704 306.272 71.968C305.992 72.232 305.66 72.436 305.276 72.58C304.896 72.72 304.486 72.79 304.046 72.79C303.786 72.79 303.538 72.764 303.302 72.712C303.07 72.66 302.852 72.592 302.648 72.508C302.444 72.42 302.254 72.32 302.078 72.208C301.906 72.096 301.752 71.978 301.616 71.854L301.976 71.35C302.052 71.238 302.154 71.182 302.282 71.182C302.366 71.182 302.458 71.214 302.558 71.278C302.662 71.338 302.784 71.406 302.924 71.482C303.064 71.558 303.23 71.628 303.422 71.692C303.614 71.752 303.842 71.782 304.106 71.782C304.398 71.782 304.66 71.736 304.892 71.644C305.128 71.548 305.326 71.414 305.486 71.242C305.65 71.07 305.774 70.864 305.858 70.624C305.946 70.384 305.99 70.118 305.99 69.826C305.99 69.566 305.952 69.332 305.876 69.124C305.8 68.916 305.686 68.738 305.534 68.59C305.382 68.442 305.192 68.33 304.964 68.254C304.736 68.174 304.47 68.134 304.166 68.134C303.742 68.134 303.29 68.21 302.81 68.362L302.072 68.146L302.774 64.078H306.902V64.588C306.902 64.756 306.848 64.894 306.74 65.002C306.636 65.106 306.46 65.158 306.212 65.158H303.59L303.218 67.294Z" fill="white"/>
<path d="M332.191 71.8V72.694H327.535V71.8H329.359V66.154C329.359 65.974 329.365 65.788 329.377 65.596L327.913 66.838C327.857 66.882 327.801 66.91 327.745 66.922C327.689 66.934 327.635 66.936 327.583 66.928C327.535 66.92 327.491 66.904 327.451 66.88C327.415 66.852 327.385 66.824 327.361 66.796L326.995 66.286L329.575 64.06H330.529V71.8H332.191ZM337.376 69.55V66.19C337.376 66.074 337.378 65.952 337.382 65.824C337.39 65.692 337.404 65.556 337.424 65.416L334.406 69.55H337.376ZM339.65 69.55V70.228C339.65 70.296 339.628 70.354 339.584 70.402C339.54 70.45 339.478 70.474 339.398 70.474H338.402V72.694H337.376V70.474H333.596C333.508 70.474 333.434 70.45 333.374 70.402C333.314 70.35 333.274 70.286 333.254 70.21L333.134 69.61L337.298 64.072H338.402V69.55H339.65ZM342.218 67.294C342.658 67.202 343.056 67.156 343.412 67.156C343.86 67.156 344.256 67.224 344.6 67.36C344.944 67.492 345.232 67.676 345.464 67.912C345.7 68.144 345.876 68.42 345.992 68.74C346.112 69.056 346.172 69.4 346.172 69.772C346.172 70.228 346.092 70.642 345.932 71.014C345.772 71.386 345.552 71.704 345.272 71.968C344.992 72.232 344.66 72.436 344.276 72.58C343.896 72.72 343.486 72.79 343.046 72.79C342.786 72.79 342.538 72.764 342.302 72.712C342.07 72.66 341.852 72.592 341.648 72.508C341.444 72.42 341.254 72.32 341.078 72.208C340.906 72.096 340.752 71.978 340.616 71.854L340.976 71.35C341.052 71.238 341.154 71.182 341.282 71.182C341.366 71.182 341.458 71.214 341.558 71.278C341.662 71.338 341.784 71.406 341.924 71.482C342.064 71.558 342.23 71.628 342.422 71.692C342.614 71.752 342.842 71.782 343.106 71.782C343.398 71.782 343.66 71.736 343.892 71.644C344.128 71.548 344.326 71.414 344.486 71.242C344.65 71.07 344.774 70.864 344.858 70.624C344.946 70.384 344.99 70.118 344.99 69.826C344.99 69.566 344.952 69.332 344.876 69.124C344.8 68.916 344.686 68.738 344.534 68.59C344.382 68.442 344.192 68.33 343.964 68.254C343.736 68.174 343.47 68.134 343.166 68.134C342.742 68.134 342.29 68.21 341.81 68.362L341.072 68.146L341.774 64.078H345.902V64.588C345.902 64.756 345.848 64.894 345.74 65.002C345.636 65.106 345.46 65.158 345.212 65.158H342.59L342.218 67.294Z" fill="white"/>
<path d="M230.721 60.581V73.694H229.137C228.903 73.694 228.705 73.658 228.543 73.586C228.387 73.508 228.231 73.376 228.075 73.19L221.892 65.369C221.916 65.603 221.931 65.831 221.937 66.053C221.949 66.269 221.955 66.473 221.955 66.665V73.694H219.273V60.581H220.875C221.007 60.581 221.118 60.587 221.208 60.599C221.298 60.611 221.379 60.635 221.451 60.671C221.523 60.701 221.592 60.746 221.658 60.806C221.724 60.866 221.799 60.947 221.883 61.049L228.12 68.924C228.09 68.672 228.069 68.429 228.057 68.195C228.045 67.955 228.039 67.73 228.039 67.52V60.581H230.721Z" fill="white"/>
<path d="M71.132 60.581V73.694H69.548C69.314 73.694 69.116 73.658 68.954 73.586C68.798 73.508 68.642 73.376 68.486 73.19L62.303 65.369C62.327 65.603 62.342 65.831 62.348 66.053C62.36 66.269 62.366 66.473 62.366 66.665V73.694H59.684V60.581H61.286C61.418 60.581 61.529 60.587 61.619 60.599C61.709 60.611 61.79 60.635 61.862 60.671C61.934 60.701 62.003 60.746 62.069 60.806C62.135 60.866 62.21 60.947 62.294 61.049L68.531 68.924C68.501 68.672 68.48 68.429 68.468 68.195C68.456 67.955 68.45 67.73 68.45 67.52V60.581H71.132ZM91.5412 60.581L87.4912 73.694H84.7372L82.2712 65.567C82.2232 65.441 82.1782 65.303 82.1362 65.153C82.0942 64.997 82.0522 64.835 82.0102 64.667C81.9682 64.835 81.9262 64.997 81.8842 65.153C81.8422 65.303 81.7972 65.441 81.7492 65.567L79.2472 73.694H76.4932L72.4432 60.581H74.9992C75.2632 60.581 75.4822 60.641 75.6562 60.761C75.8362 60.881 75.9532 61.04 76.0072 61.238L77.8072 68.078C77.8612 68.294 77.9152 68.531 77.9692 68.789C78.0232 69.041 78.0772 69.305 78.1312 69.581C78.2392 69.017 78.3712 68.516 78.5272 68.078L80.6512 61.238C80.7052 61.07 80.8192 60.92 80.9932 60.788C81.1732 60.65 81.3892 60.581 81.6412 60.581H82.5412C82.8052 60.581 83.0182 60.644 83.1802 60.77C83.3422 60.89 83.4652 61.046 83.5492 61.238L85.6552 68.078C85.8112 68.498 85.9432 68.975 86.0512 69.509C86.0992 69.239 86.1472 68.987 86.1952 68.753C86.2492 68.513 86.3032 68.288 86.3572 68.078L88.1572 61.238C88.2052 61.064 88.3192 60.911 88.4992 60.779C88.6792 60.647 88.8952 60.581 89.1472 60.581H91.5412Z" fill="white"/>
</svg>
