<svg width="32" height="34" viewBox="0 0 32 34" fill="none" xmlns="http://www.w3.org/2000/svg">
<path d="M30.6727 27.7919C27.0595 26.1602 26.922 19.1563 26.9194 18.9796V14.2808C26.9194 9.75846 24.1559 5.86973 20.229 4.21395C20.2205 1.88889 18.3269 0 16.0001 0C13.6732 0 11.7796 1.889 11.7711 4.21384C7.84435 5.86962 5.08084 9.75835 5.08084 14.2807V18.9795C5.07829 19.1562 4.94073 26.1601 1.32745 27.7918C0.915838 27.9778 0.689615 28.4258 0.784782 28.8674C0.879838 29.309 1.27034 29.6244 1.72206 29.6244H10.8821C11.0699 30.6574 11.5583 31.6184 12.3054 32.3968C13.2976 33.4306 14.6097 33.9999 15.9999 33.9999C17.3902 33.9999 18.7024 33.4306 19.6945 32.3968C20.4416 31.6183 20.9301 30.6573 21.1178 29.6244H30.2778C30.7295 29.6244 31.1199 29.3091 31.2151 28.8674C31.3104 28.4258 31.0843 27.9778 30.6727 27.7919ZM25.913 24.4367C26.2929 25.5882 26.8307 26.7447 27.5934 27.707H4.40668C5.16923 26.7448 5.70707 25.5884 6.0869 24.4367H25.913ZM16.0001 1.9175C17.0526 1.9175 17.9425 2.62473 18.2209 3.58873C17.5036 3.43995 16.7608 3.36151 16.0001 3.36151C15.2394 3.36151 14.4966 3.43989 13.7792 3.58873C14.0577 2.62478 14.9476 1.9175 16.0001 1.9175ZM6.99835 18.9854V14.2806C6.99835 9.31713 11.0365 5.27901 16.0001 5.27901C20.9637 5.27901 25.0018 9.31713 25.0018 14.2806V18.9932C25.0031 19.1374 25.0255 20.6531 25.4075 22.519H6.5924C6.97463 20.6514 6.99718 19.133 6.99835 18.9854ZM16.0001 32.0826C14.5367 32.0826 13.2595 31.0274 12.8496 29.6244H19.1505C18.7405 31.0274 17.4636 32.0826 16.0001 32.0826Z" fill="black"/>
<path d="M16.0001 6.62421C11.8751 6.62421 8.51917 9.98005 8.51917 14.105C8.51917 14.6345 8.94844 15.0638 9.47795 15.0638C10.0074 15.0638 10.4367 14.6345 10.4367 14.105C10.4367 11.0374 12.9325 8.54171 16.0002 8.54171C16.5297 8.54171 16.959 8.11243 16.959 7.58293C16.9589 7.05337 16.5296 6.62421 16.0001 6.62421Z" fill="black"/>
</svg>
