<svg width="22" height="23" viewBox="0 0 22 23" fill="none" xmlns="http://www.w3.org/2000/svg">
<path fill-rule="evenodd" clip-rule="evenodd" d="M18.0243 12.8375C18.1868 13.8125 18.3493 14.625 18.6743 15.6L19.6493 18.3625L18.8368 19.5H13.1493C13.1493 20.3125 12.8243 21.125 12.1743 21.775C11.5243 22.425 10.7118 22.75 9.89929 22.75C9.08679 22.75 8.11179 22.425 7.62429 21.775C6.97429 21.125 6.64929 20.3125 6.64929 19.5H0.961792L0.149292 18.3625L1.12429 15.6C1.44929 14.3 1.77429 13 1.77429 11.7V8.125C1.77429 6.9875 1.93679 5.85 2.42429 4.875C2.91179 3.7375 3.56179 2.925 4.37429 2.1125C5.18679 1.3 6.16179 0.8125 7.29929 0.4875C8.11179 0.1625 9.08679 0 9.89929 0C9.57429 0.4875 9.24929 1.1375 8.92429 1.7875C8.59929 1.7875 8.27429 1.7875 7.78679 2.1125C6.97429 2.275 6.16179 2.7625 5.51179 3.4125C4.86179 3.9 4.21179 4.7125 3.88679 5.525C3.56179 6.3375 3.39929 7.15 3.39929 8.125V11.7C3.39929 13.1625 3.07429 14.625 2.74929 16.0875L2.09929 17.875H17.6993L17.0493 16.0875C16.7649 15.2327 16.604 14.2513 16.4594 13.3672L16.3993 13C17.0493 13 17.5368 13 18.0243 12.8375ZM9.89929 21.125C10.2243 21.125 10.7118 20.9625 11.0368 20.6375C11.3618 20.3125 11.5243 19.9875 11.5243 19.5H8.27429C8.27429 19.9875 8.43679 20.3125 8.76179 20.6375C9.08679 20.9625 9.57429 21.125 9.89929 21.125ZM21.2743 4.875C21.2743 6.16793 20.7607 7.40791 19.8464 8.32215C18.9322 9.23639 17.6922 9.75 16.3993 9.75C15.1064 9.75 13.8664 9.23639 12.9521 8.32215C12.0379 7.40791 11.5243 6.16793 11.5243 4.875C11.5243 3.58207 12.0379 2.34209 12.9521 1.42785C13.8664 0.513615 15.1064 0 16.3993 0C17.6922 0 18.9322 0.513615 19.8464 1.42785C20.7607 2.34209 21.2743 3.58207 21.2743 4.875Z" fill="#003554"/>
<circle cx="15.8257" cy="5.73529" r="5.73529" fill="#FF7A00"/>
</svg>
