<svg width="10" height="11" viewBox="0 0 10 11" fill="none" xmlns="http://www.w3.org/2000/svg">
<path d="M7.68476 7.68846C7.88041 7.90368 7.88041 8.23846 7.68476 8.45368C7.58693 8.56128 7.46737 8.60911 7.33694 8.60911C7.2065 8.60911 7.08694 8.56128 6.98911 8.45368L4.99998 6.26563L3.01085 8.45368C2.91302 8.56128 2.79346 8.60911 2.66302 8.60911C2.53259 8.60911 2.41302 8.56128 2.3152 8.45368C2.11954 8.23846 2.11954 7.90368 2.3152 7.68846L4.30433 5.50042L2.3152 3.31237C2.11954 3.09716 2.11954 2.76237 2.3152 2.54716C2.51085 2.33194 2.8152 2.33194 3.01085 2.54716L4.99998 4.7352L6.98911 2.54716C7.18476 2.33194 7.48911 2.33194 7.68476 2.54716C7.88041 2.76237 7.88041 3.09716 7.68476 3.31237L5.69563 5.50042L7.68476 7.68846Z" fill="#FF7A00"/>
</svg>
