<svg width="26" height="26" viewBox="0 0 26 26" fill="none" xmlns="http://www.w3.org/2000/svg">
<path d="M13.5 16.3333V19M6.9375 10.3717C7.55624 10.3333 8.31902 10.3333 9.3 10.3333H17.7C18.681 10.3333 19.4438 10.3333 20.0625 10.3717M6.9375 10.3717C6.16533 10.4196 5.61751 10.5273 5.14991 10.7693C4.40902 11.1528 3.80666 11.7647 3.42916 12.5173C3 13.3731 3 14.4931 3 16.7333V18.6C3 20.8403 3 21.9603 3.42916 22.816C3.80666 23.5687 4.40902 24.1805 5.14991 24.564C5.99219 25 7.09479 25 9.3 25H17.7C19.9053 25 21.0078 25 21.8501 24.564C22.591 24.1805 23.1933 23.5687 23.5708 22.816C24 21.9603 24 20.8403 24 18.6V16.7333C24 14.4931 24 13.3731 23.5708 12.5173C23.1933 11.7647 22.591 11.1528 21.8501 10.7693C21.3825 10.5273 20.8346 10.4196 20.0625 10.3717M6.9375 10.3717V7.66667C6.9375 3.98477 9.87564 1 13.5 1C17.1243 1 20.0625 3.98477 20.0625 7.66667V10.3717" stroke="#003554" stroke-width="2" stroke-linecap="round" stroke-linejoin="round"/>
</svg>
