<svg width="15" height="15" viewBox="0 0 15 15" fill="none" xmlns="http://www.w3.org/2000/svg">
<path d="M10.752 8.34229C10.498 8.55225 10.2808 8.78662 10.1001 9.04541C9.69482 8.84033 9.27246 8.68896 8.83301 8.59131C8.39355 8.49365 7.94434 8.44238 7.48535 8.4375C6.95801 8.4375 6.45508 8.50342 5.97656 8.63525C5.49805 8.76709 5.04883 8.95264 4.62891 9.19189C4.20898 9.43115 3.83301 9.72168 3.50098 10.0635C3.16895 10.4053 2.87842 10.7837 2.62939 11.1987C2.38037 11.6138 2.19482 12.0654 2.07275 12.5537C1.95068 13.042 1.88477 13.5449 1.875 14.0625H0.9375C0.9375 13.3496 1.04248 12.6636 1.25244 12.0044C1.4624 11.3452 1.76514 10.7422 2.16064 10.1953C2.55615 9.64844 3.02734 9.16992 3.57422 8.75977C4.12109 8.34961 4.74121 8.03467 5.43457 7.81494C5.1709 7.63916 4.93652 7.43652 4.73145 7.20703C4.52637 6.97754 4.35059 6.72852 4.2041 6.45996C4.05762 6.19141 3.94531 5.9082 3.86719 5.61035C3.78906 5.3125 3.75 5.00488 3.75 4.6875C3.75 4.16992 3.84766 3.68408 4.04297 3.22998C4.23828 2.77588 4.50684 2.38037 4.84863 2.04346C5.19043 1.70654 5.58838 1.43799 6.04248 1.23779C6.49658 1.0376 6.98242 0.9375 7.5 0.9375C8.01758 0.9375 8.50342 1.03516 8.95752 1.23047C9.41162 1.42578 9.80713 1.69434 10.144 2.03613C10.481 2.37793 10.7495 2.77588 10.9497 3.22998C11.1499 3.68408 11.25 4.16992 11.25 4.6875C11.25 5.00488 11.2109 5.3125 11.1328 5.61035C11.0547 5.9082 10.9448 6.19385 10.8032 6.46729C10.6616 6.74072 10.4834 6.98975 10.2686 7.21436C10.0537 7.43896 9.81689 7.6416 9.55811 7.82227C9.76807 7.89062 9.9707 7.96631 10.166 8.04932C10.3613 8.13232 10.5566 8.22998 10.752 8.34229ZM4.6875 4.6875C4.6875 5.07812 4.76074 5.44189 4.90723 5.77881C5.05371 6.11572 5.25391 6.41357 5.50781 6.67236C5.76172 6.93115 6.05957 7.13379 6.40137 7.28027C6.74316 7.42676 7.10938 7.5 7.5 7.5C7.88574 7.5 8.24951 7.42676 8.59131 7.28027C8.93311 7.13379 9.23096 6.93359 9.48486 6.67969C9.73877 6.42578 9.94141 6.12793 10.0928 5.78613C10.2441 5.44434 10.3174 5.07812 10.3125 4.6875C10.3125 4.30176 10.2393 3.93799 10.0928 3.59619C9.94629 3.25439 9.74609 2.95654 9.49219 2.70264C9.23828 2.44873 8.93799 2.24609 8.59131 2.09473C8.24463 1.94336 7.88086 1.87012 7.5 1.875C7.10938 1.875 6.74561 1.94824 6.40869 2.09473C6.07178 2.24121 5.77393 2.44141 5.51514 2.69531C5.25635 2.94922 5.05371 3.24951 4.90723 3.59619C4.76074 3.94287 4.6875 4.30664 4.6875 4.6875ZM12.6709 8.43018C12.9932 8.43018 13.2983 8.49121 13.5864 8.61328C13.8745 8.73535 14.1235 8.90381 14.3335 9.11865C14.5435 9.3335 14.7119 9.58252 14.8389 9.86572C14.9658 10.1489 15.0293 10.4541 15.0293 10.7812C15.0293 11.1035 14.9683 11.4062 14.8462 11.6895C14.7241 11.9727 14.5557 12.2217 14.3408 12.4365C14.126 12.6514 13.8745 12.8198 13.5864 12.9419C13.2983 13.064 12.9932 13.1274 12.6709 13.1323C12.1973 13.1323 11.7651 13.0005 11.3745 12.7368L9.23584 14.8755C9.14307 14.9683 9.0332 15.0146 8.90625 15.0146C8.7793 15.0146 8.66943 14.9683 8.57666 14.8755C8.48389 14.7827 8.4375 14.6729 8.4375 14.5459C8.4375 14.4189 8.48389 14.3091 8.57666 14.2163L10.7153 12.0776C10.4517 11.687 10.3198 11.2549 10.3198 10.7812C10.3198 10.459 10.3809 10.1562 10.5029 9.87305C10.625 9.58984 10.7935 9.34082 11.0083 9.12598C11.2231 8.91113 11.4722 8.74268 11.7554 8.62061C12.0386 8.49854 12.3438 8.43506 12.6709 8.43018ZM12.6709 12.1948C12.8662 12.1948 13.0493 12.1582 13.2202 12.085C13.3911 12.0117 13.54 11.9116 13.667 11.7847C13.7939 11.6577 13.8965 11.5063 13.9746 11.3306C14.0527 11.1548 14.0918 10.9717 14.0918 10.7812C14.0918 10.5859 14.0552 10.4028 13.9819 10.2319C13.9087 10.061 13.8062 9.91211 13.6743 9.78516C13.5425 9.6582 13.3936 9.55566 13.2275 9.47754C13.0615 9.39941 12.876 9.36279 12.6709 9.36768C12.4756 9.36768 12.2925 9.4043 12.1216 9.47754C11.9507 9.55078 11.8018 9.65332 11.6748 9.78516C11.5479 9.91699 11.4453 10.0659 11.3672 10.2319C11.2891 10.3979 11.2524 10.5811 11.2573 10.7812C11.2573 10.9766 11.2939 11.1597 11.3672 11.3306C11.4404 11.5015 11.5405 11.6504 11.6675 11.7773C11.7944 11.9043 11.9458 12.0068 12.1216 12.085C12.2974 12.1631 12.4805 12.1997 12.6709 12.1948Z" fill="#003554"/>
</svg>
