<svg width="14" height="18" viewBox="0 0 14 18" fill="none" xmlns="http://www.w3.org/2000/svg">
<path d="M6.99972 0C3.55547 0 0.753418 2.80246 0.753418 6.2468C0.753418 9.56227 6.4208 17.3084 6.66211 17.6364L6.88732 17.9429C6.91366 17.9789 6.9556 18 6.99972 18C7.04453 18 7.08619 17.9789 7.1128 17.9429L7.33788 17.6364C7.57933 17.3084 13.2466 9.56227 13.2466 6.2468C13.2466 2.80246 10.4441 0 6.99972 0ZM6.99972 4.00921C8.23381 4.00921 9.23731 5.01276 9.23731 6.2468C9.23731 7.4802 8.23376 8.4844 6.99972 8.4844C5.76636 8.4844 4.76213 7.4802 4.76213 6.2468C4.76213 5.01276 5.76632 4.00921 6.99972 4.00921Z" fill="#FF0000"/>
</svg>
