<svg width="13" height="16" viewBox="0 0 13 16" fill="none" xmlns="http://www.w3.org/2000/svg">
<g clip-path="url(#clip0_939_4454)">
<path d="M0 6.28033L1.05504 3.82185H5.03474C4.98438 3.64736 4.89751 3.47547 4.77161 3.30749C4.64571 3.13951 4.49085 2.99497 4.30703 2.87127C4.12322 2.74887 3.918 2.6473 3.69138 2.57307C3.46476 2.49494 3.22304 2.45718 2.97124 2.45718H0L1.05504 0H12.4452L11.3902 2.45848H8.63925C8.74752 2.54443 8.84824 2.64469 8.94141 2.76059C9.03458 2.87257 9.11767 2.98846 9.18943 3.11477C9.25742 3.23718 9.31911 3.36088 9.36947 3.48329C9.41605 3.60569 9.44879 3.72158 9.46264 3.82185H12.4439L11.3889 6.28033H9.2335C9.07486 6.69702 8.84069 7.09288 8.5272 7.4653C8.21371 7.84162 7.84986 8.17237 7.43565 8.47057C7.01766 8.76877 6.5682 9.01487 6.08096 9.21931C5.59499 9.41985 5.10146 9.55397 4.60038 9.62949L10.5857 16.0023H5.8556L0.518708 9.94462V7.68797H2.88059C3.10721 7.68797 3.33131 7.65021 3.55038 7.57208C3.77322 7.49395 3.97844 7.38977 4.16225 7.25956C4.34984 7.13325 4.51099 6.97959 4.64822 6.81292C4.78545 6.64103 4.8824 6.46654 4.94031 6.28033H0Z" fill="#FFD600"/>
</g>
<defs>
<clipPath id="clip0_939_4454">
<rect width="12.4452" height="16.001" fill="white"/>
</clipPath>
</defs>
</svg>
