<svg width="31" height="31" viewBox="0 0 31 31" fill="none" xmlns="http://www.w3.org/2000/svg">
<path fill-rule="evenodd" clip-rule="evenodd" d="M29.7077 5.16675C29.7077 3.02665 27.9728 1.29175 25.8327 1.29175H5.16602C3.02592 1.29175 1.29102 3.02665 1.29102 5.16675V18.0834C1.29102 20.2236 3.02592 21.9584 5.16602 21.9584H6.45768C7.17104 21.9584 7.74935 21.3801 7.74935 20.6667C7.74935 19.9534 7.17104 19.3751 6.45768 19.3751H5.16602C4.45265 19.3751 3.87435 18.7968 3.87435 18.0834V10.3334H27.1243V18.0834C27.1243 18.7968 26.5461 19.3751 25.8327 19.3751H24.541C23.8276 19.3751 23.2493 19.9534 23.2493 20.6667C23.2493 21.3801 23.8276 21.9584 24.541 21.9584H25.8327C27.9728 21.9584 29.7077 20.2236 29.7077 18.0834V5.16675ZM27.1243 7.75008V5.16675C27.1243 4.45339 26.5461 3.87508 25.8327 3.87508H5.16602C4.45265 3.87508 3.87435 4.45337 3.87435 5.16675V7.75008H27.1243Z" fill="white"/>
<path d="M16.7923 28.4166C16.7923 29.13 16.214 29.7083 15.5006 29.7083C14.7872 29.7083 14.209 29.13 14.209 28.4166V21.1922L12.539 22.8619C12.0345 23.3666 11.2168 23.3666 10.7123 22.8619C10.2079 22.3578 10.2079 21.5398 10.7123 21.0355L14.5866 17.1692C15.0912 16.6655 15.9083 16.6661 16.4124 17.1701L20.2863 21.044C20.7908 21.5486 20.7908 22.3663 20.2863 22.8708C19.7819 23.3751 18.964 23.3751 18.4596 22.8708L16.7923 21.2035V28.4166Z" fill="white"/>
</svg>
