<svg width="125" height="118" viewBox="0 0 125 118" fill="none" xmlns="http://www.w3.org/2000/svg">
<circle cx="42.5" cy="46.5" r="36.5" fill="white" fill-opacity="0.34"/>
<path d="M6.42221 52.0271C5.6964 47.2891 5.9109 42.4546 7.05348 37.7995C8.19607 33.1444 10.2443 28.76 13.0814 24.8965C15.9184 21.033 19.4886 17.7662 23.5882 15.2824C27.6877 12.7987 32.2364 11.1468 36.9743 10.421C41.7123 9.69519 46.5469 9.90969 51.2019 11.0523C55.857 12.1949 60.2415 14.2431 64.1049 17.0802C67.9684 19.9172 71.2353 23.4874 73.719 27.587C76.2027 31.6865 77.8546 36.2352 78.5804 40.9731L76.9351 41.2252C76.2424 36.7033 74.6658 32.3621 72.2954 28.4495C69.9249 24.5369 66.8071 21.1295 63.1198 18.4218C59.4325 15.7141 55.248 13.7593 50.8052 12.6688C46.3624 11.5783 41.7483 11.3736 37.2264 12.0663C32.7045 12.759 28.3633 14.3356 24.4507 16.7061C20.5381 19.0765 17.1307 22.1944 14.423 25.8817C11.7154 29.569 9.76049 33.7535 8.67001 38.1963C7.57953 42.6391 7.37481 47.2531 8.06752 51.7751L6.42221 52.0271Z" fill="white"/>
<path fill-rule="evenodd" clip-rule="evenodd" d="M55.7077 37.1667C55.7077 35.0267 53.9728 33.2917 51.8327 33.2917H31.166C29.0259 33.2917 27.291 35.0267 27.291 37.1667V50.0834C27.291 52.2236 29.0259 53.9584 31.166 53.9584H32.4577C33.171 53.9584 33.7493 53.3801 33.7493 52.6667C33.7493 51.9534 33.171 51.3751 32.4577 51.3751H31.166C30.4527 51.3751 29.8743 50.7968 29.8743 50.0834V42.3334H53.1243V50.0834C53.1243 50.7968 52.5461 51.3751 51.8327 51.3751H50.541C49.8276 51.3751 49.2493 51.9534 49.2493 52.6667C49.2493 53.3801 49.8276 53.9584 50.541 53.9584H51.8327C53.9728 53.9584 55.7077 52.2236 55.7077 50.0834V37.1667ZM53.1243 39.7501V37.1667C53.1243 36.4534 52.5461 35.8751 51.8327 35.8751H31.166C30.4527 35.8751 29.8743 36.4534 29.8743 37.1667V39.7501H53.1243Z" fill="white"/>
<path d="M42.7923 60.4166C42.7923 61.13 42.214 61.7083 41.5006 61.7083C40.7872 61.7083 40.209 61.13 40.209 60.4166V53.1922L38.539 54.8619C38.0345 55.3666 37.2168 55.3666 36.7123 54.8619C36.2079 54.3578 36.2079 53.5398 36.7123 53.0355L40.5866 49.1692C41.0912 48.6655 41.9083 48.6661 42.4124 49.1701L46.2863 53.044C46.7908 53.5486 46.7908 54.3663 46.2863 54.8708C45.7819 55.3751 44.964 55.3751 44.4596 54.8708L42.7923 53.2035V60.4166Z" fill="white"/>
</svg>
