<svg width="16" height="15" viewBox="0 0 16 15" fill="none" xmlns="http://www.w3.org/2000/svg">
<g clip-path="url(#clip0_993_5747)">
<path d="M0.614746 6.10406C0.614746 9.47042 3.45017 12.2062 6.93226 12.2062C8.53651 12.2062 10.004 11.6236 11.1201 10.6686L15.1463 14.5575C15.2209 14.6296 15.3173 14.6656 15.4168 14.6656C15.5163 14.6656 15.6126 14.6296 15.6872 14.5575C15.8365 14.4134 15.8365 14.1821 15.6872 14.038L11.658 10.1491C12.6466 9.07102 13.2498 7.65661 13.2498 6.10406C13.2498 2.73769 10.4144 0.00195312 6.93226 0.00195312C3.45017 0.00195312 0.614746 2.73769 0.614746 6.10406ZM12.4881 6.10406C12.4881 9.06201 9.99464 11.4704 6.93226 11.4704C3.86988 11.4704 1.37645 9.06201 1.37645 6.10406C1.37645 3.1461 3.86988 0.737689 6.93226 0.737689C9.99464 0.737689 12.4881 3.14309 12.4881 6.10406Z" fill="#5C5C5C"/>
</g>
<defs>
<clipPath id="clip0_993_5747">
<rect width="15.1844" height="14.6667" fill="white" transform="translate(0.614746)"/>
</clipPath>
</defs>
</svg>
