<svg width="27" height="29" viewBox="0 0 27 29" fill="none" xmlns="http://www.w3.org/2000/svg">
<path fill-rule="evenodd" clip-rule="evenodd" d="M25.8315 8.57285L24.9497 7.04272C24.2037 5.74799 22.5505 5.30135 21.254 6.04424C20.6369 6.4078 19.9005 6.51094 19.2072 6.33093C18.5139 6.15092 17.9207 5.70254 17.5584 5.08467C17.3253 4.69194 17.2001 4.24462 17.1953 3.78795C17.2163 3.05579 16.9401 2.3463 16.4296 1.82109C15.919 1.29589 15.2176 0.999699 14.4852 1H12.7087C11.9911 1 11.3031 1.28594 10.7969 1.79456C10.2907 2.30319 10.008 2.99257 10.0115 3.71015C9.99021 5.1917 8.78305 6.38154 7.30134 6.38139C6.84467 6.37665 6.39735 6.2514 6.00462 6.01831C4.70812 5.27541 3.05494 5.72206 2.30896 7.01678L1.36236 8.57285C0.617281 9.86595 1.05785 11.5181 2.34786 12.2685C3.1864 12.7526 3.70295 13.6473 3.70295 14.6156C3.70295 15.5838 3.1864 16.4785 2.34786 16.9626C1.05949 17.708 0.618439 19.3561 1.36236 20.6453L2.25709 22.1884C2.60662 22.8191 3.19305 23.2845 3.88664 23.4816C4.58023 23.6787 5.32377 23.5913 5.95275 23.2388C6.57106 22.878 7.30788 22.7791 7.99943 22.9642C8.69098 23.1492 9.27995 23.6029 9.63543 24.2243C9.86852 24.617 9.99377 25.0643 9.99851 25.521C9.99851 27.0177 11.2119 28.2311 12.7087 28.2311H14.4852C15.9769 28.2311 17.1882 27.0256 17.1953 25.5339C17.1918 24.8141 17.4763 24.1228 17.9853 23.6138C18.4943 23.1047 19.1856 22.8203 19.9055 22.8238C20.361 22.836 20.8065 22.9607 21.2022 23.1869C22.4953 23.932 24.1474 23.4914 24.8978 22.2014L25.8315 20.6453C26.1929 20.025 26.292 19.2862 26.1071 18.5926C25.9221 17.8989 25.4682 17.3076 24.846 16.9497C24.2237 16.5917 23.7698 16.0004 23.5848 15.3067C23.3999 14.6131 23.4991 13.8743 23.8605 13.254C24.0955 12.8437 24.4357 12.5035 24.846 12.2685C26.1282 11.5185 26.5678 9.87601 25.8315 8.58581V8.57285Z" stroke="#200E32" stroke-width="1.5" stroke-linecap="round" stroke-linejoin="round"/>
<path d="M13.6032 18.3499C15.6656 18.3499 17.3376 16.678 17.3376 14.6156C17.3376 12.5531 15.6656 10.8812 13.6032 10.8812C11.5408 10.8812 9.8689 12.5531 9.8689 14.6156C9.8689 16.678 11.5408 18.3499 13.6032 18.3499Z" stroke="#200E32" stroke-width="1.5" stroke-linecap="round" stroke-linejoin="round"/>
</svg>
