<svg width="22" height="24" viewBox="0 0 22 24" fill="none" xmlns="http://www.w3.org/2000/svg">
<path fill-rule="evenodd" clip-rule="evenodd" d="M20.8561 7.05551L20.151 5.83197C19.5545 4.79666 18.2326 4.43951 17.1958 5.03355C16.7023 5.32426 16.1135 5.40674 15.5591 5.2628C15.0047 5.11886 14.5304 4.76032 14.2407 4.26624C14.0543 3.9522 13.9541 3.59451 13.9503 3.22934C13.9671 2.64388 13.7463 2.07654 13.338 1.65657C12.9298 1.2366 12.3689 0.999759 11.7832 1H10.3626C9.78884 1 9.23869 1.22865 8.83392 1.63536C8.42915 2.04208 8.20313 2.59332 8.20589 3.16713C8.18889 4.35183 7.22359 5.30327 6.03877 5.30315C5.6736 5.29935 5.31591 5.1992 5.00186 5.01281C3.96514 4.41877 2.6432 4.77592 2.04669 5.81123L1.28975 7.05551C0.693965 8.08952 1.04626 9.41063 2.0778 10.0107C2.74832 10.3978 3.16138 11.1132 3.16138 11.8875C3.16138 12.6617 2.74832 13.3772 2.0778 13.7643C1.04757 14.3603 0.69489 15.6782 1.28975 16.7091L2.00522 17.943C2.28471 18.4473 2.75364 18.8194 3.30826 18.9771C3.86287 19.1347 4.45744 19.0648 4.96039 18.7829C5.45482 18.4944 6.044 18.4153 6.59699 18.5633C7.14997 18.7113 7.62094 19.074 7.90519 19.5709C8.09158 19.885 8.19173 20.2427 8.19552 20.6078C8.19552 21.8047 9.16578 22.7749 10.3626 22.7749H11.7832C12.976 22.7749 13.9446 21.811 13.9503 20.6182C13.9476 20.0426 14.175 19.4898 14.582 19.0827C14.989 18.6757 15.5419 18.4483 16.1175 18.4511C16.4818 18.4608 16.838 18.5606 17.1544 18.7414C18.1884 19.3372 19.5095 18.9849 20.1095 17.9534L20.8561 16.7091C21.1451 16.2131 21.2244 15.6223 21.0765 15.0676C20.9286 14.513 20.5656 14.0402 20.0681 13.7539C19.5705 13.4676 19.2075 12.9948 19.0596 12.4402C18.9117 11.8855 18.991 11.2947 19.28 10.7987C19.4679 10.4706 19.74 10.1986 20.0681 10.0107C21.0934 9.41095 21.4449 8.09756 20.8561 7.06588V7.05551Z" stroke="#003554" stroke-width="1.5" stroke-linecap="round" stroke-linejoin="round"/>
<path d="M11.0781 14.8736C12.7273 14.8736 14.0642 13.5366 14.0642 11.8875C14.0642 10.2383 12.7273 8.90137 11.0781 8.90137C9.42896 8.90137 8.09204 10.2383 8.09204 11.8875C8.09204 13.5366 9.42896 14.8736 11.0781 14.8736Z" stroke="#003554" stroke-width="1.5" stroke-linecap="round" stroke-linejoin="round"/>
</svg>
