<svg width="128" height="44" viewBox="0 0 128 44" fill="none" xmlns="http://www.w3.org/2000/svg">
<path d="M16 27.6328H20V25.8828H16V27.6328ZM16 24.7152H24V22.9652H16V24.7152ZM16 21.8004H24V20.0504H16V21.8004ZM16 17.1328V18.8828H24V17.1328H16Z" fill="#FF7A00"/>
<path d="M32.1553 16.9443H37.6445V18.8174H34.0557V20.6357H37.6445V22.4746H34.0557V25.1201H37.6445V27H32.1553V16.9443ZM39.2305 19.5625H41.0898V20.3213C41.5137 19.9658 41.8965 19.7197 42.2383 19.583C42.5846 19.4417 42.9378 19.3711 43.2979 19.3711C44.0361 19.3711 44.6628 19.6286 45.1777 20.1436C45.6107 20.5811 45.8271 21.2282 45.8271 22.085V27H43.9814V23.7393C43.9814 22.8506 43.9404 22.2604 43.8584 21.9688C43.7809 21.6771 43.6419 21.4561 43.4414 21.3057C43.2454 21.1507 43.0016 21.0732 42.71 21.0732C42.3317 21.0732 42.0059 21.2008 41.7324 21.4561C41.4635 21.7067 41.2767 22.0553 41.1719 22.502C41.1172 22.7344 41.0898 23.238 41.0898 24.0127V27H39.2305V19.5625ZM47.8643 16.8213H49.7236V19.5625H50.8311V21.1689H49.7236V27H47.8643V21.1689H46.9072V19.5625H47.8643V16.8213ZM51.3984 19.5625H52.998V20.499C53.1712 20.1299 53.4014 19.8496 53.6885 19.6582C53.9756 19.4668 54.29 19.3711 54.6318 19.3711C54.8734 19.3711 55.1263 19.4349 55.3906 19.5625L54.8096 21.1689C54.5908 21.0596 54.4108 21.0049 54.2695 21.0049C53.9824 21.0049 53.7386 21.1826 53.5381 21.5381C53.3421 21.8936 53.2441 22.5908 53.2441 23.6299L53.251 23.9922V27H51.3984V19.5625ZM55.4932 19.5625H57.4004L59.335 24.2314L61.4678 19.5625H63.3818L58.7197 29.7207H56.792L58.3232 26.4463L55.4932 19.5625ZM67.4766 19.5625H68.1396C68.1442 18.5872 68.1602 18.0107 68.1875 17.833C68.2376 17.4229 68.4085 17.0993 68.7002 16.8623C68.9964 16.6208 69.4134 16.5 69.9512 16.5C70.3385 16.5 70.776 16.5889 71.2637 16.7666V18.1885C70.9948 18.111 70.7738 18.0723 70.6006 18.0723C70.3818 18.0723 70.2223 18.1178 70.1221 18.209C70.0492 18.2773 70.0127 18.4186 70.0127 18.6328L70.0059 19.5625H71.1885V21.1484H70.0059V27H68.1396V21.1484H67.4766V19.5625ZM79.7402 23.8213H73.7451C73.8317 24.3499 74.0618 24.7715 74.4355 25.0859C74.8138 25.3958 75.2946 25.5508 75.8779 25.5508C76.5752 25.5508 77.1745 25.307 77.6758 24.8193L79.248 25.5576C78.8561 26.1136 78.3867 26.526 77.8398 26.7949C77.293 27.0592 76.6436 27.1914 75.8916 27.1914C74.7249 27.1914 73.7747 26.8245 73.041 26.0908C72.3073 25.3525 71.9404 24.4297 71.9404 23.3223C71.9404 22.1875 72.305 21.2464 73.0342 20.499C73.7679 19.7471 74.6862 19.3711 75.7891 19.3711C76.9603 19.3711 77.9128 19.7471 78.6465 20.499C79.3802 21.2464 79.7471 22.2354 79.7471 23.4658L79.7402 23.8213ZM77.8672 22.3516C77.7441 21.9368 77.5003 21.5996 77.1357 21.3398C76.7757 21.0801 76.3564 20.9502 75.8779 20.9502C75.3584 20.9502 74.9027 21.096 74.5107 21.3877C74.2646 21.57 74.0368 21.8913 73.8271 22.3516H77.8672ZM88.709 23.8213H82.7139C82.8005 24.3499 83.0306 24.7715 83.4043 25.0859C83.7826 25.3958 84.2633 25.5508 84.8467 25.5508C85.5439 25.5508 86.1432 25.307 86.6445 24.8193L88.2168 25.5576C87.8249 26.1136 87.3555 26.526 86.8086 26.7949C86.2617 27.0592 85.6123 27.1914 84.8604 27.1914C83.6937 27.1914 82.7435 26.8245 82.0098 26.0908C81.276 25.3525 80.9092 24.4297 80.9092 23.3223C80.9092 22.1875 81.2738 21.2464 82.0029 20.499C82.7367 19.7471 83.6549 19.3711 84.7578 19.3711C85.929 19.3711 86.8815 19.7471 87.6152 20.499C88.349 21.2464 88.7158 22.2354 88.7158 23.4658L88.709 23.8213ZM86.8359 22.3516C86.7129 21.9368 86.4691 21.5996 86.1045 21.3398C85.7445 21.0801 85.3252 20.9502 84.8467 20.9502C84.3271 20.9502 83.8714 21.096 83.4795 21.3877C83.2334 21.57 83.0055 21.8913 82.7959 22.3516H86.8359ZM94.7793 20.6016L93.624 21.7568C93.1546 21.292 92.7285 21.0596 92.3457 21.0596C92.1361 21.0596 91.972 21.1051 91.8535 21.1963C91.735 21.2829 91.6758 21.3923 91.6758 21.5244C91.6758 21.6247 91.7122 21.7181 91.7852 21.8047C91.8626 21.8867 92.0495 22.0007 92.3457 22.1465L93.0293 22.4883C93.7493 22.8438 94.2438 23.2061 94.5127 23.5752C94.7816 23.9443 94.916 24.3773 94.916 24.874C94.916 25.5348 94.6722 26.0863 94.1846 26.5283C93.7015 26.9704 93.0521 27.1914 92.2363 27.1914C91.1517 27.1914 90.2858 26.7676 89.6387 25.9199L90.7871 24.6689C91.0059 24.9242 91.2611 25.1315 91.5527 25.291C91.849 25.446 92.111 25.5234 92.3389 25.5234C92.585 25.5234 92.7832 25.4642 92.9336 25.3457C93.084 25.2272 93.1592 25.0905 93.1592 24.9355C93.1592 24.6484 92.888 24.3682 92.3457 24.0947L91.7168 23.7803C90.5137 23.1742 89.9121 22.4154 89.9121 21.5039C89.9121 20.916 90.1377 20.4147 90.5889 20C91.0446 19.5807 91.6257 19.3711 92.332 19.3711C92.8151 19.3711 93.2686 19.4782 93.6924 19.6924C94.1208 19.902 94.4831 20.2051 94.7793 20.6016Z" fill="#FF7A00"/>
<rect x="0.5" y="0.5" width="127" height="43" rx="3.5" stroke="#FF7A00"/>
<path d="M105 24.25L101.25 20.5H108.75L105 24.25Z" fill="#FF7A00"/>
</svg>
