<svg width="41" height="41" viewBox="0 0 41 41" fill="none" xmlns="http://www.w3.org/2000/svg">
<path d="M20.5 19.8632C22.2131 19.8632 23.8561 19.1827 25.0675 17.9713C26.2789 16.7599 26.9594 15.117 26.9594 13.4038C26.9594 11.6907 26.2789 10.0477 25.0675 8.83632C23.8561 7.62494 22.2131 6.9444 20.5 6.9444C18.7869 6.9444 17.1439 7.62494 15.9325 8.83632C14.7211 10.0477 14.0406 11.6907 14.0406 13.4038C14.0406 15.117 14.7211 16.7599 15.9325 17.9713C17.1439 19.1827 18.7869 19.8632 20.5 19.8632ZM20.5 22.7012C11.9118 22.7012 6.40625 27.4406 6.40625 29.7481V34.0569H34.5938V29.7481C34.5938 26.9575 29.3816 22.7012 20.5 22.7012Z" fill="black"/>
</svg>
