<svg width="12" height="14" viewBox="0 0 12 14" fill="none" xmlns="http://www.w3.org/2000/svg">
<path d="M2.28347 13.3063C1.88972 13.3063 1.55253 13.166 1.27189 12.8853C0.991256 12.6047 0.851176 12.2677 0.851654 11.8745V2.56765C0.648813 2.56765 0.478665 2.49892 0.341211 2.36147C0.203756 2.22402 0.135267 2.05411 0.135745 1.85174C0.135745 1.6489 0.204472 1.47875 0.341927 1.3413C0.479381 1.20384 0.64929 1.13536 0.851654 1.13583H3.71529C3.71529 0.932993 3.78402 0.762845 3.92147 0.62539C4.05893 0.487936 4.22884 0.419447 4.4312 0.419924H7.29484C7.49768 0.419924 7.66782 0.488652 7.80528 0.626106C7.94273 0.763561 8.01122 0.93347 8.01074 1.13583H10.8744C11.0772 1.13583 11.2474 1.20456 11.3848 1.34202C11.5223 1.47947 11.5908 1.64938 11.5903 1.85174C11.5903 2.05458 11.5216 2.22473 11.3841 2.36219C11.2467 2.49964 11.0767 2.56813 10.8744 2.56765V11.8745C10.8744 12.2682 10.7341 12.6054 10.4534 12.886C10.1728 13.1667 9.83584 13.3068 9.44256 13.3063H2.28347ZM2.28347 2.56765V11.8745H9.44256V2.56765H2.28347ZM3.71529 9.72674C3.71529 9.92958 3.78402 10.0997 3.92147 10.2372C4.05893 10.3746 4.22884 10.4431 4.4312 10.4427C4.63404 10.4427 4.80419 10.3739 4.94164 10.2365C5.0791 10.099 5.14759 9.92911 5.14711 9.72674V4.71538C5.14711 4.51254 5.07838 4.34239 4.94093 4.20494C4.80347 4.06748 4.63356 3.99899 4.4312 3.99947C4.22836 3.99947 4.05821 4.0682 3.92076 4.20565C3.7833 4.34311 3.71481 4.51301 3.71529 4.71538V9.72674ZM6.57893 9.72674C6.57893 9.92958 6.64765 10.0997 6.78511 10.2372C6.92256 10.3746 7.09247 10.4431 7.29484 10.4427C7.49768 10.4427 7.66782 10.3739 7.80528 10.2365C7.94273 10.099 8.01122 9.92911 8.01074 9.72674V4.71538C8.01074 4.51254 7.94202 4.34239 7.80456 4.20494C7.66711 4.06748 7.4972 3.99899 7.29484 3.99947C7.09199 3.99947 6.92185 4.0682 6.78439 4.20565C6.64694 4.34311 6.57845 4.51301 6.57893 4.71538V9.72674Z" fill="#003554"/>
</svg>
