<svg width="14" height="12" viewBox="0 0 14 12" fill="none" xmlns="http://www.w3.org/2000/svg">
<path d="M7 5.72052C7.75211 5.72052 8.47342 5.42174 9.00524 4.88992C9.53707 4.35809 9.83584 3.63678 9.83584 2.88467C9.83584 2.13256 9.53707 1.41125 9.00524 0.879428C8.47342 0.347604 7.75211 0.0488281 7 0.0488281C6.24789 0.0488281 5.52658 0.347604 4.99476 0.879428C4.46293 1.41125 4.16416 2.13256 4.16416 2.88467C4.16416 3.63678 4.46293 4.35809 4.99476 4.88992C5.52658 5.42174 6.24789 5.72052 7 5.72052ZM7 6.96645C3.22956 6.96645 0.8125 9.04714 0.8125 10.0602V11.9519H13.1875V10.0602C13.1875 8.83508 10.8993 6.96645 7 6.96645Z" fill="#003554"/>
</svg>
