<svg width="24" height="24" viewBox="0 0 24 24" fill="none" xmlns="http://www.w3.org/2000/svg">
<mask id="path-1-outside-1_2517_14789" maskUnits="userSpaceOnUse" x="-0.200195" y="-0.200195" width="24" height="24" fill="black">
<rect fill="white" x="-0.200195" y="-0.200195" width="24" height="24"/>
<path d="M11.9998 2.1998C11.4429 2.1998 10.9087 2.42105 10.5149 2.81488C10.1211 3.20871 9.89981 3.74285 9.89981 4.2998C9.89981 4.85676 10.1211 5.3909 10.5149 5.78473C10.9087 6.17856 11.4429 6.39981 11.9998 6.39981C12.5568 6.39981 13.0909 6.17856 13.4847 5.78473C13.8786 5.3909 14.0998 4.85676 14.0998 4.2998C14.0998 3.74285 13.8786 3.20871 13.4847 2.81488C13.0909 2.42105 12.5568 2.1998 11.9998 2.1998ZM8.49981 4.2998C8.49981 3.37155 8.86855 2.48131 9.52493 1.82493C10.1813 1.16855 11.0715 0.799805 11.9998 0.799805C12.9281 0.799805 13.8183 1.16855 14.4747 1.82493C15.1311 2.48131 15.4998 3.37155 15.4998 4.2998C15.4998 5.22806 15.1311 6.1183 14.4747 6.77468C13.8183 7.43106 12.9281 7.79981 11.9998 7.79981C11.0715 7.79981 10.1813 7.43106 9.52493 6.77468C8.86855 6.1183 8.49981 5.22806 8.49981 4.2998ZM19.6998 3.5998C19.3285 3.5998 18.9724 3.7473 18.7099 4.00986C18.4473 4.27241 18.2998 4.6285 18.2998 4.9998C18.2998 5.37111 18.4473 5.7272 18.7099 5.98975C18.9724 6.25231 19.3285 6.39981 19.6998 6.39981C20.0711 6.39981 20.4272 6.25231 20.6898 5.98975C20.9523 5.7272 21.0998 5.37111 21.0998 4.9998C21.0998 4.6285 20.9523 4.27241 20.6898 4.00986C20.4272 3.7473 20.0711 3.5998 19.6998 3.5998ZM16.8998 4.9998C16.8998 4.2572 17.1948 3.54501 17.7199 3.01991C18.245 2.4948 18.9572 2.1998 19.6998 2.1998C20.4424 2.1998 21.1546 2.4948 21.6797 3.01991C22.2048 3.54501 22.4998 4.2572 22.4998 4.9998C22.4998 5.74241 22.2048 6.4546 21.6797 6.9797C21.1546 7.50481 20.4424 7.79981 19.6998 7.79981C18.9572 7.79981 18.245 7.50481 17.7199 6.9797C17.1948 6.4546 16.8998 5.74241 16.8998 4.9998ZM2.8998 4.9998C2.8998 4.6285 3.0473 4.27241 3.30986 4.00986C3.57241 3.7473 3.9285 3.5998 4.2998 3.5998C4.67111 3.5998 5.0272 3.7473 5.28975 4.00986C5.55231 4.27241 5.69981 4.6285 5.69981 4.9998C5.69981 5.37111 5.55231 5.7272 5.28975 5.98975C5.0272 6.25231 4.67111 6.39981 4.2998 6.39981C3.9285 6.39981 3.57241 6.25231 3.30986 5.98975C3.0473 5.7272 2.8998 5.37111 2.8998 4.9998ZM4.2998 2.1998C3.5572 2.1998 2.84501 2.4948 2.31991 3.01991C1.7948 3.54501 1.4998 4.2572 1.4998 4.9998C1.4998 5.74241 1.7948 6.4546 2.31991 6.9797C2.84501 7.50481 3.5572 7.79981 4.2998 7.79981C5.04241 7.79981 5.7546 7.50481 6.2797 6.9797C6.80481 6.4546 7.0998 5.74241 7.0998 4.9998C7.0998 4.2572 6.80481 3.54501 6.2797 3.01991C5.7546 2.4948 5.04241 2.1998 4.2998 2.1998ZM5.1398 18.997C4.76073 19.016 4.38176 18.9577 4.02591 18.8257C3.67006 18.6937 3.34476 18.4907 3.06978 18.2291C2.79481 17.9674 2.57589 17.6526 2.42634 17.3038C2.27678 16.955 2.19971 16.5794 2.1998 16.1998V10.9498C2.1998 10.857 2.23668 10.768 2.30232 10.7023C2.36796 10.6367 2.45698 10.5998 2.5498 10.5998H5.0194C5.07541 10.086 5.25741 9.60861 5.53041 9.19981H2.5498C1.5838 9.19981 0.799805 9.98381 0.799805 10.9498V16.1998C0.799739 16.7992 0.927959 17.3916 1.17585 17.9373C1.42374 18.483 1.78555 18.9693 2.23698 19.3636C2.68841 19.7579 3.219 20.051 3.7931 20.2232C4.36719 20.3954 4.9715 20.4427 5.5654 20.362C5.37698 19.9229 5.23435 19.4654 5.1398 18.997ZM18.4342 20.362C19.0281 20.4427 19.6324 20.3954 20.2065 20.2232C20.7806 20.051 21.3112 19.7579 21.7626 19.3636C22.2141 18.9693 22.5759 18.483 22.8238 17.9373C23.0717 17.3916 23.1999 16.7992 23.1998 16.1998V10.9498C23.1998 9.98381 22.4158 9.19981 21.4498 9.19981H18.4692C18.7436 9.60861 18.9242 10.086 18.9802 10.5998H21.4498C21.5426 10.5998 21.6317 10.6367 21.6973 10.7023C21.7629 10.768 21.7998 10.857 21.7998 10.9498V16.1998C21.7999 16.5794 21.7228 16.955 21.5733 17.3038C21.4237 17.6526 21.2048 17.9674 20.9298 18.2291C20.6549 18.4907 20.3296 18.6937 19.9737 18.8257C19.6179 18.9577 19.2389 19.016 18.8598 18.997C18.7652 19.4654 18.6226 19.9228 18.4342 20.362ZM8.14981 9.19981C7.1838 9.19981 6.39981 9.98381 6.39981 10.9498V17.5998C6.39981 19.085 6.9898 20.5094 8.04001 21.5596C9.09021 22.6098 10.5146 23.1998 11.9998 23.1998C13.485 23.1998 14.9094 22.6098 15.9596 21.5596C17.0098 20.5094 17.5998 19.085 17.5998 17.5998V10.9498C17.5998 9.98381 16.8158 9.19981 15.8498 9.19981H8.14981ZM7.79981 10.9498C7.79981 10.857 7.83668 10.768 7.90232 10.7023C7.96796 10.6367 8.05698 10.5998 8.14981 10.5998H15.8498C15.9426 10.5998 16.0317 10.6367 16.0973 10.7023C16.1629 10.768 16.1998 10.857 16.1998 10.9498V17.5998C16.1998 18.7137 15.7573 19.782 14.9697 20.5697C14.182 21.3573 13.1137 21.7998 11.9998 21.7998C10.8859 21.7998 9.81761 21.3573 9.02996 20.5697C8.2423 19.782 7.79981 18.7137 7.79981 17.5998V10.9498Z"/>
</mask>
<path d="M11.9998 2.1998C11.4429 2.1998 10.9087 2.42105 10.5149 2.81488C10.1211 3.20871 9.89981 3.74285 9.89981 4.2998C9.89981 4.85676 10.1211 5.3909 10.5149 5.78473C10.9087 6.17856 11.4429 6.39981 11.9998 6.39981C12.5568 6.39981 13.0909 6.17856 13.4847 5.78473C13.8786 5.3909 14.0998 4.85676 14.0998 4.2998C14.0998 3.74285 13.8786 3.20871 13.4847 2.81488C13.0909 2.42105 12.5568 2.1998 11.9998 2.1998ZM8.49981 4.2998C8.49981 3.37155 8.86855 2.48131 9.52493 1.82493C10.1813 1.16855 11.0715 0.799805 11.9998 0.799805C12.9281 0.799805 13.8183 1.16855 14.4747 1.82493C15.1311 2.48131 15.4998 3.37155 15.4998 4.2998C15.4998 5.22806 15.1311 6.1183 14.4747 6.77468C13.8183 7.43106 12.9281 7.79981 11.9998 7.79981C11.0715 7.79981 10.1813 7.43106 9.52493 6.77468C8.86855 6.1183 8.49981 5.22806 8.49981 4.2998ZM19.6998 3.5998C19.3285 3.5998 18.9724 3.7473 18.7099 4.00986C18.4473 4.27241 18.2998 4.6285 18.2998 4.9998C18.2998 5.37111 18.4473 5.7272 18.7099 5.98975C18.9724 6.25231 19.3285 6.39981 19.6998 6.39981C20.0711 6.39981 20.4272 6.25231 20.6898 5.98975C20.9523 5.7272 21.0998 5.37111 21.0998 4.9998C21.0998 4.6285 20.9523 4.27241 20.6898 4.00986C20.4272 3.7473 20.0711 3.5998 19.6998 3.5998ZM16.8998 4.9998C16.8998 4.2572 17.1948 3.54501 17.7199 3.01991C18.245 2.4948 18.9572 2.1998 19.6998 2.1998C20.4424 2.1998 21.1546 2.4948 21.6797 3.01991C22.2048 3.54501 22.4998 4.2572 22.4998 4.9998C22.4998 5.74241 22.2048 6.4546 21.6797 6.9797C21.1546 7.50481 20.4424 7.79981 19.6998 7.79981C18.9572 7.79981 18.245 7.50481 17.7199 6.9797C17.1948 6.4546 16.8998 5.74241 16.8998 4.9998ZM2.8998 4.9998C2.8998 4.6285 3.0473 4.27241 3.30986 4.00986C3.57241 3.7473 3.9285 3.5998 4.2998 3.5998C4.67111 3.5998 5.0272 3.7473 5.28975 4.00986C5.55231 4.27241 5.69981 4.6285 5.69981 4.9998C5.69981 5.37111 5.55231 5.7272 5.28975 5.98975C5.0272 6.25231 4.67111 6.39981 4.2998 6.39981C3.9285 6.39981 3.57241 6.25231 3.30986 5.98975C3.0473 5.7272 2.8998 5.37111 2.8998 4.9998ZM4.2998 2.1998C3.5572 2.1998 2.84501 2.4948 2.31991 3.01991C1.7948 3.54501 1.4998 4.2572 1.4998 4.9998C1.4998 5.74241 1.7948 6.4546 2.31991 6.9797C2.84501 7.50481 3.5572 7.79981 4.2998 7.79981C5.04241 7.79981 5.7546 7.50481 6.2797 6.9797C6.80481 6.4546 7.0998 5.74241 7.0998 4.9998C7.0998 4.2572 6.80481 3.54501 6.2797 3.01991C5.7546 2.4948 5.04241 2.1998 4.2998 2.1998ZM5.1398 18.997C4.76073 19.016 4.38176 18.9577 4.02591 18.8257C3.67006 18.6937 3.34476 18.4907 3.06978 18.2291C2.79481 17.9674 2.57589 17.6526 2.42634 17.3038C2.27678 16.955 2.19971 16.5794 2.1998 16.1998V10.9498C2.1998 10.857 2.23668 10.768 2.30232 10.7023C2.36796 10.6367 2.45698 10.5998 2.5498 10.5998H5.0194C5.07541 10.086 5.25741 9.60861 5.53041 9.19981H2.5498C1.5838 9.19981 0.799805 9.98381 0.799805 10.9498V16.1998C0.799739 16.7992 0.927959 17.3916 1.17585 17.9373C1.42374 18.483 1.78555 18.9693 2.23698 19.3636C2.68841 19.7579 3.219 20.051 3.7931 20.2232C4.36719 20.3954 4.9715 20.4427 5.5654 20.362C5.37698 19.9229 5.23435 19.4654 5.1398 18.997ZM18.4342 20.362C19.0281 20.4427 19.6324 20.3954 20.2065 20.2232C20.7806 20.051 21.3112 19.7579 21.7626 19.3636C22.2141 18.9693 22.5759 18.483 22.8238 17.9373C23.0717 17.3916 23.1999 16.7992 23.1998 16.1998V10.9498C23.1998 9.98381 22.4158 9.19981 21.4498 9.19981H18.4692C18.7436 9.60861 18.9242 10.086 18.9802 10.5998H21.4498C21.5426 10.5998 21.6317 10.6367 21.6973 10.7023C21.7629 10.768 21.7998 10.857 21.7998 10.9498V16.1998C21.7999 16.5794 21.7228 16.955 21.5733 17.3038C21.4237 17.6526 21.2048 17.9674 20.9298 18.2291C20.6549 18.4907 20.3296 18.6937 19.9737 18.8257C19.6179 18.9577 19.2389 19.016 18.8598 18.997C18.7652 19.4654 18.6226 19.9228 18.4342 20.362ZM8.14981 9.19981C7.1838 9.19981 6.39981 9.98381 6.39981 10.9498V17.5998C6.39981 19.085 6.9898 20.5094 8.04001 21.5596C9.09021 22.6098 10.5146 23.1998 11.9998 23.1998C13.485 23.1998 14.9094 22.6098 15.9596 21.5596C17.0098 20.5094 17.5998 19.085 17.5998 17.5998V10.9498C17.5998 9.98381 16.8158 9.19981 15.8498 9.19981H8.14981ZM7.79981 10.9498C7.79981 10.857 7.83668 10.768 7.90232 10.7023C7.96796 10.6367 8.05698 10.5998 8.14981 10.5998H15.8498C15.9426 10.5998 16.0317 10.6367 16.0973 10.7023C16.1629 10.768 16.1998 10.857 16.1998 10.9498V17.5998C16.1998 18.7137 15.7573 19.782 14.9697 20.5697C14.182 21.3573 13.1137 21.7998 11.9998 21.7998C10.8859 21.7998 9.81761 21.3573 9.02996 20.5697C8.2423 19.782 7.79981 18.7137 7.79981 17.5998V10.9498Z" fill="#003554"/>
<path d="M11.9998 2.1998C11.4429 2.1998 10.9087 2.42105 10.5149 2.81488C10.1211 3.20871 9.89981 3.74285 9.89981 4.2998C9.89981 4.85676 10.1211 5.3909 10.5149 5.78473C10.9087 6.17856 11.4429 6.39981 11.9998 6.39981C12.5568 6.39981 13.0909 6.17856 13.4847 5.78473C13.8786 5.3909 14.0998 4.85676 14.0998 4.2998C14.0998 3.74285 13.8786 3.20871 13.4847 2.81488C13.0909 2.42105 12.5568 2.1998 11.9998 2.1998ZM8.49981 4.2998C8.49981 3.37155 8.86855 2.48131 9.52493 1.82493C10.1813 1.16855 11.0715 0.799805 11.9998 0.799805C12.9281 0.799805 13.8183 1.16855 14.4747 1.82493C15.1311 2.48131 15.4998 3.37155 15.4998 4.2998C15.4998 5.22806 15.1311 6.1183 14.4747 6.77468C13.8183 7.43106 12.9281 7.79981 11.9998 7.79981C11.0715 7.79981 10.1813 7.43106 9.52493 6.77468C8.86855 6.1183 8.49981 5.22806 8.49981 4.2998ZM19.6998 3.5998C19.3285 3.5998 18.9724 3.7473 18.7099 4.00986C18.4473 4.27241 18.2998 4.6285 18.2998 4.9998C18.2998 5.37111 18.4473 5.7272 18.7099 5.98975C18.9724 6.25231 19.3285 6.39981 19.6998 6.39981C20.0711 6.39981 20.4272 6.25231 20.6898 5.98975C20.9523 5.7272 21.0998 5.37111 21.0998 4.9998C21.0998 4.6285 20.9523 4.27241 20.6898 4.00986C20.4272 3.7473 20.0711 3.5998 19.6998 3.5998ZM16.8998 4.9998C16.8998 4.2572 17.1948 3.54501 17.7199 3.01991C18.245 2.4948 18.9572 2.1998 19.6998 2.1998C20.4424 2.1998 21.1546 2.4948 21.6797 3.01991C22.2048 3.54501 22.4998 4.2572 22.4998 4.9998C22.4998 5.74241 22.2048 6.4546 21.6797 6.9797C21.1546 7.50481 20.4424 7.79981 19.6998 7.79981C18.9572 7.79981 18.245 7.50481 17.7199 6.9797C17.1948 6.4546 16.8998 5.74241 16.8998 4.9998ZM2.8998 4.9998C2.8998 4.6285 3.0473 4.27241 3.30986 4.00986C3.57241 3.7473 3.9285 3.5998 4.2998 3.5998C4.67111 3.5998 5.0272 3.7473 5.28975 4.00986C5.55231 4.27241 5.69981 4.6285 5.69981 4.9998C5.69981 5.37111 5.55231 5.7272 5.28975 5.98975C5.0272 6.25231 4.67111 6.39981 4.2998 6.39981C3.9285 6.39981 3.57241 6.25231 3.30986 5.98975C3.0473 5.7272 2.8998 5.37111 2.8998 4.9998ZM4.2998 2.1998C3.5572 2.1998 2.84501 2.4948 2.31991 3.01991C1.7948 3.54501 1.4998 4.2572 1.4998 4.9998C1.4998 5.74241 1.7948 6.4546 2.31991 6.9797C2.84501 7.50481 3.5572 7.79981 4.2998 7.79981C5.04241 7.79981 5.7546 7.50481 6.2797 6.9797C6.80481 6.4546 7.0998 5.74241 7.0998 4.9998C7.0998 4.2572 6.80481 3.54501 6.2797 3.01991C5.7546 2.4948 5.04241 2.1998 4.2998 2.1998ZM5.1398 18.997C4.76073 19.016 4.38176 18.9577 4.02591 18.8257C3.67006 18.6937 3.34476 18.4907 3.06978 18.2291C2.79481 17.9674 2.57589 17.6526 2.42634 17.3038C2.27678 16.955 2.19971 16.5794 2.1998 16.1998V10.9498C2.1998 10.857 2.23668 10.768 2.30232 10.7023C2.36796 10.6367 2.45698 10.5998 2.5498 10.5998H5.0194C5.07541 10.086 5.25741 9.60861 5.53041 9.19981H2.5498C1.5838 9.19981 0.799805 9.98381 0.799805 10.9498V16.1998C0.799739 16.7992 0.927959 17.3916 1.17585 17.9373C1.42374 18.483 1.78555 18.9693 2.23698 19.3636C2.68841 19.7579 3.219 20.051 3.7931 20.2232C4.36719 20.3954 4.9715 20.4427 5.5654 20.362C5.37698 19.9229 5.23435 19.4654 5.1398 18.997ZM18.4342 20.362C19.0281 20.4427 19.6324 20.3954 20.2065 20.2232C20.7806 20.051 21.3112 19.7579 21.7626 19.3636C22.2141 18.9693 22.5759 18.483 22.8238 17.9373C23.0717 17.3916 23.1999 16.7992 23.1998 16.1998V10.9498C23.1998 9.98381 22.4158 9.19981 21.4498 9.19981H18.4692C18.7436 9.60861 18.9242 10.086 18.9802 10.5998H21.4498C21.5426 10.5998 21.6317 10.6367 21.6973 10.7023C21.7629 10.768 21.7998 10.857 21.7998 10.9498V16.1998C21.7999 16.5794 21.7228 16.955 21.5733 17.3038C21.4237 17.6526 21.2048 17.9674 20.9298 18.2291C20.6549 18.4907 20.3296 18.6937 19.9737 18.8257C19.6179 18.9577 19.2389 19.016 18.8598 18.997C18.7652 19.4654 18.6226 19.9228 18.4342 20.362ZM8.14981 9.19981C7.1838 9.19981 6.39981 9.98381 6.39981 10.9498V17.5998C6.39981 19.085 6.9898 20.5094 8.04001 21.5596C9.09021 22.6098 10.5146 23.1998 11.9998 23.1998C13.485 23.1998 14.9094 22.6098 15.9596 21.5596C17.0098 20.5094 17.5998 19.085 17.5998 17.5998V10.9498C17.5998 9.98381 16.8158 9.19981 15.8498 9.19981H8.14981ZM7.79981 10.9498C7.79981 10.857 7.83668 10.768 7.90232 10.7023C7.96796 10.6367 8.05698 10.5998 8.14981 10.5998H15.8498C15.9426 10.5998 16.0317 10.6367 16.0973 10.7023C16.1629 10.768 16.1998 10.857 16.1998 10.9498V17.5998C16.1998 18.7137 15.7573 19.782 14.9697 20.5697C14.182 21.3573 13.1137 21.7998 11.9998 21.7998C10.8859 21.7998 9.81761 21.3573 9.02996 20.5697C8.2423 19.782 7.79981 18.7137 7.79981 17.5998V10.9498Z" stroke="#003554" stroke-width="0.2" mask="url(#path-1-outside-1_2517_14789)"/>
</svg>
