<svg width="26" height="26" viewBox="0 0 26 26" fill="none" xmlns="http://www.w3.org/2000/svg">
<path d="M9.62646 7.76762C9.82471 7.77304 10.0446 7.78387 10.2537 8.24754C10.3924 8.55629 10.6253 9.12504 10.816 9.58871C10.9644 9.94946 11.0857 10.2463 11.116 10.307C11.1854 10.4456 11.2287 10.6049 11.1377 10.7923L11.1074 10.8551C11.0453 11.0007 10.9612 11.1359 10.8582 11.256C10.8058 11.3167 10.7542 11.3781 10.7033 11.4401C10.6112 11.5528 10.5191 11.6633 10.4411 11.7413C10.3014 11.88 10.1573 12.0295 10.3176 12.3068C10.479 12.5841 11.0413 13.4963 11.8722 14.2319C12.4804 14.7794 13.1776 15.2191 13.9338 15.5319C14.0096 15.5644 14.0714 15.5915 14.118 15.6142C14.3964 15.7529 14.5621 15.7312 14.7225 15.5449C14.8839 15.3575 15.419 14.7335 15.6075 14.4561C15.7895 14.1788 15.9759 14.2221 16.2337 14.3175C16.4915 14.4139 17.863 15.0866 18.1415 15.2242L18.2964 15.3C18.4903 15.3921 18.6214 15.456 18.6777 15.5492C18.747 15.6673 18.747 16.2209 18.5174 16.873C18.2812 17.523 17.1448 18.147 16.6302 18.1947L16.484 18.212C16.0116 18.2684 15.4136 18.342 13.2816 17.5025C10.6535 16.469 8.91904 13.9058 8.56912 13.3869C8.55044 13.3591 8.5313 13.3317 8.51171 13.3045L8.50521 13.2959C8.34596 13.0825 7.36987 11.777 7.36987 10.4294C7.36987 9.14021 8.00579 8.46854 8.29504 8.16304L8.34596 8.10887C8.43958 8.00311 8.55397 7.91775 8.68201 7.85811C8.81006 7.79847 8.949 7.76582 9.09021 7.76221C9.27762 7.76221 9.46612 7.76221 9.62646 7.76762Z" fill="#003554"/>
<path fill-rule="evenodd" clip-rule="evenodd" d="M2.3659 23.1085C2.34549 23.1819 2.34481 23.2594 2.36393 23.3332C2.38305 23.407 2.4213 23.4745 2.47482 23.5287C2.52833 23.583 2.59522 23.6222 2.66872 23.6424C2.74223 23.6626 2.81976 23.663 2.89348 23.6436L7.8844 22.3393C9.46789 23.197 11.2402 23.6464 13.0411 23.6469H13.0454C18.9886 23.6469 23.8332 18.8293 23.8332 12.9089C23.837 11.4968 23.5598 10.0981 23.0179 8.79411C22.4759 7.49016 21.68 6.30705 20.6764 5.31364C19.6747 4.31186 18.4849 3.51807 17.1752 2.97797C15.8656 2.43786 14.462 2.1621 13.0454 2.16656C7.10224 2.16656 2.25757 6.98306 2.25757 12.9035C2.25757 14.7874 2.75373 16.6377 3.6984 18.2703L2.3659 23.1085ZM5.26599 18.7015C5.32327 18.4936 5.33859 18.2763 5.31106 18.0624C5.28353 17.8485 5.21371 17.6423 5.10565 17.4556C4.30413 16.0725 3.8822 14.5021 3.88257 12.9035C3.88257 7.88764 7.99165 3.79156 13.0454 3.79156C15.5046 3.79156 17.7991 4.74164 19.5302 6.46522C20.3821 7.30767 21.0576 8.31134 21.5174 9.41767C21.9772 10.524 22.2121 11.7108 22.2082 12.9089C22.2082 17.9247 18.0992 22.0219 13.0454 22.0219H13.04C11.51 22.0211 10.0043 21.6391 8.65899 20.9104C8.29638 20.7141 7.87271 20.663 7.47382 20.7674L4.48165 21.5485L5.26599 18.7015Z" fill="#003554"/>
</svg>
