<svg width="18" height="18" viewBox="0 0 18 18" fill="none" xmlns="http://www.w3.org/2000/svg">
<path d="M8.99972 0C5.55547 0 2.75342 2.80246 2.75342 6.2468C2.75342 9.56227 8.4208 17.3084 8.66211 17.6364L8.88732 17.9429C8.91366 17.9789 8.9556 18 8.99972 18C9.04453 18 9.08619 17.9789 9.1128 17.9429L9.33788 17.6364C9.57933 17.3084 15.2466 9.56227 15.2466 6.2468C15.2466 2.80246 12.4441 0 8.99972 0ZM8.99972 4.00921C10.2338 4.00921 11.2373 5.01276 11.2373 6.2468C11.2373 7.4802 10.2338 8.4844 8.99972 8.4844C7.76636 8.4844 6.76213 7.4802 6.76213 6.2468C6.76213 5.01276 7.76632 4.00921 8.99972 4.00921Z" fill="white"/>
</svg>
